<?xml version="1.0" encoding="utf-8"?>
<!-- Generator: Adobe Illustrator 16.0.0, SVG Export Plug-In . SVG Version: 6.00 Build 0)  -->
<!DOCTYPE svg PUBLIC "-//W3C//DTD SVG 1.1//EN" "http://www.w3.org/Graphics/SVG/1.1/DTD/svg11.dtd">
<svg version="1.1" id="Hot_Wheels" xmlns="http://www.w3.org/2000/svg" xmlns:xlink="http://www.w3.org/1999/xlink" x="0px" y="0px"
	 width="1366px" height="958.031px" viewBox="0 0 1366 958.031" enable-background="new 0 0 1366 958.031" xml:space="preserve">
<path fill="#9DDFF8" d="M0.105,3.465c1.986-1.954,5.957-1.954,7.943,0c1.986,1.955,5.957,1.955,7.942,0
	c1.985-1.954,5.958-1.954,7.944,0c1.986,1.955,5.957,1.955,7.943,0c1.985-1.954,5.959-1.954,7.943,0
	c1.986,1.955,5.958,1.955,7.943,0c1.986-1.954,5.957-1.954,7.944,0c1.985,1.955,5.956,1.955,7.943,0
	c1.985-1.954,5.958-1.954,7.942,0c1.987,1.955,5.959,1.955,7.943,0c1.987-1.954,5.958-1.954,7.945,0
	c1.984,1.955,5.956,1.955,7.943,0c1.983-1.954,5.957-1.954,7.942,0c1.985,1.955,5.958,1.955,7.944,0
	c1.984-1.954,5.957-1.954,7.941,0c1.986,1.955,5.959,1.955,7.944,0c1.985-1.954,5.958-1.954,7.944,0
	c1.986,1.955,5.957,1.955,7.943,0c1.985-1.954,5.957-1.954,7.942,0c1.987,1.955,5.958,1.955,7.944,0
	c1.985-1.954,5.957-1.954,7.943,0c1.985,1.955,5.958,1.955,7.943,0c1.986-1.954,5.958-1.954,7.943,0
	c1.985,1.955,5.957,1.955,7.943,0c1.985-1.954,5.958-1.954,7.943,0c1.986,1.955,5.958,1.955,7.943,0
	c1.986-1.954,5.957-1.954,7.943,0c1.986,1.955,5.958,1.955,7.943,0c1.986-1.954,5.957-1.954,7.943,0
	c1.986,1.955,5.957,1.955,7.944,0c1.985-1.954,5.958-1.954,7.942,0c1.986,1.955,5.959,1.955,7.943,0
	c1.986-1.954,5.958-1.954,7.945,0c1.984,1.955,5.956,1.955,7.941,0c1.986-1.954,5.959-1.954,7.943,0
	c1.987,1.955,5.959,1.955,7.944,0c1.985-1.954,5.957-1.954,7.944,0c1.985,1.955,5.957,1.955,7.942,0
	c1.986-1.954,5.958-1.954,7.944,0c1.986,1.955,5.957,1.955,7.943,0c1.986-1.954,5.957-1.954,7.943,0
	c1.984,1.955,5.957,1.955,7.943,0c1.984-1.954,5.957-1.954,7.943,0c1.986,1.955,5.959,1.955,7.942,0
	c1.987-1.954,5.959-1.954,7.944,0c1.986,1.955,5.957,1.955,7.943,0c1.986-1.954,5.957-1.954,7.943,0
	c1.986,1.955,5.958,1.955,7.943,0c1.986-1.954,5.957-1.954,7.943,0c1.987,1.955,5.958,1.955,7.944,0
	c1.985-1.954,5.957-1.954,7.944,0c1.983,1.955,5.957,1.955,7.942,0c1.986-1.954,5.958-1.954,7.943,0
	c1.985,1.955,5.958,1.955,7.944,0c1.984-1.954,5.957-1.954,7.942,0c1.985,1.955,5.958,1.955,7.942,0
	c1.988-1.954,5.959-1.954,7.945,0c1.985,1.955,5.957,1.955,7.942,0c1.985-1.954,5.958-1.954,7.944,0
	c1.986,1.955,5.957,1.955,7.943,0c1.986-1.954,5.957-1.954,7.943,0c1.984,1.955,5.958,1.955,7.943,0
	c1.985-1.954,5.957-1.954,7.943,0c1.985,1.955,5.957,1.955,7.943,0c1.984-1.954,5.959-1.954,7.943,0
	c1.986,1.955,5.957,1.955,7.942,0c1.987-1.954,5.958-1.954,7.945,0c1.985,1.955,5.957,1.955,7.942,0
	c1.986-1.954,5.957-1.954,7.943,0c1.987,1.955,5.958,1.955,7.943,0c1.986-1.954,5.959-1.954,7.945,0
	c1.984,1.955,5.957,1.955,7.942,0c1.985-1.954,5.957-1.954,7.942,0c1.986,1.955,5.959,1.955,7.943,0
	c1.987-1.954,5.959-1.954,7.943,0c1.986,1.955,5.958,1.955,7.945,0c1.984-1.954,5.955-1.954,7.942,0
	c1.986,1.955,5.958,1.955,7.943,0c1.987-1.954,5.958-1.954,7.944,0c1.985,1.955,5.957,1.955,7.943,0
	c1.985-1.954,5.957-1.954,7.943,0c1.984,1.955,5.958,1.955,7.943,0c1.985-1.954,5.957-1.954,7.942,0
	c1.987,1.955,5.959,1.955,7.944,0c1.986-1.954,5.957-1.954,7.943,0c1.985,1.955,5.957,1.955,7.943,0
	c1.987-1.954,5.958-1.954,7.943,0c1.986,1.955,5.958,1.955,7.943,0c1.986-1.954,5.957-1.954,7.944,0
	c1.985,1.955,5.957,1.955,7.943,0c1.984-1.954,5.958-1.954,7.943,0c1.985,1.955,5.957,1.955,7.942,0
	c1.986-1.954,5.959-1.954,7.943,0c1.986,1.955,5.958,1.955,7.944,0c1.985-1.954,5.957-1.954,7.943,0
	c1.986,1.955,5.958,1.955,7.942,0c1.987-1.954,5.958-1.954,7.945,0c1.985,1.955,5.956,1.955,7.943,0
	c1.984-1.954,5.957-1.954,7.942,0c1.986,1.955,5.958,1.955,7.944,0c1.985-1.954,5.957-1.954,7.943,0
	c1.984,1.955,5.958,1.955,7.942,0c1.986-1.954,5.958-1.954,7.944,0c1.986,1.955,5.957,1.955,7.943,0
	c1.985-1.954,5.958-1.954,7.942,0c1.987,1.955,5.958,1.955,7.945,0c1.985-1.954,5.956-1.954,7.942,0
	c1.985,1.955,5.959,1.955,7.943,0c1.987-1.954,5.958-1.954,7.943,0c1.985,1.955,5.958,1.955,7.944,0
	c1.984-1.954,5.957-1.954,7.943,0c1.985,1.955,5.957,1.955,7.942,0c1.986-1.954,5.959-1.954,7.943,0
	c1.986,1.955,5.959,1.955,7.944,0c1.986-1.954,5.957-1.954,7.943,0c1.985,1.955,5.957,1.955,7.943,0
	c1.986-1.954,5.958-1.954,7.943,0c1.987,1.955,5.958,1.955,7.943,0c1.986-1.954,5.958-1.954,7.944,0
	c1.984,1.955,5.956,1.955,7.943,0c1.984-1.954,5.958-1.954,7.941,0c1.987,1.955,5.959,1.955,7.944,0
	c1.986-1.954,5.958-1.954,7.944,0c1.985,1.955,5.957,1.955,7.942,0c1.986-1.954,5.958-1.954,7.944,0
	c1.986,1.955,5.957,1.955,7.943,0c1.986-1.954,5.958-1.954,7.943,0c1.986,1.955,5.957,1.955,7.944,0
	c1.985-1.954,5.956-1.954,7.943,0c1.985,1.955,5.958,1.955,7.942,0c1.986-1.954,5.958-1.954,7.944,0
	c1.985,1.955,5.957,1.955,7.942,0c1.986-1.954,5.959-1.954,7.943,0c1.986,1.955,5.958,1.955,7.944,0
	c1.985-1.954,5.957-1.954,7.942,0c1.987,1.955,5.958,1.955,7.944,0c1.986-1.954,5.957-1.954,7.944,0
	c1.984,1.955,5.957,1.955,7.942,0c1.986-1.954,5.958-1.954,7.943,0c1.986,1.955,5.958,1.955,7.944,0
	c1.984-1.954,5.957-1.954,7.942,0c1.985,1.955,5.958,1.955,7.943,0c1.987-1.954,5.958-1.954,7.944,0
	c1.985,1.955,5.957,1.955,7.942,0c1.986-1.954,5.958-1.954,7.944,0c1.986,1.955,5.957,1.955,7.943,0
	c1.986-1.954,5.957-1.954,7.943,0c1.986,1.955,5.958,1.955,7.943,0c1.985-1.954,5.958-1.954,7.945,0
	c1.983,1.955,5.955,1.955,7.942,0c1.984-1.954,5.958-1.954,7.942,0c1.986,1.955,5.959,1.955,7.942,0
	c1.987-1.954,5.959-1.954,7.945,0c1.985,1.955,5.957,1.955,7.943,0c1.985-1.954,5.957-1.954,7.942,0
	c1.987,1.955,5.958,1.955,7.944,0c1.986-1.954,5.958-1.954,7.944,0c1.984,1.955,5.957,1.955,7.942,0
	c1.985-1.954,5.957-1.954,7.944,0c1.984,1.955,5.958,1.955,7.941,0c1.987-1.954,5.959-1.954,7.943,0
	c1.987,1.955,5.959,1.955,7.945,0c1.984-1.954,5.956-1.954,7.942,0c1.986,1.955,5.958,1.955,7.943,0
	c1.987-1.954,5.958-1.954,7.944,0c1.985,1.955,5.957,1.955,7.943,0c1.986-1.954,5.957-1.954,7.943,0
	c1.985,1.955,5.958,1.955,7.944,0c1.984-1.954,5.957-1.954,7.942,0c1.986,1.955,5.958,1.955,7.943,0
	c1.986-1.954,5.958-1.954,7.944,0c1.984,1.955,5.956,1.955,7.942,0v954.566H-0.379L0.105,3.465z"/>
</svg>
