<?xml version="1.0" encoding="utf-8"?>
<!-- Generator: Adobe Illustrator 16.0.0, SVG Export Plug-In . SVG Version: 6.00 Build 0)  -->
<!DOCTYPE svg PUBLIC "-//W3C//DTD SVG 1.1//EN" "http://www.w3.org/Graphics/SVG/1.1/DTD/svg11.dtd">
<svg version="1.1" id="Layer_1" xmlns="http://www.w3.org/2000/svg" xmlns:xlink="http://www.w3.org/1999/xlink" x="0px" y="0px"
	 width="1364.484px" height="526.5px" viewBox="0 0 1364.484 526.5" enable-background="new 0 0 1364.484 526.5"
	 xml:space="preserve">
<g>
	<g>
		<defs>
			<rect id="SVGID_1_" y="2.53" width="1364.484" height="523.97"/>
		</defs>
		<clipPath id="SVGID_2_">
			<use xlink:href="#SVGID_1_"  overflow="visible"/>
		</clipPath>
		<path clip-path="url(#SVGID_2_)" fill="#00AEEF" d="M0.483,3.996c1.983-1.955,5.948-1.955,7.93,0c1.983,1.955,5.948,1.955,7.93,0
			c1.983-1.955,5.948-1.955,7.931,0c1.982,1.955,5.947,1.955,7.93,0c1.982-1.955,5.948-1.955,7.93,0c1.983,1.955,5.948,1.955,7.93,0
			c1.983-1.955,5.948-1.955,7.931,0c1.982,1.955,5.947,1.955,7.93,0c1.982-1.955,5.948-1.955,7.93,0c1.983,1.955,5.948,1.955,7.93,0
			c1.983-1.955,5.948-1.955,7.931,0c1.982,1.955,5.947,1.955,7.93,0c1.982-1.955,5.947-1.955,7.93,0c1.983,1.955,5.948,1.955,7.93,0
			c1.983-1.955,5.948-1.955,7.93,0s5.948,1.955,7.931,0c1.982-1.955,5.947-1.955,7.931,0c1.982,1.955,5.947,1.955,7.929,0
			c1.983-1.955,5.948-1.955,7.93,0c1.983,1.955,5.948,1.955,7.931,0c1.982-1.955,5.947-1.955,7.93,0c1.982,1.955,5.948,1.955,7.93,0
			c1.983-1.955,5.948-1.955,7.93,0c1.983,1.955,5.948,1.955,7.931,0c1.982-1.955,5.947-1.955,7.93,0
			c1.982,1.955,5.947,1.955,7.929,0c1.984-1.955,5.949-1.955,7.931,0c1.983,1.955,5.949,1.955,7.931,0s5.947-1.955,7.93,0
			c1.982,1.955,5.947,1.955,7.93,0s5.948-1.955,7.93,0c1.983,1.955,5.948,1.955,7.93,0c1.983-1.955,5.948-1.955,7.931,0
			c1.982,1.955,5.947,1.955,7.93,0c1.982-1.955,5.948-1.955,7.93,0c1.983,1.955,5.948,1.955,7.93,0c1.983-1.955,5.947-1.955,7.931,0
			c1.982,1.955,5.947,1.955,7.93,0c1.982-1.955,5.948-1.955,7.93,0c1.983,1.955,5.948,1.955,7.93,0c1.983-1.955,5.948-1.955,7.931,0
			c1.982,1.955,5.947,1.955,7.93,0c1.982-1.955,5.947-1.955,7.93,0s5.948,1.955,7.93,0c1.983-1.955,5.948-1.955,7.93,0
			c1.983,1.955,5.948,1.955,7.931,0c1.982-1.955,5.947-1.955,7.93,0c1.982,1.955,5.948,1.955,7.93,0c1.983-1.955,5.948-1.955,7.93,0
			c1.984,1.955,5.948,1.955,7.931,0c1.981-1.955,5.946-1.955,7.93,0c1.982,1.955,5.948,1.955,7.93,0
			c1.983-1.955,5.948-1.955,7.931,0s5.947,1.955,7.931,0c1.982-1.955,5.947-1.955,7.93,0s5.947,1.955,7.931,0
			c1.982-1.955,5.947-1.955,7.93,0s5.948,1.955,7.93,0c1.982-1.955,5.948-1.955,7.932,0c1.981,1.955,5.946,1.955,7.931,0
			c1.981-1.955,5.947-1.955,7.929,0c1.982,1.955,5.947,1.955,7.93,0c1.983-1.955,5.948-1.955,7.932,0
			c1.982,1.955,5.947,1.955,7.931,0c1.981-1.955,5.947-1.955,7.931,0c1.982,1.955,5.947,1.955,7.93,0s5.948-1.955,7.932,0
			c1.981,1.955,5.946,1.955,7.931,0c1.981-1.955,5.946-1.955,7.929,0c1.984,1.955,5.949,1.955,7.932,0
			c1.983-1.955,5.948-1.955,7.932,0c1.982,1.955,5.946,1.955,7.93,0c1.982-1.955,5.947-1.955,7.931,0
			c1.982,1.955,5.947,1.955,7.931,0c1.982-1.955,5.947-1.955,7.93,0s5.948,1.955,7.932,0c1.981-1.955,5.945-1.955,7.931,0
			c1.981,1.955,5.947,1.955,7.93,0c1.983-1.955,5.948-1.955,7.931,0c1.983,1.955,5.946,1.955,7.932,0
			c1.981-1.955,5.946-1.955,7.93,0s5.948,1.955,7.931,0c1.983-1.955,5.947-1.955,7.931,0c1.982,1.955,5.947,1.955,7.931,0
			s5.947-1.955,7.931,0c1.981,1.955,5.946,1.955,7.931,0c1.981-1.955,5.948-1.955,7.93,0s5.947,1.955,7.93,0
			c1.984-1.955,5.947-1.955,7.932,0c1.98,1.955,5.947,1.955,7.93,0c1.984-1.955,5.949-1.955,7.932,0s5.947,1.955,7.93,0
			s5.949-1.955,7.932,0s5.947,1.955,7.932,0c1.98-1.955,5.945-1.955,7.93,0c1.982,1.955,5.947,1.955,7.93,0s5.947-1.955,7.932,0
			c1.982,1.955,5.945,1.955,7.93,0c1.98-1.955,5.947-1.955,7.93,0c1.984,1.955,5.949,1.955,7.932,0s5.947-1.955,7.93,0
			c1.98,1.955,5.949,1.955,7.932,0s5.947-1.955,7.932,0c1.98,1.955,5.945,1.955,7.93,0c1.982-1.955,5.947-1.955,7.93,0
			s5.947,1.955,7.932,0c1.98-1.955,5.945-1.955,7.93,0c1.982,1.955,5.947,1.955,7.93,0c1.984-1.955,5.949-1.955,7.93,0
			c1.984,1.955,5.949,1.955,7.934,0c1.98-1.955,5.945-1.955,7.93,0c1.982,1.955,5.947,1.955,7.93,0s5.947-1.955,7.932,0
			c1.982,1.955,5.947,1.955,7.93,0c1.984-1.955,5.947-1.955,7.932,0c1.982,1.955,5.945,1.955,7.93,0c1.982-1.955,5.949-1.955,7.93,0
			c1.984,1.955,5.949,1.955,7.932,0s5.947-1.955,7.932,0c1.98,1.955,5.945,1.955,7.93,0c1.982-1.955,5.947-1.955,7.93,0
			s5.947,1.955,7.932,0c1.982-1.955,5.945-1.955,7.93,0c1.982,1.955,5.947,1.955,7.932,0c1.982-1.955,5.947-1.955,7.93,0
			c1.984,1.955,5.947,1.955,7.93,0c1.984-1.955,5.949-1.955,7.932,0s5.947,1.955,7.932,0c1.98-1.955,5.945-1.955,7.93,0
			s5.947,1.955,7.93,0s5.949-1.955,7.932,0s5.947,1.955,7.932,0c1.98-1.955,5.945-1.955,7.93,0c1.982,1.955,5.947,1.955,7.93,0
			c1.984-1.955,5.947-1.955,7.932,0c1.982,1.955,5.947,1.955,7.93,0c1.984-1.955,5.947-1.955,7.932,0c1.98,1.955,5.947,1.955,7.93,0
			s5.947-1.955,7.93,0c1.984,1.955,5.949,1.955,7.934,0c1.98-1.955,5.945-1.955,7.93,0c1.98,1.955,5.947,1.955,7.93,0
			s5.947-1.955,7.93,0s5.947,1.955,7.932,0c1.982-1.955,5.947-1.955,7.93,0c1.984,1.955,5.947,1.955,7.932,0
			c1.982-1.955,5.947-1.955,7.93,0c1.984,1.955,5.949,1.955,7.932,0s5.947-1.955,7.93,0c1.984,1.955,5.947,1.955,7.932,0
			c1.98-1.955,5.947-1.955,7.93,0s5.947,1.955,7.93,0c1.984-1.955,5.949-1.955,7.932,0s5.947,1.955,7.932,0
			c1.98-1.955,5.947-1.955,7.93,0s5.947,1.955,7.932,0c1.982-1.955,5.945-1.955,7.93,0c1.982,1.955,5.947,1.955,7.93,0
			c1.984-1.955,5.947-1.955,7.932,0c1.982,1.955,5.947,1.955,7.93,0c1.984-1.955,5.949-1.955,7.93,0
			c1.984,1.955,5.949,1.955,7.934,0c1.98-1.955,5.945-1.955,7.93,0c1.982,1.955,5.947,1.955,7.93,0s5.947-1.955,7.932,0
			c1.982,1.955,5.947,1.955,7.93,0s5.947-1.955,7.932,0c1.982,1.955,5.947,1.955,7.93,0c1.984-1.955,5.947-1.955,7.93,0
			c1.984,1.955,5.949,1.955,7.932,0s5.947-1.955,7.93,0c1.984,1.955,5.947,1.955,7.932,0V526.5H0L0.483,3.996z"/>
	</g>
</g>
</svg>
