<?xml version="1.0" encoding="utf-8"?>
<!-- Generator: Adobe Illustrator 16.0.0, SVG Export Plug-In . SVG Version: 6.00 Build 0)  -->
<!DOCTYPE svg PUBLIC "-//W3C//DTD SVG 1.1//EN" "http://www.w3.org/Graphics/SVG/1.1/DTD/svg11.dtd">
<svg version="1.1" id="Layer_1" xmlns="http://www.w3.org/2000/svg" xmlns:xlink="http://www.w3.org/1999/xlink" x="0px" y="0px"
	 width="1366px" height="732px" viewBox="0 0 1366 732" enable-background="new 0 0 1366 732" xml:space="preserve">
<g>
	<g>
		<g>
			<defs>
				<rect id="SVGID_1_" width="1366" height="732"/>
			</defs>
			<clipPath id="SVGID_2_">
				<use xlink:href="#SVGID_1_"  overflow="visible"/>
			</clipPath>
			<rect y="0.092" clip-path="url(#SVGID_2_)" fill="#FFF200" width="1366" height="731.908"/>
		</g>
	</g>
	<g>
		<g>
			<defs>
				<rect id="SVGID_3_" width="1366" height="732"/>
			</defs>
			<clipPath id="SVGID_4_">
				<use xlink:href="#SVGID_3_"  overflow="visible"/>
			</clipPath>
			<g clip-path="url(#SVGID_4_)">
				<g>
					<g>
						<defs>
							<rect id="SVGID_5_" width="1366" height="732"/>
						</defs>
						<clipPath id="SVGID_6_">
							<use xlink:href="#SVGID_5_"  overflow="visible"/>
						</clipPath>
						<g clip-path="url(#SVGID_6_)">
							<g>
								<g>
									<g>
										<defs>
											<rect id="SVGID_7_" x="413" y="11.83" width="1968.939" height="676.34"/>
										</defs>
										<defs>
											<rect id="SVGID_8_" x="413" y="11.83" width="1968.939" height="676.34"/>
										</defs>
										<defs>
											<rect id="SVGID_9_" x="413" y="11.83" width="1968.939" height="676.34"/>
										</defs>
										<defs>
											<rect id="SVGID_10_" x="413" y="11.83" width="1968.939" height="676.34"/>
										</defs>
										<defs>
											<rect id="SVGID_11_" x="413" y="11.83" width="1968.939" height="676.34"/>
										</defs>
										<defs>
											<rect id="SVGID_12_" x="413" y="11.83" width="1968.939" height="676.34"/>
										</defs>
										<defs>
											<rect id="SVGID_13_" x="413" y="11.83" width="1968.939" height="676.34"/>
										</defs>
										<defs>
											<rect id="SVGID_14_" x="413" y="11.83" width="1968.939" height="676.34"/>
										</defs>
										<defs>
											<rect id="SVGID_15_" x="413" y="11.83" width="1968.939" height="676.34"/>
										</defs>
										<defs>
											<rect id="SVGID_16_" x="413" y="11.83" width="1968.939" height="676.34"/>
										</defs>
										<defs>
											<rect id="SVGID_17_" x="413" y="11.83" width="1968.939" height="676.34"/>
										</defs>
										<defs>
											<rect id="SVGID_18_" x="413" y="11.83" width="1968.939" height="676.34"/>
										</defs>
										<clipPath id="SVGID_19_">
											<use xlink:href="#SVGID_7_"  overflow="visible"/>
										</clipPath>
										<clipPath id="SVGID_20_" clip-path="url(#SVGID_19_)">
											<use xlink:href="#SVGID_8_"  overflow="visible"/>
										</clipPath>
										<clipPath id="SVGID_21_" clip-path="url(#SVGID_20_)">
											<use xlink:href="#SVGID_9_"  overflow="visible"/>
										</clipPath>
										<clipPath id="SVGID_22_" clip-path="url(#SVGID_21_)">
											<use xlink:href="#SVGID_10_"  overflow="visible"/>
										</clipPath>
										<clipPath id="SVGID_23_" clip-path="url(#SVGID_22_)">
											<use xlink:href="#SVGID_11_"  overflow="visible"/>
										</clipPath>
										<clipPath id="SVGID_24_" clip-path="url(#SVGID_23_)">
											<use xlink:href="#SVGID_12_"  overflow="visible"/>
										</clipPath>
										<clipPath id="SVGID_25_" clip-path="url(#SVGID_24_)">
											<use xlink:href="#SVGID_13_"  overflow="visible"/>
										</clipPath>
										<clipPath id="SVGID_26_" clip-path="url(#SVGID_25_)">
											<use xlink:href="#SVGID_14_"  overflow="visible"/>
										</clipPath>
										<clipPath id="SVGID_27_" clip-path="url(#SVGID_26_)">
											<use xlink:href="#SVGID_15_"  overflow="visible"/>
										</clipPath>
										<clipPath id="SVGID_28_" clip-path="url(#SVGID_27_)">
											<use xlink:href="#SVGID_16_"  overflow="visible"/>
										</clipPath>
										<clipPath id="SVGID_29_" clip-path="url(#SVGID_28_)">
											<use xlink:href="#SVGID_17_"  overflow="visible"/>
										</clipPath>
										<clipPath id="SVGID_30_" clip-path="url(#SVGID_29_)">
											<use xlink:href="#SVGID_18_"  overflow="visible"/>
										</clipPath>
										<path clip-path="url(#SVGID_30_)" fill="#F9E816" d="M1655.689,347.211c-5.052,27.848-10.636,55.578-16.201,83.366
											c-12.353,61.632-25.08,123.09-36.984,184.799c-3.91,20.152-13.027,33.729-30.964,41.287
											c-29.446,12.342-60.094,18.61-91.206,22.854c-42.789,5.707-85.709,7.889-128.805,5.532
											c-36.304-1.946-71.098-10.99-102.209-32.724c-11.615-8.118-21.688-17.299-30.27-27.559H661.497
											c-15.508-0.676-27.255-14.349-27.255-30.759c0-8.679,3.682-16.95,9.572-22.603c4.13-3.99,9.318-6.613,14.99-7.231
											c0.519-0.076,0.975-0.153,1.51-0.153h204.593h7.45c0.655,0,1.271,0,1.937-0.074c13.354-1.18,24.109-13.598,24.109-28.6
											c0-14.31-9.871-26.496-22.441-28.387c-1.201-0.271-2.422-0.348-3.604-0.348h-331.88
											c-14.939,0-26.758-13.019-26.758-29.235c0-16.392,11.817-29.406,26.758-29.406h310.709c1.199,0,2.5-0.175,3.611-0.426
											c12.272-2.141,21.398-14.174,21.398-27.653c0-11.378-5.961-21.059-14.687-25.356c-1.587-0.83-3.319-1.505-5.048-1.91
											c-1.813-0.425-3.771-0.656-5.744-0.656H620.547c-16.734,0-29.77-14.98-29.77-33.495c0-18.437,13.034-33.555,29.77-33.555
											l294.424-0.559c14.92,0,26.143-12.998,26.143-28.812c0-12.784-7.521-23.777-18.384-27.363
											c-2.473-0.83-5.041-1.311-7.759-1.311l-279.88,0.752c-16.122,0-29.155-14.368-29.155-31.415
											c0-17.741,13.033-32.05,29.155-32.05c0,0,245.488,0,246.075-0.675c3.989-0.521,7.69-1.927,10.845-4.204
											c4.077-2.757,7.384-6.807,9.496-11.532c1.727-3.817,2.646-7.964,2.646-12.322v-0.462c0,0-0.079-0.311-0.079-0.367
											c-0.396-14.019-10.178-25.899-22.907-27.19c-0.587-0.733-1.883-0.733-3.084-0.733h-261.32
											c-14.298,0-26.668-12.883-26.668-29.369c0-16.392,12.37-29.333,26.668-29.333h685.359l-0.158,1.582
											c32.018-28.251,69.09-46.223,111.256-54.189c66.214-12.303,132.27-11.146,198.175,2.411
											c9.556,1.929,19.05,5.167,28.024,9.295c11.959,5.458,17.025,15.234,15.588,29.332
											c-3.066,30.293-12.502,58.739-24.939,85.755c-5.041,10.857-14.754,15.214-25.599,13.729
											c-20.251-2.716-40.38-6.459-60.56-9.428c-27.887-4.225-55.746-5.054-83.771,0.231
											c-33.354,6.401-23.754,24.483-42.137,54.394c-28.246,45.993-40.826,98.019-46.561,152.38
											c-3.32,32.228-4.218,64.584,1.656,96.558c5.276,28.927,15.744,55.036,41.72,67.858
											c32.393,16.008,31.994,15.957,65.07,4.193c7.521-2.739,11.379-10.104,12.938-18.378
											c3.92-19.573,7.469-39.225,11.526-60.572h-26.212c-12.491-0.172-25.079,0.061-37.581-0.48
											c-14.236-0.753-19.89-8.718-17.479-24.395c1.833-12.091,4.146-24.085,6.549-36.099
											c3.56-18.071,7.397-36.119,11.013-54.268c4.058-20.479,10.765-26.748,29.673-26.825c53.414-0.097,106.812,0,160.216,0
											c2.41,0,4.9,0.251,7.293,0.561C1651.989,323.28,1658.469,331.996,1655.689,347.211"/>
										<path clip-path="url(#SVGID_30_)" fill="#FFF200" d="M489.129,477.188c0,16.258-12.052,29.483-26.824,29.483h-5.496
											c-7.383,0-14.078-3.312-18.979-8.579c-4.804-5.421-7.828-12.786-7.828-20.904c0-16.219,12.055-29.466,26.809-29.466h5.496
											c7.38,0,14.088,3.297,18.917,8.601C486.105,461.722,489.129,469.087,489.129,477.188"/>
										<path clip-path="url(#SVGID_30_)" fill="#FFF200" d="M585.008,236.194c0,17.065-13.104,32.05-29.211,32.05H540.86
											c-16.122,0-29.132-14.985-29.132-32.05c0-17.703,13.01-32.148,29.132-32.148h14.937
											C571.902,204.046,585.008,218.491,585.008,236.194"/>
									</g>
								</g>
							</g>
						</g>
					</g>
				</g>
			</g>
		</g>
	</g>
</g>
</svg>
