<?xml version="1.0" encoding="utf-8"?>
<!-- Generator: Adobe Illustrator 16.0.0, SVG Export Plug-In . SVG Version: 6.00 Build 0)  -->
<!DOCTYPE svg PUBLIC "-//W3C//DTD SVG 1.1//EN" "http://www.w3.org/Graphics/SVG/1.1/DTD/svg11.dtd">
<svg version="1.1" id="Layer_1" xmlns="http://www.w3.org/2000/svg" xmlns:xlink="http://www.w3.org/1999/xlink" x="0px" y="0px"
	 width="1366px" height="768px" viewBox="0 0 1366 768" enable-background="new 0 0 1366 768" xml:space="preserve">
<g>
	<g>
		<path fill="#00AEEF" d="M881.676,367.583c0.205,0.438,0.369,0.656,0.492,0.656c0-0.328,0.055-0.492,0.164-0.492l0.164,0.082
			c0.014-0.109,0.068-0.164,0.164-0.164c0.055,0.109,0.109,0.355,0.164,0.738c0.178-0.164,0.451-0.328,0.82-0.492
			c0.246,0.205,0.547,0.943,0.902,2.215h0.082l-0.082,0.41v0.246c0.109,0.383,0.164,0.602,0.164,0.656v0.246
			c0.273,0.055,0.41,0.246,0.41,0.574c0.438-0.109,1.75-0.273,3.938-0.492l0.164,0.082c0.328,0,0.492-0.273,0.492-0.82
			c0-0.273,0.027-1.285,0.082-3.035l0.164-0.082h0.164c0.041,0.383,0.15,0.574,0.328,0.574c0.041-0.328,0.123-0.492,0.246-0.492
			c0.055,0,0.082,0.027,0.082,0.082l0.164-0.082h0.164l-0.082,0.41c0.109,0,0.164,0.109,0.164,0.328h0.082
			c0-0.205,0.246-0.396,0.738-0.574c0.314,0.396,0.506,0.834,0.574,1.312h-0.082l0.41,0.984c0.055,0.943,0.082,1.49,0.082,1.641
			l0.164-0.082c0.697,0.369,1.135,0.643,1.312,0.82c0.492,1.34,0.793,2.543,0.902,3.609c0.15,0,0.26,0.273,0.328,0.82v0.164
			c0,0.164-0.246,0.301-0.738,0.41c-0.123,0-0.232-0.027-0.328-0.082c-0.096,0.055-0.205,0.082-0.328,0.082
			c-0.082-0.068-0.301-0.15-0.656-0.246l-0.164,0.082c-0.096-0.055-0.205-0.082-0.328-0.082l-0.082,1.148h0.082
			c2.871,0,4.32,0.328,4.348,0.984c0.109,0.15,0.219,0.396,0.328,0.738l-0.082,0.164l0.41,0.902l-0.082,0.328l0.082,0.164
			c-0.055,0.096-0.082,0.205-0.082,0.328c0.109,0.014,0.164,0.068,0.164,0.164v0.492c0.273,0,0.41,0.191,0.41,0.574v0.164
			c-0.109,0.219-0.246,0.328-0.41,0.328l-0.328-0.082c-0.109,0.055-0.191,0.082-0.246,0.082c-0.383-0.164-0.602-0.246-0.656-0.246
			l-0.492,0.082c0-0.082-0.109-0.164-0.328-0.246c-0.178,0.109-0.314,0.164-0.41,0.164c0-0.219-1.094-0.328-3.281-0.328
			c-0.273,2.064-0.41,4.033-0.41,5.906c-0.068,0.438-0.26,0.656-0.574,0.656c0-0.109-0.055-0.164-0.164-0.164l-0.246,0.164
			c-0.096-0.109-0.643-0.246-1.641-0.41l-0.246,0.164c-0.492-0.533-0.738-1.189-0.738-1.969h0.082
			c-0.164-0.396-0.246-0.725-0.246-0.984h0.082l-0.246-0.82c0.055-0.096,0.082-0.205,0.082-0.328l-0.082-0.164
			c0.055-0.096,0.082-0.205,0.082-0.328l-0.082-0.328h0.328v-1.477h-0.082c-0.424,0-1.682,0.219-3.773,0.656
			c-0.656,0.096-0.984,0.287-0.984,0.574c-0.109,0.587-0.164,1.572-0.164,2.953c0,0.369,0.055,0.861,0.164,1.477l-0.246,0.164
			h-0.082l-0.246-0.164l-0.246,0.164c-0.383-0.164-0.602-0.246-0.656-0.246l-0.164,0.082c-0.424-0.164-0.697-0.246-0.82-0.246
			l-0.246,0.164c-0.287,0-0.643-1.395-1.066-4.183c-0.178-0.109-0.342-0.164-0.492-0.164l-0.41,0.082l-0.082-0.164l0.082-0.164
			c-0.246,0-0.41-0.246-0.492-0.738l0.082-0.41l-0.164-0.082l0.082-0.41v-0.082c-0.137,0-0.219-0.137-0.246-0.41l0.082-0.492
			c-0.096,0-0.178-0.164-0.246-0.492c0.055-0.096,0.082-0.205,0.082-0.328l-0.082-0.164l0.082-0.164l-0.082-0.492
			c0.998-0.328,1.654-0.52,1.969-0.574c0.109-0.314,0.164-0.752,0.164-1.312h-0.41c-0.137-0.109-0.246-0.164-0.328-0.164
			c-1.094,0-1.641-0.082-1.641-0.246l0.082-0.164c-0.246,0-0.41-0.246-0.492-0.738l0.082-0.41l-0.164-0.082l0.082-0.164v-0.164
			c-0.109-0.164-0.191-0.355-0.246-0.574l0.082-0.492c-0.096,0-0.178-0.164-0.246-0.492c0.055-0.096,0.082-0.205,0.082-0.328
			L877,374.063l0.082-0.164L877,373.407l0.164-0.082h0.574c2.133,0,3.199-0.219,3.199-0.656c0.383-2.051,0.574-3.719,0.574-5.004
			L881.676,367.583z M884.383,378.575c1.682-0.164,2.775-0.246,3.281-0.246h0.082c0.273,0,0.684,0.027,1.23,0.082l0.164-1.395
			l-4.676,0.82C884.465,378.028,884.438,378.274,884.383,378.575z"/>
		<path fill="#00AEEF" d="M913.094,368.772c0.752,0,1.928,0.273,3.527,0.82c0,0.109,0.246,0.219,0.738,0.328l0.164-0.082
			c1.695,0.383,2.543,1.504,2.543,3.363c0,1.572-0.738,3.596-2.215,6.07c-1.559,2.188-3.117,4.02-4.676,5.496
			c-0.807,0.656-1.791,1.093-2.953,1.312v0.082l-0.164-0.082h-0.738l-0.574,0.082v-0.082c-0.055,0-0.082,0.027-0.082,0.082
			l-0.41-0.082h-0.492v0.656c0,0.055-0.027,0.082-0.082,0.082c0,0.055,0.027,0.082,0.082,0.082l-0.164,1.23
			c0,0.055,0.027,0.082,0.082,0.082l-0.082,0.41v0.082c0,0.465-0.027,1.203-0.082,2.215c-0.055,0-0.082,0.027-0.082,0.082h0.082
			c-0.055,0.109-0.082,0.191-0.082,0.246l0.082,0.164c-0.055,0.096-0.082,0.205-0.082,0.328h0.082l-0.082,0.164l0.082,0.328
			l-0.082,0.492l0.082,0.164c-0.055,0.096-0.082,0.205-0.082,0.328v0.082c0,0.123,0.027,0.232,0.082,0.328l-0.082,0.164l0.082,0.82
			c0,0.465-0.109,0.738-0.328,0.82c0,0.109-0.246,0.465-0.738,1.066c-0.383,0.246-0.574,0.52-0.574,0.82h-0.164v-0.164h-0.246v0.164
			c-0.273,0-0.41-0.055-0.41-0.164l-0.164,0.082h-0.082c-0.027,0-0.164-0.109-0.41-0.328l-0.164,0.082
			c-0.041-0.164-0.15-0.273-0.328-0.328c-0.109,0.055-0.191,0.082-0.246,0.082l-0.492-0.328v-0.082h-0.164
			c-0.506,0-0.889-0.219-1.148-0.656l-0.164,0.082h-0.082c-0.082,0-0.164-0.082-0.246-0.246c0.055-0.301,0.082-0.52,0.082-0.656
			c0-0.109-0.027-0.164-0.082-0.164l0.082-0.41v-2.133c0-0.123-0.027-0.232-0.082-0.328c0.055-0.109,0.082-0.191,0.082-0.246
			c0-0.314,0.055-1.6,0.164-3.855h0.082c0-0.055-0.027-0.082-0.082-0.082c0.109-1.203,0.191-1.805,0.246-1.805
			c0-0.055-0.027-0.082-0.082-0.082c0.109-0.725,0.164-1.216,0.164-1.476c-0.273-0.055-0.41-0.164-0.41-0.328h-0.164
			c-0.314,0-0.861-0.273-1.641-0.82c0.123-1.463,0.889-3.213,2.297-5.25c0.547-0.643,0.82-1.271,0.82-1.887v-0.492
			c0-0.055,0.027-0.082,0.082-0.082c0-0.055-0.027-0.082-0.082-0.082l0.082-0.82v-1.723l0.082-0.492
			c0-0.055-0.027-0.082-0.082-0.082c0.137-0.957,0.328-1.559,0.574-1.805l0.164,0.082c0.178-0.602,0.342-0.902,0.492-0.902
			c0,0.082,0.082,0.164,0.246,0.246c0.164-0.656,0.328-0.984,0.492-0.984l0.41,0.082l0.164-0.082
			c0.438,0.055,0.656,0.191,0.656,0.41c0.109,0,0.164-0.055,0.164-0.164c0.369,0.164,0.588,0.246,0.656,0.246
			c0.109-0.055,0.191-0.082,0.246-0.082c0.027,0.205,0.41,0.424,1.148,0.656c0,0.055,0.109,0.137,0.328,0.246
			c0-0.123,0.027-0.232,0.082-0.328c0.41,0.109,0.684,0.164,0.82,0.164C910.51,369.182,911.686,368.772,913.094,368.772z
			 M913.75,372.792c-0.93,0.492-2.023,1.285-3.281,2.379l-1.723,1.805c-0.055,1.039-0.219,2.68-0.492,4.922h-0.082
			c0.055,0.096,0.082,0.205,0.082,0.328c1.477-0.506,2.707-1.572,3.691-3.199c1.203-1.873,1.887-3.65,2.051-5.332l-0.082-0.164
			c0.055-0.096,0.082-0.205,0.082-0.328c-0.055,0-0.082-0.027-0.082-0.082h0.082C913.914,372.901,913.832,372.792,913.75,372.792z"
			/>
		<path fill="#00AEEF" d="M922.855,369.121c1.531,0.26,2.522,0.554,2.974,0.882c0.26,0,0.39,0.075,0.39,0.226
			c0.287-0.055,0.499-0.082,0.636-0.082l0.39,0.082v0.205c-0.328,0.273-0.615,1.032-0.861,2.276
			c-0.205,2.27-0.308,3.466-0.308,3.589h0.082l-0.082,0.144v0.144c0,0.15,0.027,0.226,0.082,0.226l-0.082,0.369v2.851
			c0,0.109,0.027,0.205,0.082,0.287c0,0.055-0.027,0.082-0.082,0.082c0.055,1.34,0.13,2.27,0.226,2.789h-0.082l0.164,0.574h-0.082
			l0.246,1.025h-0.082c0.15,0.288,0.226,0.629,0.226,1.026c2.01-1.163,3.582-3.48,4.717-6.953c0.15-0.26,0.308-0.8,0.472-1.62
			c0.301-0.984,0.718-2.837,1.251-5.558h0.144c0.109,0.055,0.191,0.082,0.246,0.082v-0.226c0-0.205,0.075-0.403,0.226-0.595
			l0.39,0.226c0.123-0.629,0.253-0.943,0.39-0.943l0.246,0.144c0.123,0,0.226-0.027,0.308-0.082l1.415,0.451
			c0.096-0.055,0.171-0.082,0.226-0.082c0.342,0.342,0.711,0.513,1.107,0.513c0,0.068,0.075,0.144,0.226,0.226l0.246-0.144
			c0.41,0,0.615,0.171,0.615,0.513v0.062c-0.041,0-0.062,0.027-0.062,0.082h0.062c-0.52,3.432-0.807,5.188-0.861,5.271l0.082,0.144
			c-0.123,0.875-0.198,1.312-0.226,1.312c0,0.055,0.027,0.082,0.082,0.082c-0.109,0.451-0.219,1.135-0.328,2.051
			c0,0.041,0.027,0.062,0.082,0.062l-0.164,1.107c0,0.055,0.027,0.082,0.082,0.082l-0.082,0.513v1.169l0.082,0.718h-0.082
			c0.219,1.518,0.533,2.495,0.943,2.932l1.025,0.514v0.225l-0.39,0.082l0.164,0.205c-0.328,0.246-0.615,0.541-0.861,0.883
			c-0.246,0.15-0.403,0.225-0.472,0.225l0.062,0.369c-0.041,0-0.062,0.021-0.062,0.062l-0.164-0.062h-0.39
			c-0.451,0-1.135-0.219-2.051-0.656c-2.078-0.711-3.117-1.518-3.117-2.42h-0.082c-2.379,2.242-4.026,3.363-4.942,3.363h-0.615
			c-0.451,0-1.162-0.197-2.133-0.594c-1.285-0.451-2.222-1.012-2.81-1.682c-0.479-0.588-0.896-2.078-1.251-4.471v-0.144h0.062
			c0-0.041-0.021-0.062-0.062-0.062c-0.055-0.902-0.082-1.565-0.082-1.989v-0.205c0-0.109-0.027-0.212-0.082-0.308
			c0.055-0.082,0.082-0.178,0.082-0.287l-0.082-0.287h0.082l-0.082-0.144v-1.025c0-0.164,0.027-0.287,0.082-0.369l-0.082-0.451
			v-0.574c0-0.055,0.027-0.082,0.082-0.082c0-0.041-0.027-0.062-0.082-0.062l0.082-0.513v-0.369c0-0.424,0.027-1.087,0.082-1.989
			c0.041,0,0.062-0.021,0.062-0.062h-0.062c0.041-0.096,0.062-0.171,0.062-0.226c0-1.121,0.239-2.27,0.718-3.445
			c0.068,0,0.355-0.314,0.861-0.943c0.191,0,0.376-0.219,0.554-0.656C922.685,369.203,922.76,369.175,922.855,369.121z"/>
		<path fill="#00AEEF" d="M942.953,367.931l0.164,0.226l0.144-0.082c0.355,0.027,0.533,0.082,0.533,0.164l0.144-0.082h0.082
			c0,0.15,0.021,0.226,0.062,0.226c0.957,0.068,1.436,0.253,1.436,0.554h0.369c0.287,0.205,0.465,0.308,0.533,0.308
			c0-0.055,0.021-0.137,0.062-0.246c0.178,0,0.376,0.082,0.595,0.246l-0.062,0.144v0.164l0.062,0.144
			c-0.109,0-0.205,0.41-0.287,1.23h0.062l-0.205,1.148h0.062c1.203-1.176,2.181-1.764,2.933-1.764c0.875,0,2.222,0.362,4.04,1.087
			c0.711,0,1.436,0.383,2.174,1.148v0.308c-0.205,0-0.308,0.027-0.308,0.082c0.055,0.096,0.082,0.171,0.082,0.226
			c-0.109,0-0.431,0.335-0.964,1.005c-0.15,0-0.226,0.075-0.226,0.226c0.041,0.096,0.062,0.171,0.062,0.226l-0.144,0.082
			c-0.096,0-0.144-0.055-0.144-0.164l-0.164,0.082c-0.287,0-1.012-0.253-2.174-0.759h-0.144c-1.408,0.328-2.782,1.962-4.122,4.901
			c-0.643,1.162-1.265,3.062-1.866,5.701c0,0.301-0.027,0.451-0.082,0.451c0,0.055,0.027,0.082,0.082,0.082l-0.308,1.989
			l0.082,0.164c-0.055,0.082-0.082,0.186-0.082,0.309c0,0.055,0.027,0.129,0.082,0.225c-0.055,0.41-0.13,0.615-0.226,0.615
			c0-0.055-0.027-0.082-0.082-0.082c0,0.26-0.198,0.568-0.595,0.924l-0.595,0.697c0,0.205-0.055,0.307-0.164,0.307
			c-0.041-0.096-0.062-0.17-0.062-0.225c-0.082,0-0.157,0.074-0.226,0.225c-0.205-0.082-0.308-0.156-0.308-0.225l-0.144,0.082
			h-0.164c-0.041,0-0.137-0.104-0.287-0.309l-0.144,0.062c-0.232-0.205-0.362-0.309-0.39-0.309c-0.041,0-0.062,0.027-0.062,0.082
			l-0.984-0.451c-0.164,0-0.485-0.184-0.964-0.553c-0.137,0-0.239-0.076-0.308-0.227l0.082-0.389v-0.451
			c0-0.055-0.027-0.082-0.082-0.082l0.082-0.145v-1.086l0.062-0.145h-0.062c0.643-3.568,0.964-6.466,0.964-8.695v-0.226
			c0-0.055,0.027-0.082,0.082-0.082c0-0.055-0.027-0.082-0.082-0.082c0.096-0.807,0.171-1.702,0.226-2.687l-0.082-0.144
			c0.055-0.465,0.109-0.697,0.164-0.697c0-0.055-0.027-0.082-0.082-0.082c0.123-1.791,0.226-2.687,0.308-2.687
			c0-0.055-0.027-0.082-0.082-0.082c0.082-0.711,0.26-1.066,0.533-1.066c0.15-0.465,0.273-0.697,0.369-0.697l0.308,0.226h0.062
			C942.625,368.287,942.748,367.931,942.953,367.931z"/>
		<path fill="#00AEEF" d="M964.671,369.121c0.615,0,1.914,0.355,3.896,1.066c0.875,0,1.647,0.636,2.317,1.907
			c0,0.068,0.096,0.123,0.287,0.164c0.096-0.055,0.164-0.082,0.205-0.082c0.26,0.273,0.697,0.526,1.312,0.759
			c0.014-0.096,0.062-0.144,0.144-0.144h0.062c0.492,0,0.738,0.485,0.738,1.456c-0.068,0.916-0.116,1.449-0.144,1.6
			c0.041,0.52,0.062,0.93,0.062,1.23v2.522c0,0.246,0.027,0.629,0.082,1.148h-0.082l0.082,0.144c0,0.916,0.191,1.887,0.574,2.912
			h0.062l0.226-0.164c0.492,0,0.902,0.13,1.23,0.39c0.506,0,0.889,0.103,1.148,0.308c0.164,0.137,0.451,0.26,0.861,0.369
			c0,0.055,0.027,0.082,0.082,0.082l0.431-0.082h0.062c0.068,0,0.144,0.082,0.226,0.246v0.061c-0.533,0.807-0.991,1.348-1.374,1.621
			l0.082,0.143v0.082c-0.533,0.451-1.333,0.678-2.399,0.678c-1.299,0-3.028-0.738-5.188-2.215c0-0.068-0.075-0.145-0.226-0.227
			c-2.229,3.363-4.368,5.045-6.419,5.045h-0.226c-1.012,0-2.358-0.457-4.04-1.373c-1.148-0.602-1.866-1.367-2.153-2.297
			c-0.191-0.547-0.287-1.033-0.287-1.457v-0.533c0-0.109-0.027-0.212-0.082-0.308c0.055-0.082,0.082-0.185,0.082-0.308v-0.062
			c0-0.164-0.027-0.246-0.082-0.246c0.191-2.461,0.526-4.368,1.005-5.722c0.779-2.338,1.935-4.375,3.466-6.111
			C961.882,369.989,963.208,369.121,964.671,369.121z M961.574,383.722v0.677c0,0.806,0.191,1.498,0.574,2.072
			c1.518-0.561,3.056-2.468,4.614-5.722c0.725-1.928,1.203-3.534,1.436-4.819l-0.205-1.62h0.062
			c-0.082-0.232-0.178-0.355-0.287-0.369c0,0.096-0.048,0.144-0.144,0.144l-0.062-0.144l-0.144,0.082
			c-0.123,0-0.198-0.103-0.226-0.308h-0.349c-0.875-0.492-1.312-0.772-1.312-0.841c-0.998,0.492-1.866,1.791-2.604,3.896
			C962.025,378.944,961.574,381.261,961.574,383.722z"/>
		<path fill="#00AEEF" d="M992.315,368.772c0.752,0,1.928,0.273,3.527,0.82c0,0.109,0.246,0.219,0.738,0.328l0.164-0.082
			c1.695,0.383,2.543,1.504,2.543,3.363c0,1.572-0.738,3.596-2.215,6.07c-1.559,2.188-3.117,4.02-4.676,5.496
			c-0.807,0.656-1.791,1.093-2.953,1.312v0.082l-0.164-0.082h-0.738l-0.574,0.082v-0.082c-0.055,0-0.082,0.027-0.082,0.082
			l-0.41-0.082h-0.492v0.656c0,0.055-0.027,0.082-0.082,0.082c0,0.055,0.027,0.082,0.082,0.082l-0.164,1.23
			c0,0.055,0.027,0.082,0.082,0.082l-0.082,0.41v0.082c0,0.465-0.027,1.203-0.082,2.215c-0.055,0-0.082,0.027-0.082,0.082h0.082
			c-0.055,0.109-0.082,0.191-0.082,0.246l0.082,0.164c-0.055,0.096-0.082,0.205-0.082,0.328h0.082l-0.082,0.164l0.082,0.328
			l-0.082,0.492l0.082,0.164c-0.055,0.096-0.082,0.205-0.082,0.328v0.082c0,0.123,0.027,0.232,0.082,0.328l-0.082,0.164l0.082,0.82
			c0,0.465-0.109,0.738-0.328,0.82c0,0.109-0.246,0.465-0.738,1.066c-0.383,0.246-0.574,0.52-0.574,0.82h-0.164v-0.164h-0.246v0.164
			c-0.273,0-0.41-0.055-0.41-0.164l-0.164,0.082h-0.082c-0.027,0-0.164-0.109-0.41-0.328l-0.164,0.082
			c-0.041-0.164-0.15-0.273-0.328-0.328c-0.109,0.055-0.191,0.082-0.246,0.082l-0.492-0.328v-0.082h-0.164
			c-0.506,0-0.889-0.219-1.148-0.656l-0.164,0.082h-0.082c-0.082,0-0.164-0.082-0.246-0.246c0.055-0.301,0.082-0.52,0.082-0.656
			c0-0.109-0.027-0.164-0.082-0.164l0.082-0.41v-2.133c0-0.123-0.027-0.232-0.082-0.328c0.055-0.109,0.082-0.191,0.082-0.246
			c0-0.314,0.055-1.6,0.164-3.855h0.082c0-0.055-0.027-0.082-0.082-0.082c0.109-1.203,0.191-1.805,0.246-1.805
			c0-0.055-0.027-0.082-0.082-0.082c0.109-0.725,0.164-1.216,0.164-1.476c-0.273-0.055-0.41-0.164-0.41-0.328h-0.164
			c-0.314,0-0.861-0.273-1.641-0.82c0.123-1.463,0.889-3.213,2.297-5.25c0.547-0.643,0.82-1.271,0.82-1.887v-0.492
			c0-0.055,0.027-0.082,0.082-0.082c0-0.055-0.027-0.082-0.082-0.082l0.082-0.82v-1.723l0.082-0.492
			c0-0.055-0.027-0.082-0.082-0.082c0.137-0.957,0.328-1.559,0.574-1.805l0.164,0.082c0.178-0.602,0.342-0.902,0.492-0.902
			c0,0.082,0.082,0.164,0.246,0.246c0.164-0.656,0.328-0.984,0.492-0.984l0.41,0.082l0.164-0.082
			c0.438,0.055,0.656,0.191,0.656,0.41c0.109,0,0.164-0.055,0.164-0.164c0.369,0.164,0.588,0.246,0.656,0.246
			c0.109-0.055,0.191-0.082,0.246-0.082c0.027,0.205,0.41,0.424,1.148,0.656c0,0.055,0.109,0.137,0.328,0.246
			c0-0.123,0.027-0.232,0.082-0.328c0.41,0.109,0.684,0.164,0.82,0.164C989.731,369.182,990.907,368.772,992.315,368.772z
			 M992.972,372.792c-0.93,0.492-2.023,1.285-3.281,2.379l-1.723,1.805c-0.055,1.039-0.219,2.68-0.492,4.922h-0.082
			c0.055,0.096,0.082,0.205,0.082,0.328c1.477-0.506,2.707-1.572,3.691-3.199c1.203-1.873,1.887-3.65,2.051-5.332l-0.082-0.164
			c0.055-0.096,0.082-0.205,0.082-0.328c-0.055,0-0.082-0.027-0.082-0.082h0.082C993.136,372.901,993.054,372.792,992.972,372.792z"
			/>
		<path fill="#00AEEF" d="M1007.389,369.121c1.791,0.355,2.816,0.69,3.076,1.005c1.244,0,1.866,0.355,1.866,1.066v0.082
			c-0.205,0-0.362,0.178-0.472,0.533c-0.096,0-0.301,0.232-0.615,0.697c-0.164,0.109-0.294,0.164-0.39,0.164v0.369l-0.082,0.164
			c1.326,0.314,2.591,0.677,3.794,1.087c0.725,0,1.552,0.513,2.481,1.538c0.246,0.615,0.451,1.36,0.615,2.235l-0.082,0.533v0.533
			c0,0.123,0.027,0.226,0.082,0.308l-0.164,0.615h0.082c-0.328,1.545-0.711,2.673-1.148,3.384c-0.889,1.531-2.256,3.2-4.102,5.004
			c-1.477,1.135-2.974,1.701-4.491,1.701h-0.308c-1.518,0-3.582-0.771-6.193-2.316c-1.23-0.998-1.846-2.434-1.846-4.307v-0.226
			c0-2.42,0.827-5.168,2.481-8.244c0.848-1.682,2.208-3.452,4.081-5.312C1006.083,369.558,1006.527,369.353,1007.389,369.121z
			 M1005.912,378.903h0.082c-0.574,1.518-0.861,2.851-0.861,3.999c0,1.682,0.438,2.94,1.312,3.774
			c1.969-0.643,3.391-1.641,4.266-2.995c0.82-1.736,1.23-3.199,1.23-4.389c0-0.082-0.027-0.39-0.082-0.923h0.082
			c-0.232-1.545-0.643-2.317-1.23-2.317c-0.588-0.219-0.923-0.396-1.005-0.533l-0.164,0.062c-0.807-0.369-1.271-0.649-1.395-0.841
			v-0.082h0.861v-0.144c-0.205,0-0.308-0.055-0.308-0.164c0.014-0.096,0.062-0.144,0.144-0.144l-0.082-0.164v-0.144h0.636
			c0-0.096,0.048-0.226,0.144-0.39c-0.055-0.096-0.082-0.198-0.082-0.308l0.164-0.082h0.472v-0.144l-0.164,0.062h-0.082l-0.39-0.308
			c-0.588,0-1.613,1.647-3.076,4.942L1005.912,378.903z M1010.465,372.976v0.226h0.246v-0.082c0-0.096-0.055-0.144-0.164-0.144
			H1010.465z"/>
		<path fill="#00AEEF" d="M1021.088,367.931l0.164,0.226l0.144-0.082c0.355,0.027,0.533,0.082,0.533,0.164l0.144-0.082h0.082
			c0,0.15,0.021,0.226,0.062,0.226c0.957,0.068,1.436,0.253,1.436,0.554h0.369c0.287,0.205,0.465,0.308,0.533,0.308
			c0-0.055,0.021-0.137,0.062-0.246c0.178,0,0.376,0.082,0.595,0.246l-0.062,0.144v0.164l0.062,0.144
			c-0.109,0-0.205,0.41-0.287,1.23h0.062l-0.205,1.148h0.062c1.203-1.176,2.181-1.764,2.933-1.764c0.875,0,2.222,0.362,4.04,1.087
			c0.711,0,1.436,0.383,2.174,1.148v0.308c-0.205,0-0.308,0.027-0.308,0.082c0.055,0.096,0.082,0.171,0.082,0.226
			c-0.109,0-0.431,0.335-0.964,1.005c-0.15,0-0.226,0.075-0.226,0.226c0.041,0.096,0.062,0.171,0.062,0.226l-0.144,0.082
			c-0.096,0-0.144-0.055-0.144-0.164l-0.164,0.082c-0.287,0-1.012-0.253-2.174-0.759h-0.144c-1.408,0.328-2.782,1.962-4.122,4.901
			c-0.643,1.162-1.265,3.062-1.866,5.701c0,0.301-0.027,0.451-0.082,0.451c0,0.055,0.027,0.082,0.082,0.082l-0.308,1.989
			l0.082,0.164c-0.055,0.082-0.082,0.186-0.082,0.309c0,0.055,0.027,0.129,0.082,0.225c-0.055,0.41-0.13,0.615-0.226,0.615
			c0-0.055-0.027-0.082-0.082-0.082c0,0.26-0.198,0.568-0.595,0.924l-0.595,0.697c0,0.205-0.055,0.307-0.164,0.307
			c-0.041-0.096-0.062-0.17-0.062-0.225c-0.082,0-0.157,0.074-0.226,0.225c-0.205-0.082-0.308-0.156-0.308-0.225l-0.144,0.082
			h-0.164c-0.041,0-0.137-0.104-0.287-0.309l-0.144,0.062c-0.232-0.205-0.362-0.309-0.39-0.309c-0.041,0-0.062,0.027-0.062,0.082
			l-0.984-0.451c-0.164,0-0.485-0.184-0.964-0.553c-0.137,0-0.239-0.076-0.308-0.227l0.082-0.389v-0.451
			c0-0.055-0.027-0.082-0.082-0.082l0.082-0.145v-1.086l0.062-0.145h-0.062c0.643-3.568,0.964-6.466,0.964-8.695v-0.226
			c0-0.055,0.027-0.082,0.082-0.082c0-0.055-0.027-0.082-0.082-0.082c0.096-0.807,0.171-1.702,0.226-2.687l-0.082-0.144
			c0.055-0.465,0.109-0.697,0.164-0.697c0-0.055-0.027-0.082-0.082-0.082c0.123-1.791,0.226-2.687,0.308-2.687
			c0-0.055-0.027-0.082-0.082-0.082c0.082-0.711,0.26-1.066,0.533-1.066c0.15-0.465,0.273-0.697,0.369-0.697l0.308,0.226h0.062
			C1020.76,368.287,1020.883,367.931,1021.088,367.931z"/>
		<path fill="#00AEEF" d="M1036.284,369.408c0.602,0.055,0.998,0.137,1.189,0.246c0-0.055,0.027-0.082,0.082-0.082
			c0.055,0.096,0.082,0.171,0.082,0.226c0.055,0,0.082-0.027,0.082-0.082c0.479,0.041,1.039,0.253,1.682,0.636
			c0.191,0,0.376,0.082,0.554,0.246l0.41-0.082h0.308c0.123,0,0.232,0.287,0.328,0.861l-0.082,0.164l0.082,0.472h-0.082l0.082,0.164
			v2.358c0,0.055-0.027,0.082-0.082,0.082l0.082,0.144c-0.055,0.656-0.082,1.025-0.082,1.107c0.055,0.273,0.082,0.431,0.082,0.472
			c-0.055,0.205-0.082,0.417-0.082,0.636v0.082h0.082c1.326-2.256,3.268-4.703,5.824-7.342c0.369-0.15,0.588-0.226,0.656-0.226
			c1.969,0.355,2.953,0.67,2.953,0.943c0.26,0,0.472,0.055,0.636,0.164c0.027,0,0.137-0.027,0.328-0.082
			c0.588,0,0.882,0.369,0.882,1.107l-0.882,7.711c0,0.055,0.027,0.082,0.082,0.082l-0.082,0.39v1.354
			c0,1.271,0.103,2.324,0.308,3.158c-0.055,0-0.082,0.021-0.082,0.062c0.068,0,0.26,0.451,0.574,1.354
			c0.328,0.684,0.779,1.025,1.354,1.025l0.082,0.143v0.328h-0.082l-0.164-0.082c-0.014,0.219-0.335,0.664-0.964,1.334
			c-0.205,0-0.308,0.184-0.308,0.553h-0.554c-0.861,0-2.386-0.629-4.573-1.887c-1.012-0.861-1.518-2.987-1.518-6.377v-0.328
			l0.082-0.164c-0.055,0-0.082-0.021-0.082-0.062h0.082c0-0.055-0.027-0.082-0.082-0.082l0.082-0.39v-0.554h-0.164
			c-1.135,1.873-2.276,4.286-3.425,7.24c-0.369,0.834-0.957,1.674-1.764,2.521c-0.232,0.41-0.581,0.807-1.046,1.189
			c-0.588,0-1.278-0.211-2.071-0.635l-1.682-0.637c-0.697-0.383-1.046-0.744-1.046-1.086v-0.555c0-1.066,0.055-2.406,0.164-4.019
			h0.082l-0.082-0.164l0.082-0.308l-0.082-0.164c0.109,0,0.294-2.078,0.554-6.234c0-0.055-0.027-0.082-0.082-0.082l0.082-0.39
			v-3.548c0-0.465-0.055-0.909-0.164-1.333l0.164-0.082l0.246,0.164h0.164v-0.164c0-0.123-0.027-0.226-0.082-0.308
			c0.109-0.178,0.164-0.314,0.164-0.41h0.062l0.328,0.246c0.109-0.055,0.191-0.082,0.246-0.082v-0.164l0.082-0.472
			c-0.055-0.096-0.082-0.171-0.082-0.226C1036.257,369.49,1036.284,369.462,1036.284,369.408z"/>
		<path fill="#00AEEF" d="M1062.432,369.121c0.615,0,1.914,0.355,3.896,1.066c0.875,0,1.647,0.636,2.317,1.907
			c0,0.068,0.096,0.123,0.287,0.164c0.096-0.055,0.164-0.082,0.205-0.082c0.26,0.273,0.697,0.526,1.312,0.759
			c0.014-0.096,0.062-0.144,0.144-0.144h0.062c0.492,0,0.738,0.485,0.738,1.456c-0.068,0.916-0.116,1.449-0.144,1.6
			c0.041,0.52,0.062,0.93,0.062,1.23v2.522c0,0.246,0.027,0.629,0.082,1.148h-0.082l0.082,0.144c0,0.916,0.191,1.887,0.574,2.912
			h0.062l0.226-0.164c0.492,0,0.902,0.13,1.23,0.39c0.506,0,0.889,0.103,1.148,0.308c0.164,0.137,0.451,0.26,0.861,0.369
			c0,0.055,0.027,0.082,0.082,0.082l0.431-0.082h0.062c0.068,0,0.144,0.082,0.226,0.246v0.061c-0.533,0.807-0.991,1.348-1.374,1.621
			l0.082,0.143v0.082c-0.533,0.451-1.333,0.678-2.399,0.678c-1.299,0-3.028-0.738-5.188-2.215c0-0.068-0.075-0.145-0.226-0.227
			c-2.229,3.363-4.368,5.045-6.419,5.045h-0.226c-1.012,0-2.358-0.457-4.04-1.373c-1.148-0.602-1.866-1.367-2.153-2.297
			c-0.191-0.547-0.287-1.033-0.287-1.457v-0.533c0-0.109-0.027-0.212-0.082-0.308c0.055-0.082,0.082-0.185,0.082-0.308v-0.062
			c0-0.164-0.027-0.246-0.082-0.246c0.191-2.461,0.526-4.368,1.005-5.722c0.779-2.338,1.935-4.375,3.466-6.111
			C1059.643,369.989,1060.969,369.121,1062.432,369.121z M1059.335,383.722v0.677c0,0.806,0.191,1.498,0.574,2.072
			c1.518-0.561,3.056-2.468,4.614-5.722c0.725-1.928,1.203-3.534,1.436-4.819l-0.205-1.62h0.062
			c-0.082-0.232-0.178-0.355-0.287-0.369c0,0.096-0.048,0.144-0.144,0.144l-0.062-0.144l-0.144,0.082
			c-0.123,0-0.198-0.103-0.226-0.308h-0.349c-0.875-0.492-1.312-0.772-1.312-0.841c-0.998,0.492-1.866,1.791-2.604,3.896
			C1059.786,378.944,1059.335,381.261,1059.335,383.722z"/>
		<path fill="#00AEEF" d="M1082.693,362.743l0.595,0.082c0-0.055,0.027-0.082,0.082-0.082c0,0.109,0.595,0.273,1.784,0.492
			c0.41,0.383,0.8,0.574,1.169,0.574c0,0.055,0.089,0.109,0.267,0.164c0.014-0.109,0.068-0.164,0.164-0.164H1087
			c0.137,0.109,0.28,0.164,0.431,0.164v0.164l-0.595,1.641h0.082l-1.436,6.234c0.055,0.096,0.082,0.205,0.082,0.328
			c0.055,0,0.082-0.027,0.082-0.082c0.67,0.096,1.265,0.314,1.784,0.656c0.342,0.109,0.622,0.164,0.841,0.164l0.164-0.082
			l0.595,0.246c-0.096,0.273-0.239,0.41-0.431,0.41l0.082,0.164v0.082c-0.451,0.342-0.759,0.67-0.923,0.984l-0.41,0.164l0.082,0.41
			c-2.023,0.615-3.035,1.025-3.035,1.23c-0.123,0.438-0.212,0.656-0.267,0.656l0.082,0.164c-0.109,0.26-0.417,1.381-0.923,3.363
			h0.082c-0.109,0.178-0.246,0.725-0.41,1.641h0.082c-0.164,0.492-0.28,1.094-0.349,1.805l0.082,0.328l-0.082,0.41
			c0.041,0.328,0.103,0.492,0.185,0.492c1.859-0.861,3.124-1.544,3.794-2.05c0.561,0.055,0.95,0.137,1.169,0.246
			c0-0.055,0.027-0.082,0.082-0.082c0.055,0.109,0.082,0.191,0.082,0.246c0.137,0,0.253-0.027,0.349-0.082
			c0.506,0.109,0.868,0.246,1.087,0.41c0.232,0.15,0.629,0.314,1.189,0.492c0.014-0.109,0.068-0.164,0.164-0.164
			c0.055,0,0.082,0.027,0.082,0.082l0.185-0.082c0.219,0.082,0.328,0.164,0.328,0.246v0.246c-0.779,0.902-1.312,1.477-1.6,1.723
			c0,0.396-0.759,0.916-2.276,1.559c-2.188,1.203-3.732,1.805-4.635,1.805h-0.677c-0.533-0.082-1.743-0.52-3.63-1.312
			c-1.244-0.697-1.866-1.436-1.866-2.215c-0.096,0-0.15-0.41-0.164-1.23v-0.328c0-1.695,0.649-4.867,1.948-9.515l-0.759-0.492
			c0.014-0.109,0.068-0.164,0.164-0.164h0.082c0.055,0,0.082,0.027,0.082,0.082c0.232-0.109,0.403-0.164,0.513-0.164v-0.082
			c-0.287,0-0.431-0.082-0.431-0.246c0.137-0.219,0.308-0.328,0.513-0.328c0.164,0,0.67-1.969,1.518-5.906
			c0.479-2.57,0.868-3.855,1.169-3.855c0.15,0,0.294-0.273,0.431-0.82h0.246l0.185,0.082
			C1082.406,363.043,1082.57,362.743,1082.693,362.743z"/>
		<path fill="#00AEEF" d="M1094.342,369.121c1.531,0.26,2.522,0.554,2.974,0.882c0.26,0,0.39,0.075,0.39,0.226
			c0.287-0.055,0.499-0.082,0.636-0.082l0.39,0.082v0.205c-0.328,0.273-0.615,1.032-0.861,2.276
			c-0.205,2.27-0.308,3.466-0.308,3.589h0.082l-0.082,0.144v0.144c0,0.15,0.027,0.226,0.082,0.226l-0.082,0.369v2.851
			c0,0.109,0.027,0.205,0.082,0.287c0,0.055-0.027,0.082-0.082,0.082c0.055,1.34,0.13,2.27,0.226,2.789h-0.082l0.164,0.574h-0.082
			l0.246,1.025h-0.082c0.15,0.288,0.226,0.629,0.226,1.026c2.01-1.163,3.582-3.48,4.717-6.953c0.15-0.26,0.308-0.8,0.472-1.62
			c0.301-0.984,0.718-2.837,1.251-5.558h0.144c0.109,0.055,0.191,0.082,0.246,0.082v-0.226c0-0.205,0.075-0.403,0.226-0.595
			l0.39,0.226c0.123-0.629,0.253-0.943,0.39-0.943l0.246,0.144c0.123,0,0.226-0.027,0.308-0.082l1.415,0.451
			c0.096-0.055,0.171-0.082,0.226-0.082c0.342,0.342,0.711,0.513,1.107,0.513c0,0.068,0.075,0.144,0.226,0.226l0.246-0.144
			c0.41,0,0.615,0.171,0.615,0.513v0.062c-0.041,0-0.062,0.027-0.062,0.082h0.062c-0.52,3.432-0.807,5.188-0.861,5.271l0.082,0.144
			c-0.123,0.875-0.198,1.312-0.226,1.312c0,0.055,0.027,0.082,0.082,0.082c-0.109,0.451-0.219,1.135-0.328,2.051
			c0,0.041,0.027,0.062,0.082,0.062l-0.164,1.107c0,0.055,0.027,0.082,0.082,0.082l-0.082,0.513v1.169l0.082,0.718h-0.082
			c0.219,1.518,0.533,2.495,0.943,2.932l1.025,0.514v0.225l-0.39,0.082l0.164,0.205c-0.328,0.246-0.615,0.541-0.861,0.883
			c-0.246,0.15-0.403,0.225-0.472,0.225l0.062,0.369c-0.041,0-0.062,0.021-0.062,0.062l-0.164-0.062h-0.39
			c-0.451,0-1.135-0.219-2.051-0.656c-2.078-0.711-3.117-1.518-3.117-2.42h-0.082c-2.379,2.242-4.026,3.363-4.942,3.363h-0.615
			c-0.451,0-1.162-0.197-2.133-0.594c-1.285-0.451-2.222-1.012-2.81-1.682c-0.479-0.588-0.896-2.078-1.251-4.471v-0.144h0.062
			c0-0.041-0.021-0.062-0.062-0.062c-0.055-0.902-0.082-1.565-0.082-1.989v-0.205c0-0.109-0.027-0.212-0.082-0.308
			c0.055-0.082,0.082-0.178,0.082-0.287l-0.082-0.287h0.082l-0.082-0.144v-1.025c0-0.164,0.027-0.287,0.082-0.369l-0.082-0.451
			v-0.574c0-0.055,0.027-0.082,0.082-0.082c0-0.041-0.027-0.062-0.082-0.062l0.082-0.513v-0.369c0-0.424,0.027-1.087,0.082-1.989
			c0.041,0,0.062-0.021,0.062-0.062h-0.062c0.041-0.096,0.062-0.171,0.062-0.226c0-1.121,0.239-2.27,0.718-3.445
			c0.068,0,0.355-0.314,0.861-0.943c0.191,0,0.376-0.219,0.554-0.656C1094.171,369.203,1094.246,369.175,1094.342,369.121z"/>
		<path fill="#00AEEF" d="M1114.439,367.931l0.164,0.226l0.144-0.082c0.355,0.027,0.533,0.082,0.533,0.164l0.144-0.082h0.082
			c0,0.15,0.021,0.226,0.062,0.226c0.957,0.068,1.436,0.253,1.436,0.554h0.369c0.287,0.205,0.465,0.308,0.533,0.308
			c0-0.055,0.021-0.137,0.062-0.246c0.178,0,0.376,0.082,0.595,0.246l-0.062,0.144v0.164l0.062,0.144
			c-0.109,0-0.205,0.41-0.287,1.23h0.062l-0.205,1.148h0.062c1.203-1.176,2.181-1.764,2.933-1.764c0.875,0,2.222,0.362,4.04,1.087
			c0.711,0,1.436,0.383,2.174,1.148v0.308c-0.205,0-0.308,0.027-0.308,0.082c0.055,0.096,0.082,0.171,0.082,0.226
			c-0.109,0-0.431,0.335-0.964,1.005c-0.15,0-0.226,0.075-0.226,0.226c0.041,0.096,0.062,0.171,0.062,0.226l-0.144,0.082
			c-0.096,0-0.144-0.055-0.144-0.164l-0.164,0.082c-0.287,0-1.012-0.253-2.174-0.759h-0.144c-1.408,0.328-2.782,1.962-4.122,4.901
			c-0.643,1.162-1.265,3.062-1.866,5.701c0,0.301-0.027,0.451-0.082,0.451c0,0.055,0.027,0.082,0.082,0.082l-0.308,1.989
			l0.082,0.164c-0.055,0.082-0.082,0.186-0.082,0.309c0,0.055,0.027,0.129,0.082,0.225c-0.055,0.41-0.13,0.615-0.226,0.615
			c0-0.055-0.027-0.082-0.082-0.082c0,0.26-0.198,0.568-0.595,0.924l-0.595,0.697c0,0.205-0.055,0.307-0.164,0.307
			c-0.041-0.096-0.062-0.17-0.062-0.225c-0.082,0-0.157,0.074-0.226,0.225c-0.205-0.082-0.308-0.156-0.308-0.225l-0.144,0.082
			h-0.164c-0.041,0-0.137-0.104-0.287-0.309l-0.144,0.062c-0.232-0.205-0.362-0.309-0.39-0.309c-0.041,0-0.062,0.027-0.062,0.082
			l-0.984-0.451c-0.164,0-0.485-0.184-0.964-0.553c-0.137,0-0.239-0.076-0.308-0.227l0.082-0.389v-0.451
			c0-0.055-0.027-0.082-0.082-0.082l0.082-0.145v-1.086l0.062-0.145h-0.062c0.643-3.568,0.964-6.466,0.964-8.695v-0.226
			c0-0.055,0.027-0.082,0.082-0.082c0-0.055-0.027-0.082-0.082-0.082c0.096-0.807,0.171-1.702,0.226-2.687l-0.082-0.144
			c0.055-0.465,0.109-0.697,0.164-0.697c0-0.055-0.027-0.082-0.082-0.082c0.123-1.791,0.226-2.687,0.308-2.687
			c0-0.055-0.027-0.082-0.082-0.082c0.082-0.711,0.26-1.066,0.533-1.066c0.15-0.465,0.273-0.697,0.369-0.697l0.308,0.226h0.062
			C1114.111,368.287,1114.234,367.931,1114.439,367.931z"/>
		<path fill="#00AEEF" d="M1138.618,369.121h0.349c1.121,0,2.481,0.362,4.081,1.087c1.531,0,2.297,0.779,2.297,2.338
			c0,1.49-0.848,3.138-2.543,4.942c-1.381,1.846-2.919,3.021-4.614,3.527c-0.506,0.164-1.019,0.273-1.538,0.328l-0.164-0.082
			l-0.164,0.082c-0.191,0-0.793-0.219-1.805-0.656c-0.041,0-0.205-0.034-0.492-0.103v0.103c0,2.406,0.937,4.327,2.81,5.762
			c1.586-0.26,2.946-0.84,4.081-1.743c0.971,0.068,1.456,0.205,1.456,0.411c0.656,0,1.278,0.197,1.866,0.594
			c0.287,0,0.431,0.082,0.431,0.246c0.15,0,0.321-0.055,0.513-0.164c0.396,0.096,0.595,0.205,0.595,0.328v0.082
			c-0.848,1.121-1.388,1.682-1.62,1.682l0.082,0.41c-1.846,1.23-3.521,1.846-5.024,1.846c-2.379,0-5.305-1.059-8.777-3.178
			c-1.818-1.463-2.728-3.555-2.728-6.276c0-2.639,1.251-5.182,3.753-7.629c2.078-2.119,3.753-3.261,5.024-3.425
			C1137.374,369.292,1138.085,369.121,1138.618,369.121z M1134.619,377.488h0.082c1.477-0.383,2.693-1.135,3.65-2.256
			c0.41-0.793,0.615-1.381,0.615-1.764C1136.068,374.945,1134.619,376.285,1134.619,377.488z"/>
		<path fill="#00AEEF" d="M1158.429,368.751c1.818,0.342,2.987,0.704,3.507,1.087c0.725,0,1.278,0.178,1.661,0.533
			c-0.055,0.451-0.431,1.066-1.128,1.846c-3.814,4.758-6.686,8.572-8.613,11.443c1.312,0.055,3.657,0.725,7.034,2.009
			c1.777,1.244,2.905,1.914,3.384,2.01l0.144,0.227v0.225c0,0.109-0.048,0.164-0.144,0.164c0-0.055-0.027-0.082-0.082-0.082
			l-0.082,0.145v0.082l0.082,0.164c-0.205,0.027-0.479,0.307-0.82,0.84c-0.246,0.137-0.369,0.24-0.369,0.309
			c0.041,0.096,0.062,0.17,0.062,0.225l-0.144,0.082l-0.226-0.143c0,0.15-0.048,0.225-0.144,0.225
			c-0.205-0.082-0.308-0.156-0.308-0.225l-0.144,0.061h-0.082c-0.246-0.205-0.396-0.307-0.451-0.307v0.082
			c-1.955-0.807-3.555-1.654-4.799-2.543c-0.41-0.096-1.135-0.172-2.174-0.227c-0.875,0-2.297,0.383-4.266,1.148
			c-0.602,0-1.005-0.129-1.21-0.389l-0.144,0.082c0-0.096-0.622-0.377-1.866-0.842l-0.759-0.553v-0.082
			c1.053-1.395,3.001-4.123,5.845-8.183l4.204-5.394h-0.144c-0.725,0-2.529,0.438-5.414,1.312c-0.287,0-0.984-0.232-2.092-0.697
			c-0.109,0-0.232-0.103-0.369-0.308l-0.164,0.082c-0.109-0.027-0.581-0.314-1.415-0.861c0-0.068,0.103-0.144,0.308-0.226
			c0.096,0.055,0.171,0.082,0.226,0.082c0-0.055,0.021-0.082,0.062-0.082l-0.062-0.164c0-0.41,0.219-0.615,0.656-0.615l0.164-0.308
			c-0.109,0-0.164-0.048-0.164-0.144c0.027-0.109,0.157-0.212,0.39-0.308l0.144,0.062c1.518-0.561,3.644-1.046,6.378-1.456
			c1.121-0.205,2.167-0.308,3.138-0.308h0.082C1158.23,368.833,1158.333,368.806,1158.429,368.751z"/>
		<path fill="#00AEEF" d="M1173.256,369.121c0.615,0,1.914,0.355,3.896,1.066c0.875,0,1.647,0.636,2.317,1.907
			c0,0.068,0.096,0.123,0.287,0.164c0.096-0.055,0.164-0.082,0.205-0.082c0.26,0.273,0.697,0.526,1.312,0.759
			c0.014-0.096,0.062-0.144,0.144-0.144h0.062c0.492,0,0.738,0.485,0.738,1.456c-0.068,0.916-0.116,1.449-0.144,1.6
			c0.041,0.52,0.062,0.93,0.062,1.23v2.522c0,0.246,0.027,0.629,0.082,1.148h-0.082l0.082,0.144c0,0.916,0.191,1.887,0.574,2.912
			h0.062l0.226-0.164c0.492,0,0.902,0.13,1.23,0.39c0.506,0,0.889,0.103,1.148,0.308c0.164,0.137,0.451,0.26,0.861,0.369
			c0,0.055,0.027,0.082,0.082,0.082l0.431-0.082h0.062c0.068,0,0.144,0.082,0.226,0.246v0.061c-0.533,0.807-0.991,1.348-1.374,1.621
			l0.082,0.143v0.082c-0.533,0.451-1.333,0.678-2.399,0.678c-1.299,0-3.028-0.738-5.188-2.215c0-0.068-0.075-0.145-0.226-0.227
			c-2.229,3.363-4.368,5.045-6.419,5.045h-0.226c-1.012,0-2.358-0.457-4.04-1.373c-1.148-0.602-1.866-1.367-2.153-2.297
			c-0.191-0.547-0.287-1.033-0.287-1.457v-0.533c0-0.109-0.027-0.212-0.082-0.308c0.055-0.082,0.082-0.185,0.082-0.308v-0.062
			c0-0.164-0.027-0.246-0.082-0.246c0.191-2.461,0.526-4.368,1.005-5.722c0.779-2.338,1.935-4.375,3.466-6.111
			C1170.467,369.989,1171.793,369.121,1173.256,369.121z M1170.159,383.722v0.677c0,0.806,0.191,1.498,0.574,2.072
			c1.518-0.561,3.056-2.468,4.614-5.722c0.725-1.928,1.203-3.534,1.436-4.819l-0.205-1.62h0.062
			c-0.082-0.232-0.178-0.355-0.287-0.369c0,0.096-0.048,0.144-0.144,0.144l-0.062-0.144l-0.144,0.082
			c-0.123,0-0.198-0.103-0.226-0.308h-0.349c-0.875-0.492-1.312-0.772-1.312-0.841c-0.998,0.492-1.866,1.791-2.604,3.896
			C1170.61,378.944,1170.159,381.261,1170.159,383.722z"/>
	</g>
</g>
</svg>
