<?xml version="1.0" encoding="utf-8"?>
<!-- Generator: Adobe Illustrator 16.0.0, SVG Export Plug-In . SVG Version: 6.00 Build 0)  -->
<!DOCTYPE svg PUBLIC "-//W3C//DTD SVG 1.1//EN" "http://www.w3.org/Graphics/SVG/1.1/DTD/svg11.dtd">
<svg version="1.1" id="Layer_1" xmlns="http://www.w3.org/2000/svg" xmlns:xlink="http://www.w3.org/1999/xlink" x="0px" y="0px"
	 width="655px" height="563px" viewBox="0 0 655 563" enable-background="new 0 0 655 563" xml:space="preserve">
<g>
	<g>
		<path fill="none" stroke="#FFFFFF" stroke-miterlimit="10" d="M207.609,114.75c-5.082-13.666-3.725-26.643-3.725-26.643
			s-8.531-5.454-1.398-12.588c7.133-7.133,73.566-7.272,88.392,0c14.825,7.273,96.783,22.378,96.783,22.378s5.875,0.559,1.679,9.511
			c0,0-3.856,29.982-25.432,38.788c-3.082,1.26-4.292,1.867-8.138,2.111"/>
		<path fill="none" stroke="#FFFFFF" stroke-miterlimit="10" d="M168.919,179.018c0,0,22.938-8.112,41.121-34.126
			c18.181-26.015,31.327-26.014,31.327-26.014s23.217-2.237,30.77-4.754c7.552-2.518,1.398-4.801,1.398-4.801
			s-7.272-1.353-10.63-1.353c-3.356,0-2.238-2.798-2.238-2.798l8.671-3.355c0,0,11.175-1.989,9.509-6.434
			c-1.676-4.476-5.876-1.119-5.876-1.119s-12.032,5.875-15.948,5.875s-1.408-2.238-1.408-2.238s15.274-7.178,17.606-8.672
			c3.891-2.492,5.145-3.449,3.603-5.314c-1.386-1.677-6.168,1.12-6.168,1.12S259.5,91.227,254.5,91.227c-8,0,0-4.237,0-4.237
			l5.882-4.754c0,0,7.92-3.829,6.784-6.433c-0.694-1.589-3.334-2.237-8.37,0.279c-5.034,2.517-16.551,11.959-19.282,11.749
			c-4.448-0.345-2.313-5.592-2.313-5.592s6.434-17.9-2.238-9.229c-8.672,8.67-8.939,26.58-15.652,33.293
			c-6.713,6.712-51.994,36.66-51.994,36.66"/>
		<path fill="none" stroke="#FFFFFF" stroke-miterlimit="10" d="M201.777,155.256c0,0-31.37,40.008-54.211,49.288"/>
		<path fill="none" stroke="#FFFFFF" stroke-miterlimit="10" d="M147.565,192.053c0,0,2.497,7.138-3.213,21.058
			c0,0-42.651,7.315-48.896,13.562"/>
		<path fill="none" stroke="#FFFFFF" stroke-miterlimit="10" d="M142.566,155.256c0,0,8.942,14.668,5.542,32.871"/>
		<path fill="none" stroke="#FFFFFF" stroke-miterlimit="10" d="M26.923,170.616l3.524-6.665c0,0,5.022,2.048,12.16,0.263
			c7.139-1.785,16.074,6.068,16.074,6.068s11.427-8.923,32.484-4.64c21.058,4.283,21.417-3.211,21.417-3.211
			s12.851-5.068,29.983-7.174c0,0-2.854-6.73,1.785-6.73c4.64,0,18.153-3.584,18.153-3.584s3.996-2.824,3.996,3.584
			c0,6.409,0,35.318,0,35.318s1.818,3.927-8.175,3.927s-67.162,20.81-65.101,32.539c17.192,97.856,9.651,145.199,9.651,139.133
			c0-6.069-4.836-10.708-4.836-10.708c-27.359-12.492-29.013-24.984-29.013-24.984l-2.131,17.846
			c-7.496,11.063-53.889-2.854-53.889-2.854c-3.926-10.352,2.858-39.26,2.858-39.26c-1.784-1.784-3.568-8.21-3.568-8.21
			c-4.998-4.997-1.784-13.562-1.784-13.562s-0.713-1.785-4.997-36.404c-4.282-34.62,17.131-71.663,17.131-71.663
			c1.822,1.822,6.319,0.639,6.319,0.639c23.452-6.781,28.658,1.41,28.658,1.41s-17.131,12.152-17.131,27.142
			c0,14.99-3.926,21.057-3.926,21.057s-7.139,12.135,36.405,24.984c0,0,18.202-13.205,18.202-21.415"/>
		<path fill="none" stroke="#FFFFFF" stroke-miterlimit="10" d="M17.703,106.753c-2.14,19.884,14.685,48.503,14.685,48.503
			c26.92-3.5,59.042-31.679,59.042-31.679s-9.483-22.024-32.427-40.074c0,0-50.477,15.908-50.477,23.861s8.957,39.717,17.131,47.892
			c0,0,1.988,1.378,1.988-9.113"/>
		<path fill="none" stroke="#FFFFFF" stroke-miterlimit="10" d="M89.005,125.616c0,0,2.424,6.835,2.424,10.506
			s-3.647,1.411-1.211,8.2c2.435,6.79,5.481,9.236-4.149,12.296c0,0-1.173,7.04,0,8.214"/>
		<path fill="none" stroke="#FFFFFF" stroke-miterlimit="10" d="M57.167,146.787c0,0,2.448,8.469,6.424,8.469"/>
		<path fill="none" stroke="#FFFFFF" stroke-miterlimit="10" d="M32.387,155.256c0,0,2.232,4.073,0,8.398"/>
		<path fill="none" stroke="#FFFFFF" stroke-miterlimit="10" d="M17.652,340.035c0,0-20.166,24.76,0,77.761
			c20.165,52.999-2.142,136.516-2.142,136.516"/>
		<path fill="none" stroke="#FFFFFF" stroke-miterlimit="10" d="M100.989,359.96c0,0-5.353,41.238,6.959,76.037
			c12.314,34.798,3.749,122.798,3.749,122.798"/>
		<path fill="none" stroke="#FFFFFF" stroke-miterlimit="10" d="M17.652,401.734c0,0,14.276,13.92,29.266,45.506
			c14.989,31.586,6.959,111.555,6.959,111.555"/>
		<path fill="none" stroke="#FFFFFF" stroke-miterlimit="10" d="M374.464,512.532c0-119.919-46.482-149.046-46.482-149.046
			c-3.213-12.016-6.96-8.328-6.96-8.328c-74.95,18.737-86.191,0-86.191,0s-3.214-1.07-3.214,8.565c0,0-48.717,84.051-37.474,135.981
			c0,0,35.053,28.373,98.085,28.373C355.26,528.078,374.464,512.532,374.464,512.532z"/>
		<path fill="none" stroke="#FFFFFF" stroke-miterlimit="10" d="M233.223,367.472c0,0,39.616,14.99,88.87-3.213"/>
		<path fill="none" stroke="#FFFFFF" stroke-miterlimit="10" d="M241.789,380.855c0,0-23.556,37.479-18.737,60.497"/>
		<path fill="none" stroke="#FFFFFF" stroke-miterlimit="10" d="M318.345,373.276c0,0,13.384,27.922,13.384,70.75"/>
		<path fill="none" stroke="#FFFFFF" stroke-miterlimit="10" d="M332.086,186.342l-5.711-24.626c0,0-0.713-6.459,8.566-6.459
			c9.28,0,25.341-8.173,32.479-15.312c0,0,0.32-3.219-5.324,0c-5.646,3.22-11.644,4.454-11.644,4.454s10.585-10.21,13.583-19.571
			c3-9.359-2.646-3.891-3.527-3.009c-0.882,0.883-10.056,14.995-10.056,14.995s3.704-11.656,5.116-17.383
			c1.411-5.727-2.822-4.669-3.705-1.316c-0.882,3.352-7.761,18.346-7.761,18.346s1.058-16.936,1.058-19.228
			c0-2.293-4.233-0.53-4.233,1.94s-1.411,13.76-1.411,13.76s-0.177,4.057-6.881,5.469c-6.703,1.411-18.393,1.269-19.339,12.454
			c-0.946,11.184-7.12,37.291-7.12,37.291"/>
		<line fill="none" stroke="#FFFFFF" stroke-miterlimit="10" x1="224.146" y1="162.567" x2="234.905" y2="142.941"/>
		<path fill="none" stroke="#FFFFFF" stroke-miterlimit="10" d="M201.777,158.687l18.924-24.742
			c3.673,3.143,8.132,5.876,13.54,7.942c26.135,9.988,54.182,10.849,79.053,9.613"/>
		<path fill="none" stroke="#FFFFFF" stroke-miterlimit="10" d="M197.886,160.317c5.631-4.422,28.088,3.904,28.088,3.904
			l-6.559,9.14c0,0,2.613-1.25,3.768,1.925c1.155,3.174-1.852,3.739-1.852,3.739s3.876,1.894,2.817,6.304
			c0,0,5.997,4.055,3.704,7.759c0,0,5.972,2.469,8.089,6.703c2.115,4.234,0.56,6.085,4.56,10.583v2.378c0,0,4.656-1.495,6.066,4.15
			l4.49,1.587l3.655,2.116"/>
		<path fill="none" stroke="#FFFFFF" stroke-miterlimit="10" d="M184.893,174.678c0,0,0.266,10.471,8.733,27.935
			c8.467,17.465,32.736,51.863,32.736,51.863s7.308,9.351,7.308,18.7s-13.936,13.23-8.644,32.635l9.803,49.347"/>
		<path fill="none" stroke="#FFFFFF" stroke-miterlimit="10" d="M261.418,239.52c0,0-7.138,12.621-12.491,12.621
			c-5.353,0,12.491,4.868,16.061-1.913c3.569-6.782,7.852,0.357,7.852,0.357s-3.211,17.489-7.852,22.128
			c0,0,11.642-6.067,14.03-16.597c2.389-10.528,16.229-8.762,16.229-8.762l6.859,4.747c-3.569-21.949-6.859-22.95-6.859-27.59
			c0-4.639,3.646-6.058,3.646-6.058s-1.248-10.166,2.499-13.914c3.747-3.747,2.855-9.991,2.855-9.991s-1.071-6.423,8.565-6.423
			s14.634-2.498,14.634-2.498s9.636-2.142,6.424,10.35c-3.212,12.491,2.928,17.132,2.928,17.132s2.427,9.993,2.427,17.131
			c0,7.139,2.14,17.845,2.14,17.845s4.998,7.852-6.066,27.481c-11.064,19.631-16.958,46.81-14.276,79.59"/>
		<path fill="none" stroke="#FFFFFF" stroke-miterlimit="10" d="M296.729,202.878c-0.733-0.732-31.174-19.458-36.824-21.131
			c-5.649-1.674-6.067,1.255-6.067,1.255s6.276-15.272,17.156-15.272c0,0-15.967-6.122-2.648-17.498"/>
		<path fill="none" stroke="#FFFFFF" stroke-miterlimit="10" d="M312.247,158.687c0,0-11.573-6.93-24.145-6.93"/>
		<path fill="none" stroke="#FFFFFF" stroke-miterlimit="10" d="M275.284,168.984c0,0,26.675,10.033,33.888,5.694"/>
		<path fill="none" stroke="#FFFFFF" stroke-miterlimit="10" d="M253.838,183.629c0,0-2.721,5.858-2.721,7.742
			c0,1.883,1.36,8.16,1.36,8.16s-4.366,15.25-3.391,16.226c0.975,0.974,4.946,1.999,4.946,1.999
			c1.948,6.422,3.503,15.042,3.503,15.042s0.067,8.788,8.438,7.114c0.702-0.142,1.416-0.274,2.132-0.407
			c7.81-1.425,16.235-2.479,21.509-7.754"/>
		<line fill="none" stroke="#FFFFFF" stroke-miterlimit="10" x1="273.5" y1="251" x2="273.5" y2="239"/>
		<path fill="none" stroke="#FFFFFF" stroke-miterlimit="10" d="M292.228,210.373c0,0,2.859-4.87,6.902-0.828"/>
		<path fill="none" stroke="#FFFFFF" stroke-miterlimit="10" d="M289.614,222.391c0,0,1.916,3.937,5.598,0"/>
		<path fill="none" stroke="#FFFFFF" stroke-miterlimit="10" d="M297.271,231.629c0,3.6-1.728,5.407-3.86,5.407
			c-2.132,0-3.859-2.918-3.859-6.52s1.728-6.519,3.859-6.519c0.533,0,1.041,0.181,1.502,0.512"/>
		<line fill="none" stroke="#FFFFFF" stroke-miterlimit="10" x1="247.932" y1="523.107" x2="248.945" y2="556.453"/>
		<line fill="none" stroke="#FFFFFF" stroke-miterlimit="10" x1="279.5" y1="529" x2="279.5" y2="556"/>
		<line fill="none" stroke="#FFFFFF" stroke-miterlimit="10" x1="305.5" y1="529" x2="305.5" y2="556"/>
		<line fill="none" stroke="#FFFFFF" stroke-miterlimit="10" x1="336.5" y1="525" x2="336.5" y2="556"/>
		<g>
			<path fill="none" stroke="#FFFFFF" stroke-miterlimit="10" d="M307.937,60.548c0,0-15.709-21.446-15.709-37.731
				S275.284,4.206,275.284,4.206s38.004,4.014,48.427,41.44"/>
			<path fill="none" stroke="#FFFFFF" stroke-miterlimit="10" d="M327.238,64.455c0.504-2.624,0.813-5.452,0.813-8.446
				c0-16.284,16.944-18.61,16.944-18.61s-34.661,3.931-45.085,41.356"/>
			<path fill="none" stroke="#FFFFFF" stroke-miterlimit="10" d="M318.903,83.697c0,0,3.996-4.98,6.705-13.058"/>
			<path fill="none" stroke="#FFFFFF" stroke-miterlimit="10" d="M291.719,18.207c-4.99,5.201-9.463,9.786-12.082,19.191"/>
			<path fill="none" stroke="#FFFFFF" stroke-miterlimit="10" d="M304.409,16.551c1.766-7.463,11.02-12.346,11.02-12.346
				s-8.258,1.753-17.094,8.221"/>
			<path fill="none" stroke="#FFFFFF" stroke-miterlimit="10" d="M289.386,49.093c0,0,2.811-4.071,6.342-10.681"/>
			<path fill="none" stroke="#FFFFFF" stroke-miterlimit="10" d="M279.871,72.532c0,0-10.128-12.015-10.128-28.301
				c0-16.284-16.944-27.679-16.944-27.679s38.301,20.066,48.726,57.491"/>
		</g>
		<g>
			<path fill="none" stroke="#FFFFFF" stroke-miterlimit="10" d="M350.353,85.174c0,0,15.71-21.446,15.71-37.731
				s16.942-18.61,16.942-18.61s-38.004,4.015-48.427,41.438"/>
			<path fill="none" stroke="#FFFFFF" stroke-miterlimit="10" d="M329.775,86.188c0,0-2.75-2.491-2.75-9.3
				c0-16.285-16.944-18.611-16.944-18.611s32.778,8.859,42.592,32.783"/>
			<path fill="none" stroke="#FFFFFF" stroke-miterlimit="10" d="M366.571,42.834c4.989,5.199,11.315,12.216,13.936,21.62"/>
			<path fill="none" stroke="#FFFFFF" stroke-miterlimit="10" d="M353.88,41.178c-1.765-7.463-11.021-12.345-11.021-12.345
				s8.258,1.753,17.095,8.221"/>
			<path fill="none" stroke="#FFFFFF" stroke-miterlimit="10" d="M369.816,74.632c0,0-3.724-4.985-7.256-11.594"/>
			<path fill="none" stroke="#FFFFFF" stroke-miterlimit="10" d="M379.271,96.305c0,0,7.44-11.267,9.274-27.448
				c1.222-10.782,16.944-18.611,16.944-18.611s-35.674,12.792-46.698,42.055"/>
		</g>
		<g>
			<path fill="none" stroke="#FFFFFF" stroke-miterlimit="10" d="M238.56,59.468c0,0-13.252-18.759-13.252-35.044
				S208.363,5.812,208.363,5.812s30.115-4.885,44.435,31.229"/>
			<path fill="none" stroke="#FFFFFF" stroke-miterlimit="10" d="M259.24,70.491c1.108-3.765,1.891-8.112,1.891-12.875
				c0-16.285,13.494-37.803,13.494-37.803s-29.573,13.401-39.997,50.826"/>
			<path fill="none" stroke="#FFFFFF" stroke-miterlimit="10" d="M224.8,19.812c-4.99,5.2-9.534,11.072-12.153,20.475"/>
			<path fill="none" stroke="#FFFFFF" stroke-miterlimit="10" d="M240.701,16.551c1.765-7.463,11.02-12.346,11.02-12.346
				s-8.257,1.753-17.094,8.221"/>
			<path fill="none" stroke="#FFFFFF" stroke-miterlimit="10" d="M222.345,50.818c0,0,2.931-4.19,6.464-10.8"/>
			<path fill="none" stroke="#FFFFFF" stroke-miterlimit="10" d="M211.396,72.363c0,0-8.574-10.24-8.574-26.525
				c0-16.286-16.943-18.611-16.943-18.611s35.112,5.465,45.536,42.891"/>
		</g>
	</g>
	<g>
		<path fill="none" stroke="#FFFFFF" stroke-linecap="round" stroke-linejoin="round" stroke-miterlimit="10" d="M520.986,549.382
			c0,0-1.612-1.613-3.227-29.27c0,0,0-14.98-23.508-33.88c0,0-25.537-19.157-33.648-23.047c-6.496-3.115-18.438-15.672-60.845-0.23
			c0,0,6.222-10.371,23.969-11.754c17.746-1.383,24.66,1.844,26.965,1.844c2.306,0,8.989,2.996,13.598,3.227
			c4.61,0.23,5.071,5.301,7.376,5.762c2.305,0.46,12.445,2.995,16.594,9.45c4.148,6.452,12.906,10.37,14.98,12.443
			c2.074,2.075,9.219,5.302,13.828,13.829c4.609,8.528,6.453,11.984,6.453,11.984"/>
		<path fill="none" stroke="#FFFFFF" stroke-linecap="round" stroke-linejoin="round" stroke-miterlimit="10" d="M522.869,471.144
			c0,0,6.414-6.345,6.645-11.185c0.231-4.84,2.767-6.914,2.767-6.914c7.835-7.605,8.065-19.59,8.065-19.59
			s2.363-19.763,12.677-20.513c6.957-0.505,14.52-8.758,18.207-11.293c3.687-2.535,8.758-3.456,12.906-1.152
			c4.148,2.305,8.988,2.305,8.988,2.305c16.595-0.46,20.281,12.676,20.281,12.676c-3.918-5.301-13.663-9.047-19.187-9.392
			c-5.531-0.346-26.907,2.247-29.212,9.162c-2.305,6.913-7.836,16.824-13.828,19.82c-5.993,2.995-11.497,12.5-11.497,12.5
			s-3.023,5.476-0.257,8.703c2.766,3.226-3.228,11.753-8.989,17.977c-5.761,6.223-5.761,43.789-4.148,61.074l1.844,11.755"/>
		<path fill="none" stroke="#FFFFFF" stroke-linecap="round" stroke-linejoin="round" stroke-miterlimit="10" d="M519.144,494.53
			c0,0,0.83-11.615,11.772-20.805"/>
		<path fill="none" stroke="#FFFFFF" stroke-linecap="round" stroke-linejoin="round" stroke-miterlimit="10" d="M523.088,478.782
			l-0.949-33.112c0,0,1.634-6.542,5.531-14.866c0,0,6.05-17.285,16.768-20.569c10.716-3.285,8.814-12.445,9.507-18.149
			c0.69-5.704,11.581-7.951,11.581-7.951s3.457-1.21,5.877-9.853s14.865,1.901,31.459-26.793
			c16.594-28.693,47.189-14.346,47.189-14.346s-11.408-13.138-47.016-0.347c-35.608,12.791-27.657,24.546-40.621,30.077
			s-19.878,18.494-22.471,21.952c-2.594,3.457-4.65,26.089-12.446,31.286c-6.223,4.148-9.17,9.763-9.17,9.763"/>
		<path fill="none" stroke="#FFFFFF" stroke-linecap="round" stroke-linejoin="round" stroke-miterlimit="10" d="M515.57,495.288
			c0,0-2.766-27.147-10.544-34.58c-7.778-7.434-32.496-39.584-64.992-43.732c-32.497-4.148-38.719-2.593-60.845-1.383
			c0,0,6.223-5.877,14.864-5.877c8.644,0,12.792-2.938,16.94-2.767c4.148,0.174,13.656,2.075,23.335,0.692
			c9.68-1.383,21.952,3.976,26.619,9.853c4.668,5.877,17.459,5.877,26.102,10.89c8.643,5.014,31.113,24.373,31.978,38.374"/>
		<path fill="none" stroke="#FFFFFF" stroke-linecap="round" stroke-linejoin="round" stroke-miterlimit="10" d="M515.57,416.111
			c0,0-4.037-7.807-11.255-13.12"/>
		<path fill="none" stroke="#FFFFFF" stroke-linecap="round" stroke-linejoin="round" stroke-miterlimit="10" d="M511.768,449.555"
			/>
		<path fill="none" stroke="#FFFFFF" stroke-linecap="round" stroke-linejoin="round" stroke-miterlimit="10" d="M511.768,451.024
			c0,0-1.218-40.301-5.186-45.457c-6.914-8.988-18.841-11.754-20.224-21.261s-9.68-16.075-12.1-17.804
			c-2.421-1.729-12.272-14.348-14.347-20.916s-8.989-4.494-13.656-6.913c-4.666-2.42-24.372-18.669-49.954,6.222
			c0,0,5.531-11.08,16.594-13.664s12.964-0.854,21.434-2.411c8.471-1.556,16.768,5.013,28.866,5.877
			c12.101,0.864,18.323,6.569,25.582,14.865c7.261,8.298,11.236,7.433,12.619,19.187s8.988,20.32,8.988,20.32"/>
		<path fill="none" stroke="#FFFFFF" stroke-linecap="round" stroke-linejoin="round" stroke-miterlimit="10" d="M520.948,422.09
			c0,0-4.168-34.499,9.487-55.414c13.656-20.916,24.373-31.68,30.077-37.793c5.704-6.112,13.137-5.248,18.841-9.915
			s8.815-22.817,16.248-26.965c0,0,6.741-4.667,15.902-15.385c9.161-10.716,8.989-19.705,21.952-30.94
			c0,0-42.175,21.434-71.561,59.634c0,0-10.025,14.002-27.829,32.497c0,0-21.78,21.261-16.939,42.868"/>
		<path fill="none" stroke="#FFFFFF" stroke-linecap="round" stroke-linejoin="round" stroke-miterlimit="10" d="M528.593,344.13
			c0,0,1.152-6.45,0.114-15.547c-1.037-9.097,5.186-11.862,8.125-15.665c2.938-3.803,4.666-14.174,4.666-28.002
			c0-13.829,10.372-44.251,14.52-59.634c0,0-14.418,18.342-17.221,29.702"/>
		<path fill="none" stroke="#FFFFFF" stroke-linecap="round" stroke-linejoin="round" stroke-miterlimit="10" d="M512.525,396.549
			c-2.938-7.605-9.919-38.517-5.771-56.32s4.667-29.039,6.05-37.854c1.383-8.816-2.938-44.424-2.074-54.622
			c0.865-10.199,8.125-45.806,7.779-52.375c-0.347-6.569,4.934,33.149,9.716,44.213"/>
		<path fill="none" stroke="#FFFFFF" stroke-linecap="round" stroke-linejoin="round" stroke-miterlimit="10" d="M538,310.92
			c4.305-12.481-2.897-34.993-2.897-40.87s9.335-25.928,5.013-38.893c-4.32-12.963-6.741-50.818-6.741-50.818
			s-0.69,24.544-1.901,30.768c-1.21,6.223-3.514,16.939-2.88,23.681c0.633,6.742-5.244,18.668-7.836,25.41
			c-2.594,6.742-7.28,17.977-4.332,33.88c2.949,15.902-2.686,21.21,1.22,41.139"/>
	</g>
	<g>
		<path fill="none" stroke="#FFFFFF" stroke-linecap="round" stroke-linejoin="round" stroke-miterlimit="10" d="M498.407,348.741
			c2.44-2.004,4.36-10.099,0.532-20.861c-3.828-10.765-8.778-53.83-8.778-53.83s9.437,29.397,11.952,36.057
			c2.516,6.663,6.453,27.165,2.805,32.799C501.27,348.541,498.407,348.741,498.407,348.741z"/>
		<path fill="none" stroke="#FFFFFF" stroke-linecap="round" stroke-linejoin="round" stroke-miterlimit="10" d="M490.486,276.789
			c0,0-6.497-12.311-9.027-18.05c-2.529-5.739,6.06,19.05,9.87,24.864"/>
		<path fill="none" stroke="#FFFFFF" stroke-linecap="round" stroke-linejoin="round" stroke-miterlimit="10" d="M501.029,341.517
			c-0.079,1.888-4.156,4.71-4.156,4.71s2.11,0.672,3.248-0.25"/>
		<path fill="none" stroke="#FFFFFF" stroke-linecap="round" stroke-linejoin="round" stroke-miterlimit="10" d="M495.331,349.074
			c-3.062-0.769-8.261-7.263-9.403-18.629c-1.145-11.367-15.09-52.414-15.09-52.414s4.045,30.609,4.619,37.706
			c0.575,7.099,5.784,27.314,11.493,30.848C492.658,350.117,495.331,349.074,495.331,349.074z"/>
		<path fill="none" stroke="#FFFFFF" stroke-linecap="round" stroke-linejoin="round" stroke-miterlimit="10" d="M471.717,280.646
			c0,0,0.607-13.905,0.44-20.176c-0.169-6.27,2.67,19.812,1.712,26.697"/>
		<path fill="none" stroke="#FFFFFF" stroke-linecap="round" stroke-linejoin="round" stroke-miterlimit="10" d="M489.87,343.665
			c0.879,1.674,5.771,2.479,5.771,2.479s-1.62,1.513-3.043,1.165"/>
		<path fill="none" stroke="#FFFFFF" stroke-linecap="round" stroke-linejoin="round" stroke-miterlimit="10" d="M495.886,356.449
			c0,0,0.024-4.013-0.985-4.479c-0.596-0.275-1.808-1.247-1.568-2.775"/>
		<path fill="none" stroke="#FFFFFF" stroke-linecap="round" stroke-linejoin="round" stroke-miterlimit="10" d="M501.355,347.216
			c0,0,1.168,1.975,0.289,3.285s1.731,26.356,1.731,26.356"/>
		<path fill="none" stroke="#FFFFFF" stroke-linecap="round" stroke-linejoin="round" stroke-miterlimit="10" d="M481.415,259.438
			c0,0-3.414-4.326-3.736-5.285c-0.321-0.959-1.065,5.191,0.032,7.148"/>
		<path fill="none" stroke="#FFFFFF" stroke-linecap="round" stroke-linejoin="round" stroke-miterlimit="10" d="M474.88,258.042
			c0,0-0.978-2.106-2.076-3.349c-1.1-1.243,0.07,4.518-0.274,6.651"/>
		<path fill="none" stroke="#FFFFFF" stroke-linecap="round" stroke-linejoin="round" stroke-miterlimit="10" d="M478.706,262.949
			c0,0-2.696-3.198-3.552-11.612c0,0-0.674,14.193-0.45,18.716"/>
		<path fill="none" stroke="#FFFFFF" stroke-linecap="round" stroke-linejoin="round" stroke-miterlimit="10" d="M500.018,346.097
			c0,0-1.984,2.771-2.85,3.155c-0.866,0.383-4.475-1.788-4.475-1.788"/>
		<path fill="none" stroke="#FFFFFF" stroke-linecap="round" stroke-linejoin="round" stroke-miterlimit="10" d="M476.148,294.239
			c-0.017-0.056,0.073-0.445,0.228-0.437c0,0-0.728-1.058-0.123-1.746c0,0-0.992-1.188-0.41-1.709c0,0-1.092-1.245-0.742-1.974
			c0,0-0.64-1.502,0.011-2.085c0,0-0.845-1.295-0.221-1.853c0,0-0.869-0.834-0.306-1.485c0,0-0.86-1.72-0.048-2.45
			c0,0-0.891-1.839-0.188-2.471c0,0-0.312-1.845,0.288-2.457c0,0-0.915-1.929-0.343-3.31c0.014-0.034,0.028-0.067,0.045-0.1
			c0,0-0.484-1.848,0.863-2.471c0,0-0.166-1.193,0.604-2.104c0,0-0.525-1.021,0.532-1.748c0,0-0.666-1.479,0.51-2.046
			c0,0,1.183-1.883,2.335-0.311c0,0,1,0.106,1.575,1.618c0,0,1.104,0.524,1.57,1.89c0,0,1.101,0.845,1.349,1.747
			c0,0,0.907,0.577,1.05,1.744c0,0,1.006,0.624,1.473,2.033"/>
		<path fill="none" stroke="#FFFFFF" stroke-linecap="round" stroke-linejoin="round" stroke-miterlimit="10" d="M499.347,344.176
			c0,0-2.062,0.494-2.877,1.599c0,0-1.856-0.776-2.928-0.109"/>
		<path fill="none" stroke="#FFFFFF" stroke-linecap="round" stroke-linejoin="round" stroke-miterlimit="10" d="M489.764,343.309
			c0,0,1.4,0.051,1.653-0.545c0,0,0.725,2.959,3.284,1.039c0,0,2.797,0.232,2.835-1.51c0,0,1.222,0.676,2.086-0.559
			c0,0,0.688,0.504,1.167,0.278"/>
		<path fill="none" stroke="#FFFFFF" stroke-linecap="round" stroke-linejoin="round" stroke-miterlimit="10" d="M476.008,267.73
			c0.603,0.276,0.881,0.591,1.363,1.069c0.519-0.431,1.008-0.519,1.518,0.08c0.35-0.373,1.02-1.252,1.566-0.745
			c0.137-0.555,0.791-0.876,1.3-1.027"/>
		<path fill="none" stroke="#FFFFFF" stroke-linecap="round" stroke-linejoin="round" stroke-miterlimit="10" d="M475.659,269.685
			c0.101,0.186,0.461,0.273,0.67,0.436c0.22,0.169,0.395,0.397,0.595,0.594c-0.09-0.438-0.202-0.98,0.139-1.37"/>
		<path fill="none" stroke="#FFFFFF" stroke-linecap="round" stroke-linejoin="round" stroke-miterlimit="10" d="M479.142,269.32
			c0.139,0.429,0.36,0.719,0.554,1.148c-0.458-0.2-0.807,0.345-1.134,0.612c-0.427-0.424-0.579-0.81-1.209-0.681"/>
		<path fill="none" stroke="#FFFFFF" stroke-linecap="round" stroke-linejoin="round" stroke-miterlimit="10" d="M483.086,268.738
			c-0.406-0.002-0.633-0.179-1.034-0.052c-0.365,0.114-0.546,0.305-0.857,0.556c-0.14-0.262-0.188-0.518-0.415-0.733"/>
		<path fill="none" stroke="#FFFFFF" stroke-linecap="round" stroke-linejoin="round" stroke-miterlimit="10" d="M476.868,265.908
			c0.303,0.199,0.725,0.537,0.92,0.909c0.222,0.421-0.002,0.839,0.179,1.193"/>
		<path fill="none" stroke="#FFFFFF" stroke-linecap="round" stroke-linejoin="round" stroke-miterlimit="10" d="M478.445,266.859
			c0.384-0.346,1.156-1.052,1.651-0.574c-0.224-0.522-0.068-0.669,0.338-1.014"/>
		<path fill="none" stroke="#FFFFFF" stroke-linecap="round" stroke-linejoin="round" stroke-miterlimit="10" d="M479.031,263.706
			c-0.41,0.738-0.966,1.322-1.587,1.887c0.609-0.34,0.12-1.166-0.233-1.502"/>
		<path fill="none" stroke="#FFFFFF" stroke-linecap="round" stroke-linejoin="round" stroke-miterlimit="10" d="M474.932,272.242
			c0.634-0.814,1.542,0.289,1.947,0.79c-0.366,0.304-0.509,1.033-0.314,1.472c-0.571-0.826-1.527-0.539-1.67,0.333"/>
		<path fill="none" stroke="#FFFFFF" stroke-linecap="round" stroke-linejoin="round" stroke-miterlimit="10" d="M484.756,271.772
			c-0.682-0.161-1.319,0.48-1.65,1.077c-0.524-0.612-1.576-0.401-2.086,0.095c-0.393-0.474-0.915-0.631-1.427-0.286
			c-0.549,0.367-0.688,0.725-0.643,1.342c-0.157-0.836-1.049-1.084-1.693-1.218"/>
		<path fill="none" stroke="#FFFFFF" stroke-linecap="round" stroke-linejoin="round" stroke-miterlimit="10" d="M483.97,270.31
			c-0.545-0.205-1.262-0.068-1.684,0.393"/>
		<path fill="none" stroke="#FFFFFF" stroke-linecap="round" stroke-linejoin="round" stroke-miterlimit="10" d="M480.831,269.446
			c-0.206,0.389-0.604,0.647-0.81,1.062c0.378,0.446,1.015,0.901,0.887,1.567c0.26-0.404,0.286-0.989,0.908-1.017"/>
		<path fill="none" stroke="#FFFFFF" stroke-linecap="round" stroke-linejoin="round" stroke-miterlimit="10" d="M482.563,270.06
			c-0.122-0.413-0.131-0.8-0.423-1.131"/>
		<path fill="none" stroke="#FFFFFF" stroke-linecap="round" stroke-linejoin="round" stroke-miterlimit="10" d="M476.874,270.894
			c-0.145,0.381-0.14,1.044,0.205,1.326"/>
		<path fill="none" stroke="#FFFFFF" stroke-linecap="round" stroke-linejoin="round" stroke-miterlimit="10" d="M478.495,272.921
			c0.251-0.315,0.048-0.968,0.003-1.316"/>
		<path fill="none" stroke="#FFFFFF" stroke-linecap="round" stroke-linejoin="round" stroke-miterlimit="10" d="M475.204,276.135
			c0.413,0.306,0.927,0.176,1.308,0.589c-0.543,0.449-0.73,0.918-0.339,1.499c-0.275-0.32-1.229-0.304-1.499,0.029"/>
		<path fill="none" stroke="#FFFFFF" stroke-linecap="round" stroke-linejoin="round" stroke-miterlimit="10" d="M475.24,280.569
			c0.031-0.593,1.363-1.655,1.982-1.263c0.211-0.265,0.13-1.016,0.73-0.913c-0.142-0.548-0.514-1.297,0.05-1.691
			c-0.43-0.302-0.938-0.782-0.646-1.317c0.219-0.4,0.898-0.778,1.267-1.005"/>
		<path fill="none" stroke="#FFFFFF" stroke-linecap="round" stroke-linejoin="round" stroke-miterlimit="10" d="M476.588,274.894
			c0.154,0.263,0.479,0.652,0.397,0.957"/>
		<path fill="none" stroke="#FFFFFF" stroke-linecap="round" stroke-linejoin="round" stroke-miterlimit="10" d="M482.034,275.329
			c-0.173-0.195-0.689-0.615-0.888-0.861c-0.265-0.33-0.146-0.585-0.119-0.994"/>
		<path fill="none" stroke="#FFFFFF" stroke-linecap="round" stroke-linejoin="round" stroke-miterlimit="10" d="M480.934,274.541
			c-0.358,0.203-0.694,0.473-0.951,0.796c-0.215,0.27-0.386,0.578-0.448,0.919c-0.045,0.236,0.11,0.356-0.065,0.557
			c-0.258-0.182-0.508-0.094-0.799-0.11"/>
		<path fill="none" stroke="#FFFFFF" stroke-linecap="round" stroke-linejoin="round" stroke-miterlimit="10" d="M486.188,273.442
			c-0.834-0.217-1.497,0.003-2.137,0.609c0.228,0.287,0.843,0.877,0.556,1.282c0.337,0.094,0.602,0.058,0.908,0.283
			c0.265-0.249,0.518-0.659,0.902-0.673"/>
		<path fill="none" stroke="#FFFFFF" stroke-linecap="round" stroke-linejoin="round" stroke-miterlimit="10" d="M485.615,276.319
			c-0.091,0.336-0.199,0.692-0.322,1.008c-0.685-0.195-1.045-0.035-1.487,0.61c-0.369-0.3-0.46-0.614-0.976-0.646
			c-0.39-0.024-0.798,0.134-1.176,0.1c0.32-0.417,0.405-0.991,0.59-1.458c0.492,0.072,1.988,0.552,2.184-0.06"/>
		<path fill="none" stroke="#FFFFFF" stroke-linecap="round" stroke-linejoin="round" stroke-miterlimit="10" d="M482.301,274.893
			c0.451-0.406,1.088-0.753,1.475-1.199c-0.081-0.103-0.177-0.249-0.284-0.329"/>
		<path fill="none" stroke="#FFFFFF" stroke-linecap="round" stroke-linejoin="round" stroke-miterlimit="10" d="M487.471,277.217
			c-0.397,0.065-0.92,0.075-1.287,0.364c-0.371,0.295-0.271,0.165-0.116,0.687c0.107,0.365,0.169,0.527-0.134,0.802
			c0.351-0.127,0.623,0.244,0.894,0.422c0.599-0.482,0.822-0.612,1.622-0.525"/>
		<path fill="none" stroke="#FFFFFF" stroke-linecap="round" stroke-linejoin="round" stroke-miterlimit="10" d="M489.245,280.88
			c-0.79-0.157-1.438-0.313-2.093,0.289c-0.486-0.512-1.007-0.184-1.438,0.237c0.103-0.593-0.655-0.917-1.114-0.875
			c-0.558,0.051-1.128,0.472-1.547,0.833c-0.403-0.417-0.821-0.674-1.224-0.994c-0.254-0.201-0.268-0.03-0.192-0.435
			c0.038-0.206,0.175-0.43,0.35-0.56c0.42-0.312,1.411-0.374,1.957-0.423c0.694-0.061,0.442,0.226,0.688,0.73
			c0.312-0.248,0.54-0.527,0.938-0.633"/>
		<path fill="none" stroke="#FFFFFF" stroke-linecap="round" stroke-linejoin="round" stroke-miterlimit="10" d="M481.436,278.689
			c-0.057-0.414-0.484-1.077-0.203-1.392c-0.321,0.053-0.887-0.071-1.119-0.366c-0.198,0.171-0.098,0.365-0.227,0.573
			c-0.119,0.191-0.372,0.335-0.533,0.49c-0.215,0.209-0.411,0.586-0.678,0.68c0.767,0.569,1.46,0.789,1.824,1.766
			c-0.479,0.142-1.01-0.146-1.514,0.131c-0.373,0.203-0.826,0.68-1.038,1.028c-0.271-0.271-0.381-0.532-0.797-0.436
			c-0.388,0.091-0.722,0.791-1.09,0.838c-0.471,0.058-0.479-1.719-1.206-1.351"/>
		<path fill="none" stroke="#FFFFFF" stroke-linecap="round" stroke-linejoin="round" stroke-miterlimit="10" d="M477.873,281.099
			c-0.404-0.148-0.679-1.109-0.477-1.348"/>
		<path fill="none" stroke="#FFFFFF" stroke-linecap="round" stroke-linejoin="round" stroke-miterlimit="10" d="M481.31,280.379
			c-0.144,0.301-0.517,0.506-0.681,0.819c-0.177,0.342-0.106,0.828-0.301,1.16c-0.244,0.413-0.366,0.155-0.748,0.276
			c-0.346,0.11-0.684,0.576-0.965,0.811c-0.54-0.689-1.545-0.221-2.051,0.335c0.425-0.566-1.133-1.007-1.525-0.799"/>
		<path fill="none" stroke="#FFFFFF" stroke-linecap="round" stroke-linejoin="round" stroke-miterlimit="10" d="M487.404,281.611
			c0.181,0.41,0.312,1.391,0.044,1.792c-0.529-0.184-1.003-0.235-1.529-0.018c-0.022-1.139-1.738-0.918-2.3-0.295
			c-0.498-0.489-0.739-0.723-1.453-0.495c-0.703,0.228-1.153,0.68-0.54,1.369c-0.087,0.097-0.103,0.245-0.207,0.332
			c0.351,0.36,1.153,0.532,1.172,1.15c0.214-0.695,0.821-0.938,1.484-0.743c-0.297-0.291-0.376-0.698-0.312-1.075"/>
		<path fill="none" stroke="#FFFFFF" stroke-linecap="round" stroke-linejoin="round" stroke-miterlimit="10" d="M475.506,284.598
			c0.94,0.181,2.04,1.103,1.728,2.186c-0.588-0.049-1.229-0.285-1.722,0.24"/>
		<path fill="none" stroke="#FFFFFF" stroke-linecap="round" stroke-linejoin="round" stroke-miterlimit="10" d="M478.701,283.768
			c-0.111,0.366-0.105,0.811,0,1.184c-0.514-0.043-0.847,0.145-1.234,0.515"/>
		<path fill="none" stroke="#FFFFFF" stroke-linecap="round" stroke-linejoin="round" stroke-miterlimit="10" d="M480.852,284.336
			c-0.324,0.285-1.08,0.588-1.268,1.005c-0.111,0.251,0.168,1.107,0.257,1.454c-0.902,0.062-1.454-0.174-2.195,0.482"/>
		<path fill="none" stroke="#FFFFFF" stroke-linecap="round" stroke-linejoin="round" stroke-miterlimit="10" d="M480.408,288.673
			c-1.382-0.788,0.692-3.045,1.958-2.153c-0.074-0.179-0.062-0.428,0.096-0.608"/>
		<path fill="none" stroke="#FFFFFF" stroke-linecap="round" stroke-linejoin="round" stroke-miterlimit="10" d="M482.82,286.97
			c0.072,0.301,0.165,0.729,0.294,0.978c0.461-0.847,1.543-1.591,2.524-1.474c-0.04-0.538-0.35-1.019-0.713-1.402
			c0.196,0.359,0.7,0.092,0.952-0.179c0.038,0.257,0.146,0.489,0.306,0.703"/>
		<path fill="none" stroke="#FFFFFF" stroke-linecap="round" stroke-linejoin="round" stroke-miterlimit="10" d="M487.999,282.784
			c0.507,0.293,1.388-0.459,1.774-0.803"/>
		<path fill="none" stroke="#FFFFFF" stroke-linecap="round" stroke-linejoin="round" stroke-miterlimit="10" d="M489.826,282.919
			c0.271,0.303,0.496,0.541,0.644,0.924c0.147,0.384,0.011,0.689,0.14,1.052c-0.938-0.507-1.545-0.409-2.354,0.21
			c0.222-0.379-0.008-1.252-0.225-1.625"/>
		<path fill="none" stroke="#FFFFFF" stroke-linecap="round" stroke-linejoin="round" stroke-miterlimit="10" d="M488.461,288.938
			c1.198-1.225-0.98-2.92-2.06-1.646c-0.083-0.256-0.214-0.519-0.303-0.768"/>
		<path fill="none" stroke="#FFFFFF" stroke-linecap="round" stroke-linejoin="round" stroke-miterlimit="10" d="M486.268,287.885
			c-0.117,0.271-0.144,0.534-0.408,0.704c0.209,0.266,0.832,0.778,0.653,1.047c0.63-1.596,3.333,0.312,2.232,1.083"/>
		<path fill="none" stroke="#FFFFFF" stroke-linecap="round" stroke-linejoin="round" stroke-miterlimit="10" d="M488.79,285.426
			c0.258,0.644,0.197,1.319-0.337,1.746"/>
		<path fill="none" stroke="#FFFFFF" stroke-linecap="round" stroke-linejoin="round" stroke-miterlimit="10" d="M490.652,284.938
			c0.223,0.558,0.817,0.854,0.504,1.571c-0.114,0.26-0.598,0.686-0.84,0.766"/>
		<path fill="none" stroke="#FFFFFF" stroke-linecap="round" stroke-linejoin="round" stroke-miterlimit="10" d="M489.245,286.593
			c0.369,0.352,2.013,1.166,1.08,1.79"/>
		<path fill="none" stroke="#FFFFFF" stroke-linecap="round" stroke-linejoin="round" stroke-miterlimit="10" d="M489.236,289.95
			c0.34-0.101,0.467-0.284,0.848-0.316c0.363-0.029,0.76,0.062,1.049,0.325c0.445,0.403,0.578,1.43-0.246,1.465"/>
		<path fill="none" stroke="#FFFFFF" stroke-linecap="round" stroke-linejoin="round" stroke-miterlimit="10" d="M488.935,287.856
			c0.405,0.15,0.7,0.041,1.05,0.293c0.3,0.215,0.636,0.661,0.836,0.96c-0.156,0.194-0.106,0.381-0.254,0.568"/>
		<path fill="none" stroke="#FFFFFF" stroke-linecap="round" stroke-linejoin="round" stroke-miterlimit="10" d="M479.51,288.624
			c-0.452,0.161-0.87,0.233-1.243,0.581c-0.3-0.249-0.667-1.056-0.478-1.401"/>
		<path fill="none" stroke="#FFFFFF" stroke-linecap="round" stroke-linejoin="round" stroke-miterlimit="10" d="M475.629,288.69
			c0.174,0.584,1.349,0.189,1.636-0.153"/>
		<path fill="none" stroke="#FFFFFF" stroke-linecap="round" stroke-linejoin="round" stroke-miterlimit="10" d="M476.156,290.449
			c0.666,0.354,1.517,0.193,2.028-0.373"/>
		<path fill="none" stroke="#FFFFFF" stroke-linecap="round" stroke-linejoin="round" stroke-miterlimit="10" d="M480.37,289.363
			c0.058,0.36,0.346,0.592,0.567,0.86c-0.7,0.537-0.492,1.933-0.002,2.554c-0.419-0.699-1.52-0.333-1.997,0.03
			c-0.446-0.4-0.376-0.687-0.965-0.77c-0.386-0.053-0.606,0.06-0.94,0.121"/>
		<path fill="none" stroke="#FFFFFF" stroke-linecap="round" stroke-linejoin="round" stroke-miterlimit="10" d="M480.038,290.385
			c-0.354,0.448-0.978,0.122-1.44,0.211c-0.289,0.056-0.314-0.105-0.5,0.358c-0.106,0.271-0.217,0.588,0.03,0.815"/>
		<path fill="none" stroke="#FFFFFF" stroke-linecap="round" stroke-linejoin="round" stroke-miterlimit="10" d="M484.007,288.074
			c0.267,0.076,0.562-0.023,0.809,0.073c0.227,0.089,0.466,0.341,0.651,0.454"/>
		<path fill="none" stroke="#FFFFFF" stroke-linecap="round" stroke-linejoin="round" stroke-miterlimit="10" d="M483.668,290.479
			c0.457-0.377,1.875-0.829,2.297-0.221"/>
		<path fill="none" stroke="#FFFFFF" stroke-linecap="round" stroke-linejoin="round" stroke-miterlimit="10" d="M480.899,288.402
			c0.521-0.19,0.978-0.457,1.563-0.512"/>
		<path fill="none" stroke="#FFFFFF" stroke-linecap="round" stroke-linejoin="round" stroke-miterlimit="10" d="M483.021,288.604
			c-0.112,0.631-0.369,1.049,0.03,1.647c-0.54-0.152-1.152-0.283-1.693-0.075"/>
		<path fill="none" stroke="#FFFFFF" stroke-linecap="round" stroke-linejoin="round" stroke-miterlimit="10" d="M483.197,290.831
			c-0.298,0.301,0.008,1.156,0.259,1.457c-0.79-0.471-1.562-0.523-2.224,0.184"/>
		<path fill="none" stroke="#FFFFFF" stroke-linecap="round" stroke-linejoin="round" stroke-miterlimit="10" d="M486.458,291.669
			c-0.278,0.081-0.776-0.136-1.145-0.059c-0.46,0.097-0.896,0.303-1.261,0.598c-0.174,0.138-0.382,0.3-0.452,0.499
			c-0.098,0.276,0.028,0.671,0.024,0.937c-0.185-0.044-0.377-0.201-0.575-0.196c-0.213,0.006-0.521,0.213-0.696,0.313
			c-0.226,0.13-0.4,0.301-0.599,0.461c-0.494-0.534-1.107-0.778-1.746-0.368c-0.373,0.239-0.586,0.527-0.658,0.929
			c-0.036,0.202-0.021,0.502-0.084,0.695c-0.113,0.347-0.268,0.184-0.629,0.104c-0.762-0.165-1.254,0.378-1.757,0.79
			c0.025-0.025,0.055-0.037,0.09-0.036"/>
		<path fill="none" stroke="#FFFFFF" stroke-linecap="round" stroke-linejoin="round" stroke-miterlimit="10" d="M478.709,292.996
			c-0.233,0.564,0.195,1.161,0.402,1.622"/>
		<path fill="none" stroke="#FFFFFF" stroke-linecap="round" stroke-linejoin="round" stroke-miterlimit="10" d="M476.592,293.884
			c0.184,0.204,0.59,0.588,0.535,0.84c0.142-0.414,0.818-0.776,1.212-0.426"/>
		<path fill="none" stroke="#FFFFFF" stroke-linecap="round" stroke-linejoin="round" stroke-miterlimit="10" d="M491.283,293.126
			c0.085-0.438-0.192-1.076-0.529-1.355c-0.381-0.319-0.747-0.273-1.18-0.146"/>
		<path fill="none" stroke="#FFFFFF" stroke-linecap="round" stroke-linejoin="round" stroke-miterlimit="10" d="M486.42,290.408
			c0.132,0.231,0.271,0.817,0.141,1.054c0.385,0.478,0.663,1.193,0.533,1.813c0.516-0.312,1.481-0.804,2.11-0.577
			c0.522,0.188,0.93,0.889,0.938,1.41"/>
		<path fill="none" stroke="#FFFFFF" stroke-linecap="round" stroke-linejoin="round" stroke-miterlimit="10" d="M487.254,291.158
			c0.415-0.167,0.777-0.487,1.267-0.3c0.497,0.191,1.128,0.943,0.844,1.479"/>
		<path fill="none" stroke="#FFFFFF" stroke-linecap="round" stroke-linejoin="round" stroke-miterlimit="10" d="M484.021,293.733
			c0.104,0.422,0.27,1.013-0.046,1.384c-0.186,0.217-0.697,0.166-1.03,0.277c-0.419,0.14-0.816,0.391-1.143,0.687
			c-0.552-0.75-1.886,0.11-2.364,0.551c0.065,0.185,0.254,0.298,0.328,0.471c0.055,0.127,0.016,0.36,0.053,0.458
			c0.06,0.164,0.188,0.248,0.227,0.43c0.031,0.155,0.012,0.438-0.003,0.598c-0.011,0.108-0.124,0.296-0.114,0.383
			c0.027,0.26,0.492,0.479,0.614,0.714c0.133,0.259,0.36,1.1,0.046,1.298c0.749,0.263,0.241,1.218,0.161,1.67
			c-0.39-0.017-0.69,0.037-1.011,0.241c-0.131,0.085-0.502,0.338-0.584,0.341"/>
		<path fill="none" stroke="#FFFFFF" stroke-linecap="round" stroke-linejoin="round" stroke-miterlimit="10" d="M484.49,294.12
			c0.273-0.194,0.61-0.244,0.928-0.365c0.379-0.146,0.67-0.236,1.083-0.19c0.711,0.08,0.819,0.821,0.862,1.412
			c0.482-0.427,1.53-0.737,2.159-0.706c0.841,0.04,1.333,0.979,0.931,1.663c0.037-0.033,0.104-0.052,0.146-0.088
			c0.274,0.153,0.742,0.687,0.814,0.995c0.072,0.308-0.21,0.636-0.436,0.812c0.387,0.18,0.856,0.572,1.005,1.01
			c0.175,0.514-0.069,0.775-0.42,1.09"/>
		<path fill="none" stroke="#FFFFFF" stroke-linecap="round" stroke-linejoin="round" stroke-miterlimit="10" d="M490.459,293.38
			c0.169,0.047,0.341-0.028,0.519-0.03c0.295-0.005,0.352,0.047,0.577,0.261c0.415,0.393,0.695,0.73,0.568,1.31"/>
		<path fill="none" stroke="#FFFFFF" stroke-linecap="round" stroke-linejoin="round" stroke-miterlimit="10" d="M491.617,296.791
			c0.327,0.173,0.755-0.213,0.975-0.429c0.311-0.306,0.297-0.776-0.005-1.106c-0.474-0.517-1.017-0.446-1.598-0.248"/>
		<path fill="none" stroke="#FFFFFF" stroke-linecap="round" stroke-linejoin="round" stroke-miterlimit="10" d="M491.964,298.259
			c0.362,0.224,0.826,0.004,1.103-0.26"/>
		<path fill="none" stroke="#FFFFFF" stroke-linecap="round" stroke-linejoin="round" stroke-miterlimit="10" d="M492.316,300.005
			c0.236,0.267,0.886-0.058,1.119-0.194"/>
		<path fill="none" stroke="#FFFFFF" stroke-linecap="round" stroke-linejoin="round" stroke-miterlimit="10" d="M492.817,301.781
			c0.215,0.215,0.562,0.148,0.75-0.065"/>
		<path fill="none" stroke="#FFFFFF" stroke-linecap="round" stroke-linejoin="round" stroke-miterlimit="10" d="M493.001,303.477
			c0.236,0.218,0.49,0.001,0.71-0.111"/>
		<path fill="none" stroke="#FFFFFF" stroke-linecap="round" stroke-linejoin="round" stroke-miterlimit="10" d="M492.719,303.973
			c0.549,0.332,1.783,1.444,1.077,2.148"/>
		<path fill="none" stroke="#FFFFFF" stroke-linecap="round" stroke-linejoin="round" stroke-miterlimit="10" d="M494.032,307.648
			c0.285,0.25,0.733,0.607,0.778,1.002"/>
		<path fill="none" stroke="#FFFFFF" stroke-linecap="round" stroke-linejoin="round" stroke-miterlimit="10" d="M492.511,310.146
			c0.279,0.144,1.012-0.021,1.335-0.144c0.327-0.126,0.578-0.318,0.835-0.548"/>
		<path fill="none" stroke="#FFFFFF" stroke-linecap="round" stroke-linejoin="round" stroke-miterlimit="10" d="M492.75,311.63
			c0.75,0.183,1.495-0.334,2.027-0.806"/>
		<path fill="none" stroke="#FFFFFF" stroke-linecap="round" stroke-linejoin="round" stroke-miterlimit="10" d="M493.895,313.719
			c0.215-0.175,1.521-0.742,1.384-1.119"/>
		<path fill="none" stroke="#FFFFFF" stroke-linecap="round" stroke-linejoin="round" stroke-miterlimit="10" d="M494.534,315.288
			c0.54-0.06,0.726-0.166,1.115-0.515"/>
		<path fill="none" stroke="#FFFFFF" stroke-linecap="round" stroke-linejoin="round" stroke-miterlimit="10" d="M495.089,316.854
			c0.422,0.135,0.775,0.047,1.057-0.22"/>
		<path fill="none" stroke="#FFFFFF" stroke-linecap="round" stroke-linejoin="round" stroke-miterlimit="10" d="M494.389,316.39
			c0.057,0.137,0.174,0.24,0.273,0.351c0.263,0.291,0.384,0.535,0.479,0.918c0.093,0.372,0.109,0.648-0.035,0.966
			c0.255,0.215,0.494,0.459,0.554,0.799c0.022,0.134,0.029,0.336,0.005,0.475c-0.011,0.061-0.096,0.234-0.092,0.271
			c0.033,0.244,0.454,0.493,0.556,0.771c0.079,0.215,0.174,0.574,0.12,0.796c-0.022,0.089-0.196,0.129-0.173,0.227
			c0.034,0.142,0.615,0.271,0.73,0.479c0.1,0.178,0.114,0.514,0.073,0.696c-0.062,0.284-0.208,0.239,0.044,0.427
			c0.27,0.201,0.477,0.276,0.668,0.593"/>
		<path fill="none" stroke="#FFFFFF" stroke-linecap="round" stroke-linejoin="round" stroke-miterlimit="10" d="M496.374,318.33
			c-0.185,0.236-0.494,0.146-0.738,0.217"/>
		<path fill="none" stroke="#FFFFFF" stroke-linecap="round" stroke-linejoin="round" stroke-miterlimit="10" d="M496.605,319.942
			c-0.104,0.257-0.435,0.253-0.656,0.307"/>
		<path fill="none" stroke="#FFFFFF" stroke-linecap="round" stroke-linejoin="round" stroke-miterlimit="10" d="M497.11,321.635
			c-0.194,0.198-0.392,0.302-0.656,0.306"/>
		<path fill="none" stroke="#FFFFFF" stroke-linecap="round" stroke-linejoin="round" stroke-miterlimit="10" d="M493.066,312.889
			c0.535,0.372,1.312,1.311,0.781,1.938c-0.217,0.255-0.89,0.291-1.241,0.377c-0.465,0.116-1.047,0.095-1.407,0.418
			c0.021-0.019,0.014-0.013,0.014-0.013"/>
		<path fill="none" stroke="#FFFFFF" stroke-linecap="round" stroke-linejoin="round" stroke-miterlimit="10" d="M492.262,317.447
			c0.216,0.16,0.988-0.253,1.226-0.4c0.248-0.152,0.569-0.357,0.743-0.597c0.324-0.443,0.123-0.993-0.152-1.4"/>
		<path fill="none" stroke="#FFFFFF" stroke-linecap="round" stroke-linejoin="round" stroke-miterlimit="10" d="M490.792,315.085
			c0.35-0.067,0.122-0.83,0.043-1.05c-0.044-0.119-0.139-0.356-0.243-0.441c-0.109-0.089-0.284-0.074-0.371-0.183
			c-0.178-0.22,0.125-0.696,0.055-1.021c-0.015-0.064-0.18-0.344-0.132-0.413c0.083-0.12,0.719,0.082,0.86,0.091
			c0.595,0.044,1.756-0.144,1.754-0.938c-0.001-0.407-0.539-1.478-1.032-1.454"/>
		<path fill="none" stroke="#FFFFFF" stroke-linecap="round" stroke-linejoin="round" stroke-miterlimit="10" d="M492.837,311.998
			c0.539,1.162-0.634,2.126-1.633,2.555"/>
		<path fill="none" stroke="#FFFFFF" stroke-linecap="round" stroke-linejoin="round" stroke-miterlimit="10" d="M489.938,313.545
			c-0.772,0.171-1.716,0.402-2.392,0.803c-0.196-0.2-0.37-0.519-0.636-0.629c0.29-0.345,0.307-0.728,0.094-1.104
			c-0.18-0.317-0.449-0.406-0.71-0.606c0.134-0.188,0.187-0.81,0.12-1.027c-0.081-0.256-0.339-0.297-0.51-0.465
			c-0.395-0.391,0.143-1.238-0.33-1.614c0.572-0.11,1.166,0.087,1.748-0.029c0.434-0.087,0.846-0.195,1.169-0.503"/>
		<path fill="none" stroke="#FFFFFF" stroke-linecap="round" stroke-linejoin="round" stroke-miterlimit="10" d="M484.445,295.333
			c0.3,0.277,0.277,0.741,0.249,1.103c-0.032,0.391,0.013,0.399-0.349,0.555c-0.328,0.142-0.633,0.132-0.974,0.212
			c-0.295,0.071-0.548,0.276-0.776,0.472c-0.427-0.344-0.597-0.733-1.23-0.578c-0.225,0.057-0.535,0.169-0.732,0.29
			c-0.119,0.073-0.263,0.26-0.32,0.239"/>
		<path fill="none" stroke="#FFFFFF" stroke-linecap="round" stroke-linejoin="round" stroke-miterlimit="10" d="M477.385,297.743
			c0.576-0.184,1.464-0.601,2.01-0.104"/>
		<path fill="none" stroke="#FFFFFF" stroke-linecap="round" stroke-linejoin="round" stroke-miterlimit="10" d="M477.996,299.823
			c0.096-0.026,0.141-0.109,0.234-0.171c0.23-0.156,0.472-0.282,0.75-0.344c0.209-0.047,0.42-0.039,0.622,0.006"/>
		<path fill="none" stroke="#FFFFFF" stroke-linecap="round" stroke-linejoin="round" stroke-miterlimit="10" d="M478.636,301.394
			c0.403-0.475,1.202-0.433,1.695-0.185"/>
		<path fill="none" stroke="#FFFFFF" stroke-linecap="round" stroke-linejoin="round" stroke-miterlimit="10" d="M481.154,300.955
			c0.803-0.47,1.917-0.411,2.587,0.269"/>
		<path fill="none" stroke="#FFFFFF" stroke-linecap="round" stroke-linejoin="round" stroke-miterlimit="10" d="M480.598,299.432
			c0.403-0.455,1.505-0.546,2.064-0.396c0.717,0.19,0.746,1.23,0.801,1.832"/>
		<path fill="none" stroke="#FFFFFF" stroke-linecap="round" stroke-linejoin="round" stroke-miterlimit="10" d="M482.682,297.967
			c0.036,0.196-0.044,0.484-0.122,0.677"/>
		<path fill="none" stroke="#FFFFFF" stroke-linecap="round" stroke-linejoin="round" stroke-miterlimit="10" d="M483.526,298.91
			c0.586-0.302,1.127-0.438,1.779-0.535c0.146-0.287,0.178-1.08-0.122-1.316"/>
		<path fill="none" stroke="#FFFFFF" stroke-linecap="round" stroke-linejoin="round" stroke-miterlimit="10" d="M485.22,295.61
			c0.499-0.444,0.82-0.654,1.467-0.709"/>
		<path fill="none" stroke="#FFFFFF" stroke-linecap="round" stroke-linejoin="round" stroke-miterlimit="10" d="M487.72,295.513
			c0.05,0.391,0.103,0.869,0.036,1.264c-0.377,0.043-0.749-0.043-1.139,0.082c-0.319,0.104-0.589,0.311-0.87,0.424"/>
		<path fill="none" stroke="#FFFFFF" stroke-linecap="round" stroke-linejoin="round" stroke-miterlimit="10" d="M488.156,296.899
			c0.27,0.435,0.275,1.002-0.018,1.393c-0.213,0.282-0.581,0.311-0.954,0.381c-0.279,0.055-0.777,0.081-0.958,0.36
			c-0.145,0.225-0.101,0.847-0.131,1.126c0.639,0.248,1.291,1.02,0.464,1.484c-0.474,0.265-1.146,0.249-1.664,0.426
			c-0.286,0.099-0.477,0.343-0.733,0.437"/>
		<path fill="none" stroke="#FFFFFF" stroke-linecap="round" stroke-linejoin="round" stroke-miterlimit="10" d="M483.897,300.721
			c0.303-0.135,0.381-0.226,0.733-0.254c0.291-0.025,0.599-0.057,0.885-0.105"/>
		<path fill="none" stroke="#FFFFFF" stroke-linecap="round" stroke-linejoin="round" stroke-miterlimit="10" d="M485.492,298.441
			c0.172,0.19,0.301,0.362,0.438,0.578"/>
		<path fill="none" stroke="#FFFFFF" stroke-linecap="round" stroke-linejoin="round" stroke-miterlimit="10" d="M487.016,300.635
			c0.486-0.067,0.911-0.264,1.413-0.287c0.253-0.012,0.501-0.014,0.721-0.08c0.171-0.422,0.157-1.232-0.127-1.589
			c-0.306-0.385-0.574-0.32-0.972-0.227"/>
		<path fill="none" stroke="#FFFFFF" stroke-linecap="round" stroke-linejoin="round" stroke-miterlimit="10" d="M488.523,296.814
			c0.46-0.229,0.975-0.89,1.553-0.704"/>
		<path fill="none" stroke="#FFFFFF" stroke-linecap="round" stroke-linejoin="round" stroke-miterlimit="10" d="M489.416,300.02
			c0.736-0.201,1.815-0.877,2.436,0.008c0.292,0.415-0.035,0.965-0.411,1.212c-0.44,0.291-1.144,0.313-1.607,0.508"/>
		<path fill="none" stroke="#FFFFFF" stroke-linecap="round" stroke-linejoin="round" stroke-miterlimit="10" d="M489.076,298.423
			c0.477-0.31,1.205-0.492,1.771-0.416"/>
		<path fill="none" stroke="#FFFFFF" stroke-linecap="round" stroke-linejoin="round" stroke-miterlimit="10" d="M490.117,303.191
			c0.568,0.021,1.157-0.054,1.721-0.116c0.377-0.04,0.876-0.124,1.018-0.526c0.209-0.59-0.337-1.513-0.881-1.75"/>
		<path fill="none" stroke="#FFFFFF" stroke-linecap="round" stroke-linejoin="round" stroke-miterlimit="10" d="M490.988,305.201
			c0.605-0.021,1.386-0.73,1.726-1.225c0.256-0.37,0.148-0.629-0.137-0.928"/>
		<path fill="none" stroke="#FFFFFF" stroke-linecap="round" stroke-linejoin="round" stroke-miterlimit="10" d="M491.198,306.428
			c0.674,0.07,1.402-0.128,2.069-0.187c0.627-0.056,0.519,0.432,0.696,0.887c-0.133,0.367-0.146,0.733-0.604,0.88
			c-0.495,0.16-1.13,0.033-1.634,0.09"/>
		<path fill="none" stroke="#FFFFFF" stroke-linecap="round" stroke-linejoin="round" stroke-miterlimit="10" d="M486.803,301.796
			c0.1,0.254,0.379,0.433,0.514,0.673c0.175,0.312-0.017,0.418-0.146,0.729c-0.197,0.468,0.227,0.777,0.287,1.253
			c0.034,0.273,0.054,0.476,0.045,0.74c-0.011,0.356,0.176,0.547,0.322,0.865c0.251,0.548,0.584,2.225,0.703,2.443
			c0.16,0.293,0.1,0.476,0.063,0.793c-0.077,0.669,0.453,0.981,0.668,1.542c0.259,0.678-0.192,0.937-0.717,1.255
			c-0.189,0.114-0.967,0.669-1.117,0.594"/>
		<path fill="none" stroke="#FFFFFF" stroke-linecap="round" stroke-linejoin="round" stroke-miterlimit="10" d="M486.59,310.805
			c0.645-0.137,1.29-0.289,1.935-0.277"/>
		<path fill="none" stroke="#FFFFFF" stroke-linecap="round" stroke-linejoin="round" stroke-miterlimit="10" d="M489.283,300.503
			c0.444,0.437,0.571,1.37,0.718,1.971c0.091,0.368,0.131,0.692,0.007,1.048c-0.117,0.341-0.075,0.62-0.457,0.731
			c-0.429,0.127-0.913,0.18-1.3,0.415c-0.165,0.101-0.256,0.225-0.425,0.255"/>
		<path fill="none" stroke="#FFFFFF" stroke-linecap="round" stroke-linejoin="round" stroke-miterlimit="10" d="M489.96,304.505
			c0.487,0.135,1.698,1.407,0.942,1.784c-0.188,0.095-0.61,0.044-0.831,0.052c-0.365,0.012-0.68,0.002-1.018,0.167
			c-0.215,0.104-0.41,0.321-0.608,0.368"/>
		<path fill="none" stroke="#FFFFFF" stroke-linecap="round" stroke-linejoin="round" stroke-miterlimit="10" d="M489.655,310.886
			c0.627-0.171,1.645-0.623,1.916-1.283c0.233-0.564,0.055-1.025-0.249-1.504"/>
		<path fill="none" stroke="#FFFFFF" stroke-linecap="round" stroke-linejoin="round" stroke-miterlimit="10" d="M489.084,308.851
			c0.559-0.312,1.987-0.262,2.264-1.008c0.153-0.414-0.265-1.122-0.509-1.456"/>
		<path fill="none" stroke="#FFFFFF" stroke-linecap="round" stroke-linejoin="round" stroke-miterlimit="10" d="M487.632,306.916
			c-0.664,0.155-1.282,0.283-1.923,0.515c-0.226,0.082-0.581,0.203-0.748-0.062c-0.171-0.271,0.014-0.854-0.033-1.149
			c-0.027-0.184-0.106-0.438-0.254-0.572"/>
		<path fill="none" stroke="#FFFFFF" stroke-linecap="round" stroke-linejoin="round" stroke-miterlimit="10" d="M486.664,303.537
			c-0.735-0.038-1.674-0.084-2.28,0.465c-0.213-0.223-0.116-0.681-0.182-0.967c-0.077-0.354-0.171-0.673-0.475-0.824
			c-0.792-0.396-1.782,0.342-2.347,0.846"/>
		<path fill="none" stroke="#FFFFFF" stroke-linecap="round" stroke-linejoin="round" stroke-miterlimit="10" d="M483.804,301.248
			c0.008,0.155,0.03,0.34,0.08,0.496"/>
		<path fill="none" stroke="#FFFFFF" stroke-linecap="round" stroke-linejoin="round" stroke-miterlimit="10" d="M487.062,305.243
			c-0.813,0.123-1.656,0.341-2.428,0.326c-0.32-0.007-0.565,0.033-0.859,0.159c-0.394,0.17-0.843,0.512-1.285,0.47
			c-0.888-0.081-0.801-0.849-0.933-1.516c-0.184-0.925-1.264-0.219-1.857-0.086c0.028,0,0.056,0.004,0.082,0.017"/>
		<path fill="none" stroke="#FFFFFF" stroke-linecap="round" stroke-linejoin="round" stroke-miterlimit="10" d="M482.1,304.354
			c0.503-0.199,0.857-0.365,1.406-0.371"/>
		<path fill="none" stroke="#FFFFFF" stroke-linecap="round" stroke-linejoin="round" stroke-miterlimit="10" d="M484.502,305.274
			c0.053-0.211-0.113-0.91-0.28-1.124"/>
		<path fill="none" stroke="#FFFFFF" stroke-linecap="round" stroke-linejoin="round" stroke-miterlimit="10" d="M481.299,303.778
			c0.044-0.245,0.036-0.819-0.114-1.029"/>
		<path fill="none" stroke="#FFFFFF" stroke-linecap="round" stroke-linejoin="round" stroke-miterlimit="10" d="M480.107,306.103
			c0.422-0.163,0.965-0.296,1.419-0.222"/>
		<path fill="none" stroke="#FFFFFF" stroke-linecap="round" stroke-linejoin="round" stroke-miterlimit="10" d="M480.524,307.831
			c0.376-0.192,0.742-0.236,1.159-0.3c0.426-0.065,0.314-0.039,0.65,0.241c0.315,0.265,0.66,0.146,1.058,0.102
			c0.382-0.042,0.777-0.047,1.11-0.254"/>
		<path fill="none" stroke="#FFFFFF" stroke-linecap="round" stroke-linejoin="round" stroke-miterlimit="10" d="M482.71,308.417
			c0.045,0.479,0.228,0.92,0.696,0.967c0.404,0.041,0.9,0.021,1.301-0.056c0.217-0.041,0.65-0.188,0.753-0.436
			c0.108-0.259-0.11-0.783-0.204-1.018"/>
		<path fill="none" stroke="#FFFFFF" stroke-linecap="round" stroke-linejoin="round" stroke-miterlimit="10" d="M482.192,307.345
			c-0.068-0.222-0.084-0.859,0.101-1.06"/>
		<path fill="none" stroke="#FFFFFF" stroke-linecap="round" stroke-linejoin="round" stroke-miterlimit="10" d="M481.027,309.564
			c0.533-0.14,1.034-0.275,1.584-0.128"/>
		<path fill="none" stroke="#FFFFFF" stroke-linecap="round" stroke-linejoin="round" stroke-miterlimit="10" d="M483.351,309.584
			c-0.401,0.256-0.088,1.189,0.287,1.367c0.357,0.17,0.847-0.045,1.189-0.115c0.206-0.043,0.645-0.202,0.828-0.124"/>
		<path fill="none" stroke="#FFFFFF" stroke-linecap="round" stroke-linejoin="round" stroke-miterlimit="10" d="M483.743,311.375
			c-0.071,0.274-0.169,0.966,0.053,1.186c0.15,0.149,0.369,0.099,0.577,0.071c0.397-0.056,1.163-0.19,1.5-0.416"/>
		<path fill="none" stroke="#FFFFFF" stroke-linecap="round" stroke-linejoin="round" stroke-miterlimit="10" d="M484.244,313.15
			c-0.329,0.454-0.16,1.355,0.504,1.255c0.566-0.086,1.266-0.619,1.822-0.51"/>
		<path fill="none" stroke="#FFFFFF" stroke-linecap="round" stroke-linejoin="round" stroke-miterlimit="10" d="M481.562,311.512
			c0.51-0.363,1.257-0.098,1.788-0.351"/>
		<path fill="none" stroke="#FFFFFF" stroke-linecap="round" stroke-linejoin="round" stroke-miterlimit="10" d="M482.006,313.136
			c0.366-0.128,0.869-0.099,1.242-0.104"/>
		<path fill="none" stroke="#FFFFFF" stroke-linecap="round" stroke-linejoin="round" stroke-miterlimit="10" d="M482.833,314.779
			c0.396-0.152,0.815-0.641,1.226-0.571"/>
		<path fill="none" stroke="#FFFFFF" stroke-linecap="round" stroke-linejoin="round" stroke-miterlimit="10" d="M488.565,340.704
			c0.38,0.504,2.45,0.353,2.333-0.507c0.522,0.194,0.979,0.105,1.456-0.141c0.216-0.111,0.387-0.229,0.512-0.438
			c0.071-0.118,0.035-0.215,0.144-0.312c0.564,0.382,1.41,0.769,2.068,0.572c0.515-0.154,0.896-0.082,0.919-0.685
			c0.872,0.646,1.917-0.161,2.47-0.887c0.484-0.633,0.307-1.506-0.189-2.066"/>
		<path fill="none" stroke="#FFFFFF" stroke-linecap="round" stroke-linejoin="round" stroke-miterlimit="10" d="M496.223,339.904
			c-0.307,0.351,0.143,1.194,0.34,1.513c0.153,0.245,0.37,0.451,0.565,0.669"/>
		<path fill="none" stroke="#FFFFFF" stroke-linecap="round" stroke-linejoin="round" stroke-miterlimit="10" d="M497.913,339.399
			c0.611,0.597,2.032,0.515,2.629-0.093"/>
		<path fill="none" stroke="#FFFFFF" stroke-linecap="round" stroke-linejoin="round" stroke-miterlimit="10" d="M499.655,341.477
			c0.231-0.158,0.035-1.074-0.141-1.33"/>
		<path fill="none" stroke="#FFFFFF" stroke-linecap="round" stroke-linejoin="round" stroke-miterlimit="10" d="M499.121,337.184
			c0.389,0.313,1.326,0.052,1.638-0.296"/>
		<path fill="none" stroke="#FFFFFF" stroke-linecap="round" stroke-linejoin="round" stroke-miterlimit="10" d="M491.584,340.504
			c0.085,0.689,0.45,1.299,1.101,1.604c0.479,0.225,0.98,0.484,1.51,0.316c0.683-0.219,1.739-1.469,1.244-2.223"/>
		<path fill="none" stroke="#FFFFFF" stroke-linecap="round" stroke-linejoin="round" stroke-miterlimit="10" d="M494.703,343.532
			c-0.262-0.29-0.433-0.707-0.695-0.955"/>
		<path fill="none" stroke="#FFFFFF" stroke-linecap="round" stroke-linejoin="round" stroke-miterlimit="10" d="M487.941,338.473
			c0.704,0.031,1.753,0.067,2.047-0.731c0.262,0.134,0.41,0.353,0.709,0.335c0.224-0.012,0.497-0.164,0.688-0.272
			c0.196-0.109,0.587-0.297,0.544-0.567c0.249,0.025,0.431,0.396,0.731,0.468c0.357,0.086,0.833,0.111,1.198,0.077
			c0.38-0.036,0.77-0.297,0.972-0.635c0.838,0.412,1.735,0.343,2.504-0.228c0.524-0.392,0.776-0.65,0.809-1.284
			c0.472,0.004,1.142-0.249,1.315-0.737"/>
		<path fill="none" stroke="#FFFFFF" stroke-linecap="round" stroke-linejoin="round" stroke-miterlimit="10" d="M493.091,339.072
			c-0.177-0.253-0.328-0.806-0.175-1.098"/>
		<path fill="none" stroke="#FFFFFF" stroke-linecap="round" stroke-linejoin="round" stroke-miterlimit="10" d="M495.886,339.033
			c-0.262-0.35-0.459-0.945-0.246-1.358"/>
		<path fill="none" stroke="#FFFFFF" stroke-linecap="round" stroke-linejoin="round" stroke-miterlimit="10" d="M490.604,340.089
			c-0.362-0.443-0.563-1.237-0.373-1.77"/>
		<path fill="none" stroke="#FFFFFF" stroke-linecap="round" stroke-linejoin="round" stroke-miterlimit="10" d="M489.938,337.451
			c-0.164-0.52-0.54-1.198-0.192-1.655c-0.151-0.097-0.354-0.041-0.526-0.178c-0.251-0.201-0.392-0.707-0.345-1.011
			c0.031-0.195,0.236-0.453,0.143-0.678c-0.066-0.16-0.229-0.184-0.355-0.287c-0.128-0.107-0.23-0.266-0.344-0.388
			c-0.489,0.396-1.206,0.352-1.763,0.515"/>
		<path fill="none" stroke="#FFFFFF" stroke-linecap="round" stroke-linejoin="round" stroke-miterlimit="10" d="M487.395,336.374
			c0.448,0.324,1.255-0.121,1.6-0.425"/>
		<path fill="none" stroke="#FFFFFF" stroke-linecap="round" stroke-linejoin="round" stroke-miterlimit="10" d="M498.039,335.118
			c-0.193-0.202-0.338-0.445-0.541-0.642c-0.538,0.458-1.063,0.542-1.746,0.609c-0.525,0.052-1.086,0.272-1.543-0.09
			c-0.307-0.241-0.387-0.456-0.195-0.756c0.303-0.476,0.215-0.913,0.152-1.439c0.981,0.313,2.985,0.388,2.95-1.079
			c-0.01-0.386-0.104-0.265-0.388-0.473c-0.18-0.132-0.324-0.341-0.4-0.55c-0.107-0.295,0.085-0.67-0.085-0.926
			c0.42,0.017,0.821,0.149,1.237-0.025c0.379-0.159,0.676-0.519,0.979-0.79"/>
		<path fill="none" stroke="#FFFFFF" stroke-linecap="round" stroke-linejoin="round" stroke-miterlimit="10" d="M499.306,330.668
			c-0.236,0.557-1.317,0.698-1.827,0.667"/>
		<path fill="none" stroke="#FFFFFF" stroke-linecap="round" stroke-linejoin="round" stroke-miterlimit="10" d="M500.071,333.055
			c-0.485,0.278-1.733,0.669-2.234,0.306"/>
		<path fill="none" stroke="#FFFFFF" stroke-linecap="round" stroke-linejoin="round" stroke-miterlimit="10" d="M497.43,334.169
			c0.227-0.22-0.123-1.19-0.328-1.404"/>
		<path fill="none" stroke="#FFFFFF" stroke-linecap="round" stroke-linejoin="round" stroke-miterlimit="10" d="M494.612,335.402
			c-0.14,0.437-0.325,0.905,0.038,1.26"/>
		<path fill="none" stroke="#FFFFFF" stroke-linecap="round" stroke-linejoin="round" stroke-miterlimit="10" d="M492.278,337.13
			c-0.081-0.431-0.047-1.011-0.015-1.471c0.009-0.155,0.038-0.35,0.094-0.49c0.044-0.115,0.166-0.18,0.148-0.314
			c-0.025-0.2-0.541-0.584-0.673-0.744c-0.159-0.196-0.343-0.442-0.415-0.675c-0.102-0.327-0.136-0.64,0.083-0.903
			c0.69,0.234,1.543,0.551,2.066-0.203c0.197-0.284,0.189-0.76,0.156-1.085c0.398-0.046,0.761,0.16,1.195,0.08
			c0.306-0.057,0.784-0.072,1-0.329"/>
		<path fill="none" stroke="#FFFFFF" stroke-linecap="round" stroke-linejoin="round" stroke-miterlimit="10" d="M489.436,333.734
			c0.369,0.199,1.054-0.143,1.363-0.373"/>
		<path fill="none" stroke="#FFFFFF" stroke-linecap="round" stroke-linejoin="round" stroke-miterlimit="10" d="M489.854,335.867
			c0.549,0.329,1.371,0.057,1.809-0.327"/>
		<path fill="none" stroke="#FFFFFF" stroke-linecap="round" stroke-linejoin="round" stroke-miterlimit="10" d="M492.76,334.961
			c0.243,0.119,0.707-0.017,0.887-0.229"/>
		<path fill="none" stroke="#FFFFFF" stroke-linecap="round" stroke-linejoin="round" stroke-miterlimit="10" d="M488.901,327.095
			c0.343,0.376,0.603,0.867,0.93,1.268c-0.192,0.351-0.435,0.734-0.416,1.156c0.024,0.577,0.549,0.863,0.785,1.331
			c-0.357,0.449-1.148,1.125-1.777,1.054c-0.669-0.075-1.249-0.921-1.258-1.544c-0.009-0.563,0.225-0.444-0.295-0.769
			c-0.399-0.248-0.349-0.716-0.446-1.119c0.149-0.182,0.378-0.174,0.593-0.249c0.306-0.108,0.562-0.281,0.807-0.485
			c0.362-0.3,0.704-0.605,0.938-1.009c-0.246-0.365-0.784-0.63-0.838-1.123c-0.028-0.259,0.078-0.19-0.118-0.423
			c-0.23-0.271-0.657-0.428-0.675-0.839c-0.01-0.21,0.122-0.361,0.211-0.533c0.159-0.309,0.114-0.267-0.169-0.585
			c-0.383-0.429-1.041-1.131-0.465-1.646"/>
		<path fill="none" stroke="#FFFFFF" stroke-linecap="round" stroke-linejoin="round" stroke-miterlimit="10" d="M486.375,331.989
			c0.223-0.077,0.586-0.436,0.635-0.69"/>
		<path fill="none" stroke="#FFFFFF" stroke-linecap="round" stroke-linejoin="round" stroke-miterlimit="10" d="M488.222,332.922
			c-0.055-0.19-0.019-0.385,0.011-0.575"/>
		<path fill="none" stroke="#FFFFFF" stroke-linecap="round" stroke-linejoin="round" stroke-miterlimit="10" d="M487.666,329.82
			c0.346,0.266,1.076,0.078,1.395-0.158"/>
		<path fill="none" stroke="#FFFFFF" stroke-linecap="round" stroke-linejoin="round" stroke-miterlimit="10" d="M490.196,330.342
			c0.909,0.51,1.966-0.419,2.595-0.992c-0.166-0.328-0.168-0.697-0.288-1.038c-0.062-0.179-0.265-0.396-0.259-0.589
			c0.012-0.414,0.754-0.284,1.048-0.306c0.573-0.044,1.219,0.147,1.648-0.354c0.293-0.341,0.265-0.523,0.182-0.936
			c-0.07-0.35-0.207-0.485-0.407-0.761c-0.229-0.314,0.001-0.583-0.121-0.946c-0.114-0.342-0.295-0.551-0.538-0.826
			c-0.114-0.128-0.161-0.187-0.182-0.321c-0.027-0.183,0.052-0.426,0.005-0.64c0.213-0.061,0.437-0.009,0.659-0.092
			c0.148-0.055,0.303-0.129,0.441-0.209c0.192-0.11,0.368-0.279,0.556-0.379"/>
		<path fill="none" stroke="#FFFFFF" stroke-linecap="round" stroke-linejoin="round" stroke-miterlimit="10" d="M493.463,331.053
			c-0.063-0.303-0.284-0.516-0.347-0.817c-0.034-0.166,0.014-0.38-0.08-0.523c0.076-0.103,0.091-0.035,0.201-0.064
			c0.281-0.072,0.696,0.087,1.02,0.016c0.458-0.1,0.939-0.457,1.231-0.829c0.205-0.261,0.123-0.713,0.003-1.021
			c0.648,0.188,0.991,0.239,1.646-0.042c0.329-0.145,0.576-0.331,0.843-0.567"/>
		<path fill="none" stroke="#FFFFFF" stroke-linecap="round" stroke-linejoin="round" stroke-miterlimit="10" d="M497.814,325.532
			c-0.656-0.57-1.778-0.026-2.406,0.339"/>
		<path fill="none" stroke="#FFFFFF" stroke-linecap="round" stroke-linejoin="round" stroke-miterlimit="10" d="M494.919,324.287
			c0.633,0.226,1.317-0.06,1.776-0.501"/>
		<path fill="none" stroke="#FFFFFF" stroke-linecap="round" stroke-linejoin="round" stroke-miterlimit="10" d="M490.252,331.262
			c0.222,0.514,0.546,0.864,0.937,1.225"/>
		<path fill="none" stroke="#FFFFFF" stroke-linecap="round" stroke-linejoin="round" stroke-miterlimit="10" d="M491.921,328.027
			c-0.586,0.072-1.152,0.049-1.704-0.008"/>
		<path fill="none" stroke="#FFFFFF" stroke-linecap="round" stroke-linejoin="round" stroke-miterlimit="10" d="M492.468,327.012
			c0.142-0.239,0.205-0.821-0.052-1.005c-0.377-0.272-0.833-0.239-0.897-0.805c-0.02-0.18,0.102-0.541,0.032-0.695
			c-0.101-0.225-0.466-0.248-0.609-0.458c-0.265-0.385-0.103-1.037-0.233-1.484c0.607-0.314,1.508-0.146,2.126-0.467
			c0.473-0.246,0.617-0.717,0.463-1.211c-0.041-0.136-0.141-0.226-0.234-0.328c-0.262-0.287-0.327-0.429-0.312-0.834
			c0.006-0.171,0.15-0.537,0.104-0.678c-0.056-0.165-0.436-0.439-0.56-0.569c-0.355,0.152-0.778,0.173-1.158,0.236
			c-0.358,0.06-0.72,0.207-1.08,0.218c-0.483,0.013-0.785-0.293-0.829-0.756c-0.012-0.134,0.044-0.421-0.012-0.534
			c-0.065-0.131-0.428-0.259-0.57-0.396c-0.405-0.39-0.554-1.003-0.4-1.53c-0.467,0.084-0.965,0.094-1.436,0.114
			c-0.379,0.015-0.963,0.145-1.332,0.019c-0.224-0.076-0.465-0.358-0.598-0.545c-0.213-0.302-0.066-0.315,0.049-0.621"/>
		<path fill="none" stroke="#FFFFFF" stroke-linecap="round" stroke-linejoin="round" stroke-miterlimit="10" d="M482.989,316.217
			c0.328,0.369,1.54,0.255,1.862-0.134"/>
		<path fill="none" stroke="#FFFFFF" stroke-linecap="round" stroke-linejoin="round" stroke-miterlimit="10" d="M485.091,316.396
			c-0.511,0.871,0.771,1.291,0.826,1.991c0.026,0.333-0.292,1.046-0.554,1.153c-0.112,0.048-0.358-0.025-0.494-0.007
			c-0.157,0.021-0.295,0.078-0.444,0.128c-0.148,0.049-0.328,0.158-0.459,0.17"/>
		<path fill="none" stroke="#FFFFFF" stroke-linecap="round" stroke-linejoin="round" stroke-miterlimit="10" d="M483.428,317.968
			c0.262,0.058,0.644-0.229,0.946-0.251c0.27-0.022,0.446,0.141,0.7,0.149"/>
		<path fill="none" stroke="#FFFFFF" stroke-linecap="round" stroke-linejoin="round" stroke-miterlimit="10" d="M486.245,317.908
			c0.513,0.198,1.431-0.383,1.83-0.711"/>
		<path fill="none" stroke="#FFFFFF" stroke-linecap="round" stroke-linejoin="round" stroke-miterlimit="10" d="M485.964,318.767
			c0.062,0.265-0.026,0.729,0.138,0.959c0.205,0.284,0.646,0.017,0.979-0.043c0.698-0.127,1.413-0.248,2.095-0.352
			c0.421,0.458-0.292,1.393,0.465,1.759c0.36,0.175,0.863-0.04,1.222-0.101c0.411-0.067,0.838-0.12,1.205-0.333"/>
		<path fill="none" stroke="#FFFFFF" stroke-linecap="round" stroke-linejoin="round" stroke-miterlimit="10" d="M484.363,321.537
			c0.314-0.001,0.615,0.104,0.97,0.055c0.343-0.047,0.608-0.114,0.917-0.25"/>
		<path fill="none" stroke="#FFFFFF" stroke-linecap="round" stroke-linejoin="round" stroke-miterlimit="10" d="M486.532,320.077
			c-0.263,0.402-0.146,1.164,0.236,1.527"/>
		<path fill="none" stroke="#FFFFFF" stroke-linecap="round" stroke-linejoin="round" stroke-miterlimit="10" d="M490.198,321.685
			c-0.112,0.282,0.106,0.634,0.006,0.918c-0.104,0.293-0.413,0.394-0.68,0.507c-0.6,0.251-1.319,0.446-1.96,0.33"/>
		<path fill="none" stroke="#FFFFFF" stroke-linecap="round" stroke-linejoin="round" stroke-miterlimit="10" d="M488.455,325.107
			c0.787,0.036,1.429-0.512,1.974-1"/>
		<path fill="none" stroke="#FFFFFF" stroke-linecap="round" stroke-linejoin="round" stroke-miterlimit="10" d="M489.182,326.641
			c0.741-0.096,1.317-0.655,1.853-1.136"/>
		<path fill="none" stroke="#FFFFFF" stroke-linecap="round" stroke-linejoin="round" stroke-miterlimit="10" d="M487.5,325.803
			c-0.57,0.399-1.241,0.517-1.76,1.013c-0.455,0.436-0.029,1.152,0.392,1.504c0.024-0.013,0.044-0.03,0.062-0.05"/>
		<path fill="none" stroke="#FFFFFF" stroke-linecap="round" stroke-linejoin="round" stroke-miterlimit="10" d="M485.221,324.976
			c0.669,0.076,1.107-0.187,1.742-0.269"/>
		<path fill="none" stroke="#FFFFFF" stroke-linecap="round" stroke-linejoin="round" stroke-miterlimit="10" d="M486.382,322.841
			c-0.372,0.306-1.268,0.607-1.713,0.526"/>
		<path fill="none" stroke="#FFFFFF" stroke-linecap="round" stroke-linejoin="round" stroke-miterlimit="10" d="M487.022,321.661
			c0.756,0.31,1.728,0.113,2.366-0.383"/>
		<path fill="none" stroke="#FFFFFF" stroke-linecap="round" stroke-linejoin="round" stroke-miterlimit="10" d="M488.494,315.771
			c0.525-0.09,1.051-0.099,1.548-0.312c0.127-0.055,0.378-0.265,0.49-0.266c0.41-0.01,0.704,0.654,0.875,0.913
			c-0.129,0.18-0.065,0.399-0.119,0.605c-0.022,0.086,0.064,0.142-0.021,0.218c-0.084,0.078-0.37,0.063-0.483,0.094
			c-0.574,0.157-0.991,0.456-1.423,0.843"/>
		<path fill="none" stroke="#FFFFFF" stroke-linecap="round" stroke-linejoin="round" stroke-miterlimit="10" d="M492.215,318.339
			c0.125-0.146,0.017-0.802-0.05-1.005c-0.109-0.329-0.401-0.487-0.648-0.675"/>
		<path fill="none" stroke="#FFFFFF" stroke-linecap="round" stroke-linejoin="round" stroke-miterlimit="10" d="M493.058,318.919
			c0.274,0.219,1.386-0.008,1.717-0.205"/>
		<path fill="none" stroke="#FFFFFF" stroke-linecap="round" stroke-linejoin="round" stroke-miterlimit="10" d="M493.365,320.705
			c0.511,0.288,1.406-0.077,1.812-0.413"/>
		<path fill="none" stroke="#FFFFFF" stroke-linecap="round" stroke-linejoin="round" stroke-miterlimit="10" d="M491.662,324.174
			c0.379,0.337,1.604-0.182,1.906-0.536"/>
		<path fill="none" stroke="#FFFFFF" stroke-linecap="round" stroke-linejoin="round" stroke-miterlimit="10" d="M492.697,325.915
			c0.239,0.109,0.957-0.176,1.183-0.311c0.227-0.136,0.416-0.354,0.612-0.529"/>
	</g>
</g>
</svg>
