<?xml version="1.0" encoding="utf-8"?>
<!-- Generator: Adobe Illustrator 16.0.0, SVG Export Plug-In . SVG Version: 6.00 Build 0)  -->
<!DOCTYPE svg PUBLIC "-//W3C//DTD SVG 1.1//EN" "http://www.w3.org/Graphics/SVG/1.1/DTD/svg11.dtd">
<svg version="1.1" id="Layer_1" xmlns="http://www.w3.org/2000/svg" xmlns:xlink="http://www.w3.org/1999/xlink" x="0px" y="0px"
	 width="500px" height="495px" viewBox="0 0 500 495" enable-background="new 0 0 500 495" xml:space="preserve">
<g>
	<polygon fill="none" stroke="#FFFFFF" stroke-linecap="round" stroke-linejoin="round" stroke-miterlimit="10" points="
		331.5,179.5 321.5,179.5 321.5,124.5 303.5,124.5 303.5,115.5 321.5,115.5 321.5,93.5 331.5,93.5 331.5,115.5 349.5,115.5 
		349.5,124.5 331.5,124.5 	"/>
	<polyline fill="none" stroke="#FFFFFF" stroke-linecap="round" stroke-linejoin="round" stroke-miterlimit="10" points="
		26.618,195.507 53.5,203.064 53.5,395.5 213.764,395.5 407.5,412.689 407.5,238.293 438.844,246.537 438.835,231.827 
		407.5,222.188 407.5,215.879 343.5,191.657 343.5,179.5 331.5,179.5 331.5,124.5 349.5,124.5 349.5,115.5 331.5,115.5 331.5,93.5 
		321.5,93.5 321.5,115.5 303.5,115.5 303.5,124.5 321.5,124.5 321.5,179.5 311.398,179.5 311.381,194.683 217.79,168.898 
		131.227,116.952 26.544,184.791 26.729,195.494 130.686,132.242 215.777,184.271 407.975,238.292 	"/>
	
		<rect x="168.5" y="203.5" fill="none" stroke="#FFFFFF" stroke-linecap="round" stroke-linejoin="round" stroke-miterlimit="10" width="6" height="166"/>
	
		<rect x="146.5" y="203.5" fill="none" stroke="#FFFFFF" stroke-linecap="round" stroke-linejoin="round" stroke-miterlimit="10" width="6" height="166"/>
	
		<rect x="125.5" y="203.5" fill="none" stroke="#FFFFFF" stroke-linecap="round" stroke-linejoin="round" stroke-miterlimit="10" width="6" height="166"/>
	
		<rect x="104.5" y="203.5" fill="none" stroke="#FFFFFF" stroke-linecap="round" stroke-linejoin="round" stroke-miterlimit="10" width="6" height="166"/>
	<polyline fill="none" stroke="#FFFFFF" stroke-linecap="round" stroke-linejoin="round" stroke-miterlimit="10" points="53.5,167 
		53.5,148.193 103.939,120.526 103.903,98.382 131.5,91.336 131.5,34.5 113.5,34.5 113.5,24.5 131.5,24.5 131.5,2.5 142.5,2.5 
		142.5,24.5 160.5,24.5 160.5,34.5 142.5,34.5 142.5,90.718 170.5,98.382 170.5,120.811 217.5,150.723 217.5,169 	"/>
	
		<rect x="82.5" y="203.5" fill="none" stroke="#FFFFFF" stroke-linecap="round" stroke-linejoin="round" stroke-miterlimit="10" width="6" height="166"/>
	<polygon fill="none" stroke="#FFFFFF" stroke-linecap="round" stroke-linejoin="round" stroke-miterlimit="10" points="
		266.5,375.883 266.5,214.677 270.5,215.929 270.5,376.266 	"/>
	<polygon fill="none" stroke="#FFFFFF" stroke-linecap="round" stroke-linejoin="round" stroke-miterlimit="10" points="
		249.5,374.154 249.5,209.12 252.5,210.372 252.5,374.538 	"/>
	<polygon fill="none" stroke="#FFFFFF" stroke-linecap="round" stroke-linejoin="round" stroke-miterlimit="10" points="
		282.5,377.416 282.5,219.273 287.5,220.528 287.5,377.802 	"/>
	<polygon fill="none" stroke="#FFFFFF" stroke-linecap="round" stroke-linejoin="round" stroke-miterlimit="10" points="
		301.5,379.145 301.5,224.355 305.5,225.615 305.5,379.529 	"/>
	<polygon fill="none" stroke="#FFFFFF" stroke-linecap="round" stroke-linejoin="round" stroke-miterlimit="10" points="
		317.5,380.678 317.5,229.138 321.5,230.402 321.5,381.067 	"/>
	<polygon fill="none" stroke="#FFFFFF" stroke-linecap="round" stroke-linejoin="round" stroke-miterlimit="10" points="
		333.5,382.214 333.5,233.436 337.5,234.705 337.5,382.603 	"/>
	<polygon fill="none" stroke="#FFFFFF" stroke-linecap="round" stroke-linejoin="round" stroke-miterlimit="10" points="
		351.5,383.941 351.5,238.53 355.5,239.805 355.5,384.331 	"/>
	<polygon fill="none" stroke="#FFFFFF" stroke-linecap="round" stroke-linejoin="round" stroke-miterlimit="10" points="
		368.5,385.474 368.5,243.111 372.5,244.391 372.5,385.868 	"/>
	<polygon fill="none" stroke="#FFFFFF" stroke-linecap="round" stroke-linejoin="round" stroke-miterlimit="10" points="
		384.5,387.011 384.5,247.467 388.5,248.755 388.5,387.402 	"/>
	<g>
		<path fill="none" stroke="#FFFFFF" stroke-linecap="round" stroke-linejoin="round" stroke-miterlimit="10" d="M386.5,429.11
			v-18.401l21,1.98v14.51C400.5,427.658,393.5,428.286,386.5,429.11z"/>
	</g>
	<g>
		<path fill="none" stroke="#FFFFFF" stroke-linecap="round" stroke-linejoin="round" stroke-miterlimit="10" d="M53.5,410.439
			V395.5h23v19.023C67.5,412.695,60.5,411.368,53.5,410.439z"/>
	</g>
	<path fill="none" stroke="#FFFFFF" stroke-linecap="round" stroke-linejoin="round" stroke-miterlimit="10" d="M5.407,409.582
		c0,0,77.526-12.991,164.068,47.134c0,0,28.99,22.16,61.638,30.867"/>
	<g>
		<polygon fill="none" stroke="#FFFFFF" stroke-linecap="round" stroke-linejoin="round" stroke-miterlimit="10" points="
			321.5,437.792 321.5,404.946 343.5,406.929 343.5,434.118 		"/>
	</g>
	<g>
		<polygon fill="none" stroke="#FFFFFF" stroke-linecap="round" stroke-linejoin="round" stroke-miterlimit="10" points="256.5,443 
			256.5,399.188 278.5,401.166 278.5,442.05 		"/>
	</g>
	<g>
		<polygon fill="none" stroke="#FFFFFF" stroke-linecap="round" stroke-linejoin="round" stroke-miterlimit="10" points="
			192.5,442.576 192.5,395.5 215.5,395.5 215.5,443.2 		"/>
	</g>
	<path fill="none" stroke="#FFFFFF" stroke-linecap="round" stroke-linejoin="round" stroke-miterlimit="10" d="M494.594,430.445
		c0,0-53.683-12.164-148.971,4.293c-95.288,16.456-203.997,4.293-203.997,4.293"/>
</g>
</svg>
