<?xml version="1.0" encoding="utf-8"?>
<!-- Generator: Adobe Illustrator 16.0.0, SVG Export Plug-In . SVG Version: 6.00 Build 0)  -->
<!DOCTYPE svg PUBLIC "-//W3C//DTD SVG 1.1//EN" "http://www.w3.org/Graphics/SVG/1.1/DTD/svg11.dtd">
<svg version="1.1" id="Layer_1" xmlns="http://www.w3.org/2000/svg" xmlns:xlink="http://www.w3.org/1999/xlink" x="0px" y="0px"
	 width="298px" height="442px" viewBox="0 0 298 442" enable-background="new 0 0 298 442" xml:space="preserve">
<g>
	<g>
		<path fill="none" stroke="#FFFFFF" stroke-linecap="round" stroke-linejoin="round" stroke-miterlimit="10" d="M47.964,436.123
			c0,0,2.655-1.066,18.133-32.188c0,0,7.376-17.292,43.812-27.53c0,0,38.904-9.537,50.181-10.034
			c9.031-0.396,28.994-9.009,70.334,29.69c0,0-2.071-15.033-21.875-25.366c-19.801-10.331-29.368-10.012-32.026-11.146
			c-2.662-1.136-11.853-0.969-17.283-2.97c-5.434-2.005-8.463,3.62-11.348,3.02c-2.889-0.604-15.839-2.672-23.806,2.736
			c-7.964,5.403-20,5.614-23.415,6.985c-3.416,1.372-13.25,1.581-22.768,9.154c-9.519,7.57-13.347,10.649-13.347,10.649"/>
		<path fill="none" stroke="#FFFFFF" stroke-linecap="round" stroke-linejoin="round" stroke-miterlimit="10" d="M84.308,344.899
			c0,0-4.28-10.479-2.162-16.181c2.115-5.698,0.211-9.342,0.211-9.342c-5.298-12.638,0.335-26.578,0.335-26.578
			s7.002-23.975-4.532-29.916c-7.781-4.009-12.446-17.256-15.454-21.996c-3.006-4.741-8.406-8.304-14.329-7.686
			c-5.922,0.616-11.508-1.77-11.508-1.77c-18.926-8.696-29.648,4.646-29.648,4.646c7.132-4.189,20.224-3.716,26.769-1.395
			c6.554,2.324,29.948,15.841,29.203,24.957c-0.743,9.111,0.761,23.274,6.202,29.683c5.443,6.406,7.116,20.086,7.116,20.086
			s0.793,7.812-3.989,10.173c-4.779,2.361-2.061,15.152,1.525,25.17c3.585,10.021-14.91,53.375-25.279,72.532l-7.916,12.658"/>
		<path fill="none" stroke="#FFFFFF" stroke-linecap="round" stroke-linejoin="round" stroke-miterlimit="10" d="M77.094,373.726
			c0,0,4.761-13.815-3.345-29.809"/>
		<path fill="none" stroke="#FFFFFF" stroke-linecap="round" stroke-linejoin="round" stroke-miterlimit="10" d="M80.294,353.607
			l17.397-37.748c0,0,1.335-8.354,0.936-19.881c0,0,1.526-22.928-9.227-31.995c-10.75-9.067-4.046-18.702-2.038-25.626
			c2.013-6.924-9.451-14.879-9.451-14.879s-3.394-3.098-1.932-14.264c1.462-11.166-18.092-5.125-23.116-46.411
			c-5.026-41.285-47.4-39.789-47.4-39.789s19.634-9.546,54.432,22.747c34.8,32.292,19.836,41.944,32.076,54.711
			c12.237,12.767,13.835,31.131,15.125,36.398c1.292,5.266-7.476,32.398-1.038,42.235c5.138,7.852,5.777,15.781,5.777,15.781"/>
		<path fill="none" stroke="#FFFFFF" stroke-linecap="round" stroke-linejoin="round" stroke-miterlimit="10" d="M80.844,376.358
			c0,0,16.558-29.97,29.194-34.718c12.637-4.75,56.992-29.688,96.539-18.479c39.549,11.21,45.963,16.069,70.904,28.359
			c0,0-4.289-9.848-14.266-14.104c-9.975-4.254-13.314-9.688-18.188-11.531s-16.782-4.327-27.272-10.688
			c-10.489-6.362-27.292-6.219-35.571-1.731c-8.279,4.482-23.043-1.814-35.483-0.284c-12.444,1.531-47.909,12.812-55.799,28.547"/>
		<path fill="none" stroke="#FFFFFF" stroke-linecap="round" stroke-linejoin="round" stroke-miterlimit="10" d="M119.825,284.979
			c0,0,8.503-7.023,19.449-9.603"/>
		<path fill="none" stroke="#FFFFFF" stroke-linecap="round" stroke-linejoin="round" stroke-miterlimit="10" d="M107.749,325.45"/>
		<path fill="none" stroke="#FFFFFF" stroke-linecap="round" stroke-linejoin="round" stroke-miterlimit="10" d="M107.026,327.144
			c0,0,21.247-45.911,28.364-49.909c12.405-6.969,27.531-4.289,33.809-14.582c6.275-10.29,19.086-13.786,22.729-14.589
			c3.645-0.806,21.229-10.519,26.855-17.077s12.588-0.762,19.164-1.255c6.576-0.496,37.32-9.55,54.591,31.772
			c0,0-0.929-15.511-12.425-23.939c-11.494-8.428-14.541-7.367-23.549-13.334c-9.014-5.967-21.82-2.471-36.211-7.428
			c-14.392-4.961-24.383-1.44-36.844,4.561c-12.465,6.003-16.627,3.046-24.011,15.934c-7.382,12.883-20.377,19.025-20.377,19.025"/>
		<path fill="none" stroke="#FFFFFF" stroke-linecap="round" stroke-linejoin="round" stroke-miterlimit="10" d="M110.675,289.231
			c0,0,21.795-37.767,16.331-68.626c-5.462-30.862-12.532-48.561-16.106-58.425c-3.574-9.863-12.578-12.524-16.862-20.719
			c-4.286-8.194,1.059-30.675-5.478-39.12c0,0-5.483-8.705-10.779-25.585c-5.297-16.879-0.674-27.168-10.103-46.518
			c0,0,38.122,45.501,53.23,104.056c0,0,4.678,21.097,16.12,51.207c0,0,14.671,35.26-1.555,57.813"/>
		<path fill="none" stroke="#FFFFFF" stroke-linecap="round" stroke-linejoin="round" stroke-miterlimit="10" d="M140.233,195.492
			c0,0,1.846-8.012,7.521-18c5.677-9.987-0.146-16.243-1.664-22.078c-1.519-5.836,1.593-18.656,8.399-34.616
			c6.81-15.96,9.816-56.178,12.603-75.975c0,0,7.61,28.27,5.253,42.76"/>
		<path fill="none" stroke="#FFFFFF" stroke-linecap="round" stroke-linejoin="round" stroke-miterlimit="10" d="M132.97,263.899
			c7.137-7.33,30.41-39.568,34.387-62.159c3.979-22.59,8.912-35.812,11.653-46.667c2.745-10.856,25.265-49.824,29.285-62.019
			c4.022-12.197,13.176-56.866,16.81-64.277c3.633-7.411-22.017,35.829-32.979,46.243"/>
		<path fill="none" stroke="#FFFFFF" stroke-linecap="round" stroke-linejoin="round" stroke-miterlimit="10" d="M145.726,152.533
			c1.178-16.525,20.572-38.96,23.465-45.742c2.896-6.784,1.99-34.521,13.36-47.354c11.37-12.837,32.8-55.334,32.8-55.334
			s-11.285,28.667-12.951,36.445c-1.668,7.777-4.283,21.28-8.336,28.748c-4.049,7.47-3.139,24.128-3.465,33.185
			c-0.326,9.058-0.447,24.331-11.682,41.233c-11.232,16.902-7.342,25.802-21.66,46.879"/>
	</g>
	<g>
		<path fill="none" stroke="#FFFFFF" stroke-linecap="round" stroke-linejoin="round" stroke-miterlimit="10" d="M172.801,215.676
			c-1.829-3.517-0.062-13.804,9.656-24.339c9.718-10.54,36.632-57.805,36.632-57.805s-25.363,29.281-31.545,35.729
			c-6.186,6.453-20.822,28.175-19.385,36.474S172.801,215.676,172.801,215.676z"/>
		<path fill="none" stroke="#FFFFFF" stroke-linecap="round" stroke-linejoin="round" stroke-miterlimit="10" d="M217.366,136.532
			c0,0,13.559-11.009,19.305-16.387c5.745-5.379-16.371,19.002-23.633,23.837"/>
		<path fill="none" stroke="#FFFFFF" stroke-linecap="round" stroke-linejoin="round" stroke-miterlimit="10" d="M173.331,206.046
			c-0.838,2.217,2.479,7.482,2.479,7.482s-2.768-0.265-3.625-1.888"/>
		<path fill="none" stroke="#FFFFFF" stroke-linecap="round" stroke-linejoin="round" stroke-miterlimit="10" d="M176.187,217.573
			c3.912,0.621,13.11-4.315,20.024-16.87c6.917-12.556,43.22-53.062,43.22-53.062s-19.738,33.334-23.895,41.242
			c-4.157,7.911-20.123,28.678-28.451,29.944C178.759,220.092,176.187,217.573,176.187,217.573z"/>
		<path fill="none" stroke="#FFFFFF" stroke-linecap="round" stroke-linejoin="round" stroke-miterlimit="10" d="M237.13,150.225
			c0,0,6.145-16.348,9.424-23.503c3.281-7.153-12.835,21.551-15.117,29.967"/>
		<path fill="none" stroke="#FFFFFF" stroke-linecap="round" stroke-linejoin="round" stroke-miterlimit="10" d="M185.153,214.02
			c-1.838,1.498-7.881,0.019-7.881,0.019s1.123,2.544,2.938,2.843"/>
		<path fill="none" stroke="#FFFFFF" stroke-linecap="round" stroke-linejoin="round" stroke-miterlimit="10" d="M171.917,225.812
			c0,0,1.947-4.642,3.34-4.685c0.824-0.022,2.702-0.55,3.18-2.432"/>
		<path fill="none" stroke="#FFFFFF" stroke-linecap="round" stroke-linejoin="round" stroke-miterlimit="10" d="M170.149,212.463
			c0,0-2.32,1.705-1.951,3.648c0.369,1.945-14.975,29.568-14.975,29.568"/>
		<path fill="none" stroke="#FFFFFF" stroke-linecap="round" stroke-linejoin="round" stroke-miterlimit="10" d="M236.378,120.973
			c0,0,6.068-3.312,6.913-4.261c0.844-0.948-1.326,6.517-3.558,8.234"/>
		<path fill="none" stroke="#FFFFFF" stroke-linecap="round" stroke-linejoin="round" stroke-miterlimit="10" d="M244.606,122.579
			c0,0,2.166-1.949,4.045-2.844c1.883-0.894-2.307,5.181-2.957,7.812"/>
		<path fill="none" stroke="#FFFFFF" stroke-linecap="round" stroke-linejoin="round" stroke-miterlimit="10" d="M237.774,126.359
			c0,0,4.688-2.363,9.814-11.653c0,0-6.209,16.712-8.693,21.822"/>
		<path fill="none" stroke="#FFFFFF" stroke-linecap="round" stroke-linejoin="round" stroke-miterlimit="10" d="M172.245,211.83
			c0,0,0.925,4.176,1.734,5.045c0.812,0.868,6.045,0.141,6.045,0.141"/>
		<path fill="none" stroke="#FFFFFF" stroke-linecap="round" stroke-linejoin="round" stroke-miterlimit="10" d="M225.321,163.731
			c0.048-0.056,0.137-0.55-0.047-0.616c0,0,1.359-0.862,1.002-1.954c0,0,1.729-0.883,1.313-1.771c0,0,1.872-0.898,1.827-1.912
			c0,0,1.479-1.418,1.016-2.412c0,0,1.611-1.077,1.166-2.028c0,0,1.413-0.535,1.086-1.564c0,0,1.84-1.562,1.26-2.803
			c0,0,1.936-1.685,1.434-2.759c0,0,1.27-1.978,0.877-2.979c0,0,2.007-1.776,2.025-3.65c0.002-0.046,0.002-0.094-0.004-0.139
			c0,0,1.471-1.894,0.223-3.277c0,0,0.777-1.295,0.337-2.726c0,0,1.108-0.919,0.247-2.279c0,0,1.496-1.38,0.419-2.612
			c0,0-0.438-2.756-2.542-1.509c0,0-1.207-0.37-2.613,1.091c0,0-1.531,0.062-2.742,1.408c0,0-1.688,0.435-2.418,1.353
			c0,0-1.332,0.22-2.068,1.496c0,0-1.469,0.225-2.7,1.622"/>
		<path fill="none" stroke="#FFFFFF" stroke-linecap="round" stroke-linejoin="round" stroke-miterlimit="10" d="M173.964,209.942
			c0,0,2.137,1.587,2.533,3.262c0,0,2.525,0.019,3.434,1.315"/>
		<path fill="none" stroke="#FFFFFF" stroke-linecap="round" stroke-linejoin="round" stroke-miterlimit="10" d="M185.451,213.661
			c0,0-1.642-0.632-1.64-1.442c0,0-2.293,3.059-4.305-0.418c0,0-3.342-1.108-2.527-3.14c0,0-1.742,0.179-2.131-1.672
			c0,0-1.043,0.244-1.483-0.252"/>
		<path fill="none" stroke="#FFFFFF" stroke-linecap="round" stroke-linejoin="round" stroke-miterlimit="10" d="M238.534,133.205
			c-0.83,0.022-1.307,0.249-2.098,0.562c-0.389-0.752-0.908-1.095-1.791-0.653c-0.223-0.604-0.562-1.947-1.441-1.631
			c0.115-0.709-0.482-1.4-0.994-1.826"/>
		<path fill="none" stroke="#FFFFFF" stroke-linecap="round" stroke-linejoin="round" stroke-miterlimit="10" d="M237.976,135.633
			c-0.207,0.167-0.666,0.089-0.985,0.173c-0.339,0.088-0.65,0.265-0.979,0.394c0.32-0.462,0.719-1.032,0.516-1.65"/>
		<path fill="none" stroke="#FFFFFF" stroke-linecap="round" stroke-linejoin="round" stroke-miterlimit="10" d="M234.136,133.497
			c-0.369,0.427-0.77,0.651-1.203,1.052c0.627-0.004,0.76,0.797,1.008,1.266c0.699-0.28,1.066-0.649,1.73-0.19"/>
		<path fill="none" stroke="#FFFFFF" stroke-linecap="round" stroke-linejoin="round" stroke-miterlimit="10" d="M229.871,130.884
			c0.469,0.198,0.817,0.104,1.219,0.449c0.364,0.312,0.479,0.621,0.716,1.063c0.291-0.233,0.473-0.505,0.84-0.642"/>
		<path fill="none" stroke="#FFFFFF" stroke-linecap="round" stroke-linejoin="round" stroke-miterlimit="10" d="M238.438,130.678
			c-0.443,0.08-1.099,0.264-1.508,0.596c-0.463,0.376-0.412,0.97-0.794,1.289"/>
		<path fill="none" stroke="#FFFFFF" stroke-linecap="round" stroke-linejoin="round" stroke-miterlimit="10" d="M236.151,131.001
			c-0.273-0.589-0.816-1.784-1.625-1.477c0.518-0.493,0.41-0.738,0.109-1.337"/>
		<path fill="none" stroke="#FFFFFF" stroke-linecap="round" stroke-linejoin="round" stroke-miterlimit="10" d="M237.026,127.072
			c0.109,1.054,0.465,2.002,0.902,2.959c-0.535-0.692,0.437-1.404,1.01-1.619"/>
		<path fill="none" stroke="#FFFFFF" stroke-linecap="round" stroke-linejoin="round" stroke-miterlimit="10" d="M237.558,138.942
			c-0.332-1.252-1.924-0.426-2.638-0.047c0.272,0.53,0.079,1.442-0.362,1.854c1.066-0.672,2.028,0.13,1.766,1.206"/>
		<path fill="none" stroke="#FFFFFF" stroke-linecap="round" stroke-linejoin="round" stroke-miterlimit="10" d="M226.448,133.563
			c0.867,0.15,1.287,1.204,1.375,2.056c0.906-0.448,2.018,0.313,2.361,1.138c0.687-0.354,1.364-0.277,1.785,0.372
			c0.453,0.694,0.438,1.174,0.081,1.866c0.595-0.89,1.743-0.735,2.556-0.573"/>
		<path fill="none" stroke="#FFFFFF" stroke-linecap="round" stroke-linejoin="round" stroke-miterlimit="10" d="M228.077,132.262
			c0.729,0.032,1.49,0.543,1.748,1.283"/>
		<path fill="none" stroke="#FFFFFF" stroke-linecap="round" stroke-linejoin="round" stroke-miterlimit="10" d="M232.124,132.812
			c0.047,0.552,0.379,1.045,0.412,1.623c-0.656,0.33-1.615,0.542-1.795,1.373c-0.102-0.595,0.156-1.282-0.549-1.621"/>
		<path fill="none" stroke="#FFFFFF" stroke-linecap="round" stroke-linejoin="round" stroke-miterlimit="10" d="M229.823,132.667
			c0.344-0.416,0.545-0.857,1.044-1.097"/>
		<path fill="none" stroke="#FFFFFF" stroke-linecap="round" stroke-linejoin="round" stroke-miterlimit="10" d="M235.979,136.429
			c-0.021,0.511-0.354,1.274-0.891,1.43"/>
		<path fill="none" stroke="#FFFFFF" stroke-linecap="round" stroke-linejoin="round" stroke-miterlimit="10" d="M233.108,137.972
			c-0.135-0.488,0.422-1.143,0.646-1.521"/>
		<path fill="none" stroke="#FFFFFF" stroke-linecap="round" stroke-linejoin="round" stroke-miterlimit="10" d="M235.325,143.301
			c-0.627,0.149-1.156-0.253-1.799,0.036c0.404,0.785,0.391,1.419-0.35,1.896c0.479-0.233,1.569,0.253,1.719,0.771"/>
		<path fill="none" stroke="#FFFFFF" stroke-linecap="round" stroke-linejoin="round" stroke-miterlimit="10" d="M233.101,148.401
			c0.256-0.7-0.759-2.581-1.666-2.434c-0.113-0.409,0.352-1.236-0.395-1.412c0.434-0.563,1.232-1.245,0.775-1.977
			c0.645-0.137,1.469-0.44,1.395-1.202c-0.055-0.569-0.652-1.34-0.967-1.783"/>
		<path fill="none" stroke="#FFFFFF" stroke-linecap="round" stroke-linejoin="round" stroke-miterlimit="10" d="M234.34,141.188
			c-0.308,0.227-0.874,0.517-0.93,0.907"/>
		<path fill="none" stroke="#FFFFFF" stroke-linecap="round" stroke-linejoin="round" stroke-miterlimit="10" d="M227.841,139.009
			c0.293-0.14,1.098-0.37,1.446-0.558c0.468-0.249,0.458-0.603,0.627-1.088"/>
		<path fill="none" stroke="#FFFFFF" stroke-linecap="round" stroke-linejoin="round" stroke-miterlimit="10" d="M229.497,138.64
			c0.314,0.41,0.568,0.888,0.707,1.388c0.115,0.416,0.16,0.856,0.064,1.281c-0.064,0.294-0.305,0.356-0.199,0.675
			c0.387-0.083,0.633,0.142,0.977,0.267"/>
		<path fill="none" stroke="#FFFFFF" stroke-linecap="round" stroke-linejoin="round" stroke-miterlimit="10" d="M223.976,134.787
			c1.068,0.159,1.728,0.739,2.166,1.754c-0.404,0.22-1.404,0.598-1.271,1.206c-0.438-0.057-0.726-0.229-1.188-0.12
			c-0.184-0.418-0.271-1.016-0.711-1.221"/>
		<path fill="none" stroke="#FFFFFF" stroke-linecap="round" stroke-linejoin="round" stroke-miterlimit="10" d="M223.22,138.388
			c-0.062,0.433-0.111,0.896-0.125,1.322c0.887,0.112,1.223,0.475,1.416,1.437c0.572-0.164,0.834-0.482,1.443-0.266
			c0.463,0.163,0.855,0.547,1.309,0.693c-0.164-0.639,0.021-1.342,0.037-1.973c-0.604-0.158-2.566-0.342-2.49-1.144"/>
		<path fill="none" stroke="#FFFFFF" stroke-linecap="round" stroke-linejoin="round" stroke-miterlimit="10" d="M227.746,138.374
			c-0.319-0.691-0.884-1.404-1.111-2.109c0.146-0.079,0.327-0.2,0.489-0.24"/>
		<path fill="none" stroke="#FFFFFF" stroke-linecap="round" stroke-linejoin="round" stroke-miterlimit="10" d="M220.636,138.51
			c0.426,0.271,1.023,0.54,1.307,1.055c0.283,0.523,0.23,0.322-0.205,0.85c-0.305,0.369-0.452,0.525-0.238,0.99
			c-0.341-0.318-0.84-0.024-1.238,0.048c-0.451-0.852-0.646-1.11-1.611-1.404"/>
		<path fill="none" stroke="#FFFFFF" stroke-linecap="round" stroke-linejoin="round" stroke-miterlimit="10" d="M216.784,141.866
			c0.988,0.207,1.812,0.346,2.273,1.363c0.812-0.351,1.252,0.283,1.541,0.981c0.174-0.734,1.209-0.736,1.717-0.461
			c0.619,0.333,1.067,1.101,1.375,1.724c0.67-0.282,1.278-0.373,1.899-0.545c0.394-0.107,0.323,0.098,0.438-0.407
			c0.058-0.256,0.01-0.581-0.129-0.818c-0.33-0.566-1.443-1.126-2.049-1.45c-0.771-0.412-0.623,0.041-1.154,0.504
			c-0.238-0.44-0.363-0.874-0.771-1.193"/>
		<path fill="none" stroke="#FFFFFF" stroke-linecap="round" stroke-linejoin="round" stroke-miterlimit="10" d="M226.877,143.18
			c0.269-0.449,1.088-1.006,0.919-1.506c0.346,0.219,1.059,0.354,1.473,0.129c0.146,0.294-0.066,0.47-0.021,0.772
			c0.043,0.279,0.265,0.569,0.373,0.828c0.146,0.348,0.188,0.879,0.446,1.118c-1.164,0.279-2.071,0.191-2.975,1.141
			c0.481,0.398,1.237,0.328,1.682,0.896c0.332,0.418,0.621,1.191,0.692,1.697c0.446-0.179,0.703-0.426,1.136-0.11
			c0.401,0.296,0.442,1.269,0.846,1.505c0.515,0.298,1.396-1.75,2.058-0.966"/>
		<path fill="none" stroke="#FFFFFF" stroke-linecap="round" stroke-linejoin="round" stroke-miterlimit="10" d="M229.801,147.717
			c0.54,0.027,1.329-0.946,1.214-1.322"/>
		<path fill="none" stroke="#FFFFFF" stroke-linecap="round" stroke-linejoin="round" stroke-miterlimit="10" d="M226.188,145.194
			c0.02,0.418,0.35,0.839,0.386,1.28c0.034,0.481-0.286,1.008-0.226,1.487c0.078,0.597,0.346,0.358,0.729,0.688
			c0.344,0.297,0.504,1.001,0.715,1.41c0.963-0.53,1.893,0.506,2.201,1.396c-0.213-0.862,1.804-0.604,2.152-0.171"/>
		<path fill="none" stroke="#FFFFFF" stroke-linecap="round" stroke-linejoin="round" stroke-miterlimit="10" d="M218.549,143.614
			c-0.411,0.384-1.045,1.451-0.933,2.047c0.701,0.049,1.273,0.223,1.773,0.733c0.586-1.303,2.459-0.204,2.799,0.793
			c0.814-0.321,1.209-0.471,1.922,0.143c0.699,0.609,0.996,1.353-0.053,1.846c0.053,0.155-0.002,0.334,0.075,0.485
			c-0.583,0.243-1.594,0.048-1.919,0.75c0.098-0.906-0.484-1.486-1.348-1.586c0.484-0.191,0.775-0.622,0.889-1.089"/>
		<path fill="none" stroke="#FFFFFF" stroke-linecap="round" stroke-linejoin="round" stroke-miterlimit="10" d="M230.812,152.92
			c-1.176-0.254-2.896,0.269-3.068,1.672c0.699,0.232,1.559,0.276,1.867,1.125"/>
		<path fill="none" stroke="#FFFFFF" stroke-linecap="round" stroke-linejoin="round" stroke-miterlimit="10" d="M227.532,150.389
			c-0.053,0.477-0.277,0.986-0.583,1.365c0.612,0.203,0.905,0.583,1.171,1.201"/>
		<path fill="none" stroke="#FFFFFF" stroke-linecap="round" stroke-linejoin="round" stroke-miterlimit="10" d="M224.771,149.985
			c0.232,0.489,0.957,1.211,0.971,1.785c0.004,0.344-0.74,1.195-1.016,1.551c1.012,0.516,1.767,0.516,2.297,1.638"/>
		<path fill="none" stroke="#FFFFFF" stroke-linecap="round" stroke-linejoin="round" stroke-miterlimit="10" d="M223.147,155.209
			c1.979-0.229,0.697-3.854-1.199-3.448c0.172-0.17,0.279-0.464,0.188-0.75"/>
		<path fill="none" stroke="#FFFFFF" stroke-linecap="round" stroke-linejoin="round" stroke-miterlimit="10" d="M221.201,152.056
			c-0.231,0.312-0.55,0.761-0.821,0.983c-0.113-1.205-0.996-2.595-2.188-2.943c0.312-0.602,0.906-1.004,1.514-1.268
			c-0.404,0.318-0.854-0.238-1.012-0.675c-0.17,0.277-0.41,0.492-0.699,0.66"/>
		<path fill="none" stroke="#FFFFFF" stroke-linecap="round" stroke-linejoin="round" stroke-miterlimit="10" d="M217.284,144.675
			c-0.729,0.09-1.375-1.213-1.652-1.8"/>
		<path fill="none" stroke="#FFFFFF" stroke-linecap="round" stroke-linejoin="round" stroke-miterlimit="10" d="M215.11,143.932
			c-0.463,0.216-0.84,0.38-1.198,0.749c-0.358,0.37-0.353,0.791-0.681,1.146c1.334-0.124,1.984,0.288,2.613,1.401
			c-0.068-0.546,0.625-1.44,1.062-1.766"/>
		<path fill="none" stroke="#FFFFFF" stroke-linecap="round" stroke-linejoin="round" stroke-miterlimit="10" d="M213.722,151.552
			c-0.779-2.005,2.569-2.888,3.188-0.887c0.222-0.254,0.502-0.493,0.727-0.736"/>
		<path fill="none" stroke="#FFFFFF" stroke-linecap="round" stroke-linejoin="round" stroke-miterlimit="10" d="M216.772,151.416
			c0.002,0.37-0.1,0.688,0.123,1.013c-0.371,0.205-1.344,0.488-1.27,0.887c0.061-2.152-4-1.281-3.109,0.15"/>
		<path fill="none" stroke="#FFFFFF" stroke-linecap="round" stroke-linejoin="round" stroke-miterlimit="10" d="M215.071,147.336
			c-0.613,0.615-0.877,1.426-0.471,2.182"/>
		<path fill="none" stroke="#FFFFFF" stroke-linecap="round" stroke-linejoin="round" stroke-miterlimit="10" d="M213.163,145.855
			c-0.531,0.534-1.365,0.584-1.355,1.565c0.004,0.356,0.354,1.085,0.592,1.298"/>
		<path fill="none" stroke="#FFFFFF" stroke-linecap="round" stroke-linejoin="round" stroke-miterlimit="10" d="M213.972,148.458
			c-0.598,0.225-2.896,0.355-2.127,1.534"/>
		<path fill="none" stroke="#FFFFFF" stroke-linecap="round" stroke-linejoin="round" stroke-miterlimit="10" d="M212.329,152.338
			c-0.344-0.284-0.398-0.558-0.823-0.783c-0.405-0.212-0.907-0.302-1.37-0.141c-0.712,0.246-1.369,1.365-0.438,1.812"/>
		<path fill="none" stroke="#FFFFFF" stroke-linecap="round" stroke-linejoin="round" stroke-miterlimit="10" d="M213.708,150.07
			c-0.541-0.026-0.828-0.298-1.355-0.18c-0.451,0.101-1.059,0.451-1.438,0.696c0.084,0.302-0.064,0.492,0.014,0.781"/>
		<path fill="none" stroke="#FFFFFF" stroke-linecap="round" stroke-linejoin="round" stroke-miterlimit="10" d="M224.207,155.595
			c0.442,0.408,0.89,0.698,1.149,1.283c0.468-0.14,1.289-0.891,1.238-1.383"/>
		<path fill="none" stroke="#FFFFFF" stroke-linecap="round" stroke-linejoin="round" stroke-miterlimit="10" d="M228.653,157.583
			c-0.486,0.589-1.649-0.445-1.812-0.982"/>
		<path fill="none" stroke="#FFFFFF" stroke-linecap="round" stroke-linejoin="round" stroke-miterlimit="10" d="M227.179,159.354
			c-0.943,0.081-1.846-0.523-2.156-1.43"/>
		<path fill="none" stroke="#FFFFFF" stroke-linecap="round" stroke-linejoin="round" stroke-miterlimit="10" d="M222.851,156.025
			c-0.244,0.388-0.688,0.512-1.078,0.714c0.543,0.964-0.385,2.473-1.254,2.947c0.826-0.6,1.916,0.365,2.289,1.019
			c0.713-0.242,0.771-0.606,1.492-0.413c0.471,0.129,0.672,0.367,1.025,0.603"/>
		<path fill="none" stroke="#FFFFFF" stroke-linecap="round" stroke-linejoin="round" stroke-miterlimit="10" d="M222.731,157.368
			c0.188,0.691,1.066,0.621,1.559,0.952c0.307,0.207,0.414,0.033,0.4,0.659c-0.013,0.364-0.039,0.786-0.438,0.927"/>
		<path fill="none" stroke="#FFFFFF" stroke-linecap="round" stroke-linejoin="round" stroke-miterlimit="10" d="M219.288,152.747
			c-0.346-0.043-0.637-0.303-0.969-0.313c-0.309-0.009-0.707,0.165-0.979,0.203"/>
		<path fill="none" stroke="#FFFFFF" stroke-linecap="round" stroke-linejoin="round" stroke-miterlimit="10" d="M218.495,155.689
			c-0.342-0.661-1.754-1.881-2.542-1.386"/>
		<path fill="none" stroke="#FFFFFF" stroke-linecap="round" stroke-linejoin="round" stroke-miterlimit="10" d="M222.712,154.656
			c-0.506-0.477-0.902-1.009-1.552-1.361"/>
		<path fill="none" stroke="#FFFFFF" stroke-linecap="round" stroke-linejoin="round" stroke-miterlimit="10" d="M220.165,153.843
			c-0.18,0.783-0.09,1.393-0.846,1.886c0.697,0.091,1.471,0.242,1.99,0.747"/>
		<path fill="none" stroke="#FFFFFF" stroke-linecap="round" stroke-linejoin="round" stroke-miterlimit="10" d="M218.864,156.327
			c0.195,0.493-0.578,1.331-1.016,1.554c1.145-0.153,2.061,0.165,2.477,1.308"/>
		<path fill="none" stroke="#FFFFFF" stroke-linecap="round" stroke-linejoin="round" stroke-miterlimit="10" d="M214.688,155.689
			c0.281,0.23,0.965,0.226,1.354,0.496c0.48,0.338,0.884,0.79,1.16,1.31c0.133,0.245,0.293,0.535,0.273,0.799
			c-0.021,0.367-0.363,0.761-0.488,1.069c0.234,0.039,0.533-0.047,0.762,0.057c0.243,0.11,0.497,0.503,0.646,0.705
			c0.197,0.261,0.314,0.543,0.465,0.825c0.834-0.373,1.662-0.352,2.197,0.436c0.312,0.46,0.416,0.897,0.303,1.396
			c-0.06,0.251-0.223,0.59-0.243,0.845c-0.041,0.455,0.218,0.343,0.673,0.428c0.961,0.186,1.262,1.054,1.641,1.777
			c-0.018-0.042-0.045-0.07-0.088-0.085"/>
		<path fill="none" stroke="#FFFFFF" stroke-linecap="round" stroke-linejoin="round" stroke-miterlimit="10" d="M222.979,161.036
			c-0.008,0.767-0.797,1.243-1.264,1.674"/>
		<path fill="none" stroke="#FFFFFF" stroke-linecap="round" stroke-linejoin="round" stroke-miterlimit="10" d="M224.985,163.103
			c-0.312,0.146-0.971,0.389-1.029,0.706c0.039-0.547-0.564-1.3-1.191-1.088"/>
		<path fill="none" stroke="#FFFFFF" stroke-linecap="round" stroke-linejoin="round" stroke-miterlimit="10" d="M208.403,154.996
			c0.117-0.55,0.752-1.149,1.275-1.305c0.6-0.181,0.998,0.052,1.437,0.413"/>
		<path fill="none" stroke="#FFFFFF" stroke-linecap="round" stroke-linejoin="round" stroke-miterlimit="10" d="M215.354,154.253
			c-0.267,0.202-0.717,0.81-0.682,1.147c-0.68,0.361-1.354,1.05-1.508,1.83c-0.441-0.615-1.314-1.656-2.152-1.705
			c-0.693-0.04-1.51,0.567-1.777,1.165"/>
		<path fill="none" stroke="#FFFFFF" stroke-linecap="round" stroke-linejoin="round" stroke-miterlimit="10" d="M214.022,154.708
			c-0.397-0.396-0.658-0.945-1.314-0.97c-0.668-0.024-1.766,0.534-1.701,1.292"/>
		<path fill="none" stroke="#FFFFFF" stroke-linecap="round" stroke-linejoin="round" stroke-miterlimit="10" d="M216.485,159.272
			c-0.328,0.435-0.811,1.035-0.627,1.618c0.104,0.342,0.723,0.536,1.052,0.828c0.415,0.367,0.751,0.853,0.981,1.355
			c1.006-0.595,2.119,1.056,2.455,1.8c-0.164,0.18-0.438,0.219-0.609,0.381c-0.125,0.12-0.195,0.408-0.285,0.503
			c-0.15,0.16-0.34,0.193-0.475,0.384c-0.111,0.164-0.229,0.5-0.291,0.692c-0.039,0.13-0.002,0.402-0.057,0.496
			c-0.16,0.288-0.805,0.311-1.062,0.522c-0.279,0.233-0.957,1.093-0.691,1.476c-0.992-0.065-0.877,1.286-1.008,1.848
			c0.459,0.173,0.777,0.383,1.049,0.776c0.107,0.162,0.412,0.637,0.506,0.681"/>
		<path fill="none" stroke="#FFFFFF" stroke-linecap="round" stroke-linejoin="round" stroke-miterlimit="10" d="M215.753,159.486
			c-0.219-0.358-0.584-0.581-0.891-0.877c-0.365-0.355-0.656-0.604-1.156-0.754c-0.859-0.257-1.35,0.545-1.689,1.205
			c-0.348-0.729-1.401-1.604-2.145-1.878c-0.99-0.367-2.02,0.474-1.893,1.461c-0.027-0.056-0.098-0.11-0.125-0.172
			c-0.395,0.041-1.195,0.427-1.432,0.747c-0.234,0.319-0.07,0.837,0.104,1.151c-0.533,0.017-1.271,0.238-1.656,0.671
			c-0.453,0.506-0.301,0.929-0.053,1.464"/>
		<path fill="none" stroke="#FFFFFF" stroke-linecap="round" stroke-linejoin="round" stroke-miterlimit="10" d="M209.229,155.694
			c-0.218-0.029-0.379-0.201-0.584-0.29c-0.338-0.151-0.429-0.119-0.793,0.016c-0.674,0.249-1.164,0.502-1.302,1.232"/>
		<path fill="none" stroke="#FFFFFF" stroke-linecap="round" stroke-linejoin="round" stroke-miterlimit="10" d="M206.214,159.061
			c-0.464,0.038-0.768-0.617-0.914-0.975c-0.209-0.506,0.039-1.042,0.551-1.274c0.801-0.363,1.395-0.015,1.967,0.501"/>
		<path fill="none" stroke="#FFFFFF" stroke-linecap="round" stroke-linejoin="round" stroke-miterlimit="10" d="M205.091,160.584
			c-0.527,0.079-0.956-0.402-1.145-0.842"/>
		<path fill="none" stroke="#FFFFFF" stroke-linecap="round" stroke-linejoin="round" stroke-miterlimit="10" d="M203.824,162.425
			c-0.404,0.191-0.995-0.503-1.196-0.775"/>
		<path fill="none" stroke="#FFFFFF" stroke-linecap="round" stroke-linejoin="round" stroke-miterlimit="10" d="M202.372,164.229
			c-0.354,0.143-0.723-0.104-0.834-0.444"/>
		<path fill="none" stroke="#FFFFFF" stroke-linecap="round" stroke-linejoin="round" stroke-miterlimit="10" d="M201.325,166.095
			c-0.381,0.135-0.566-0.24-0.766-0.479"/>
		<path fill="none" stroke="#FFFFFF" stroke-linecap="round" stroke-linejoin="round" stroke-miterlimit="10" d="M201.405,166.806
			c-0.797,0.113-2.77,0.789-2.301,1.949"/>
		<path fill="none" stroke="#FFFFFF" stroke-linecap="round" stroke-linejoin="round" stroke-miterlimit="10" d="M198.08,170.402
			c-0.45,0.148-1.146,0.34-1.392,0.774"/>
		<path fill="none" stroke="#FFFFFF" stroke-linecap="round" stroke-linejoin="round" stroke-miterlimit="10" d="M198.606,174.033
			c-0.395,0.028-1.156-0.522-1.471-0.822c-0.314-0.307-0.51-0.652-0.693-1.044"/>
		<path fill="none" stroke="#FFFFFF" stroke-linecap="round" stroke-linejoin="round" stroke-miterlimit="10" d="M197.601,175.629
			c-0.955-0.158-1.562-1.122-1.941-1.928"/>
		<path fill="none" stroke="#FFFFFF" stroke-linecap="round" stroke-linejoin="round" stroke-miterlimit="10" d="M195.251,177.478
			c-0.162-0.309-1.391-1.607-1.045-1.975"/>
		<path fill="none" stroke="#FFFFFF" stroke-linecap="round" stroke-linejoin="round" stroke-miterlimit="10" d="M193.74,178.972
			c-0.595-0.334-0.755-0.549-1.034-1.144"/>
		<path fill="none" stroke="#FFFFFF" stroke-linecap="round" stroke-linejoin="round" stroke-miterlimit="10" d="M192.329,180.508
			c-0.555-0.053-0.918-0.328-1.111-0.773"/>
		<path fill="none" stroke="#FFFFFF" stroke-linecap="round" stroke-linejoin="round" stroke-miterlimit="10" d="M193.366,180.316
			c-0.133,0.129-0.318,0.19-0.488,0.27c-0.445,0.206-0.707,0.428-1.005,0.823c-0.289,0.384-0.445,0.694-0.435,1.133
			c-0.399,0.122-0.797,0.286-1.033,0.648c-0.092,0.143-0.199,0.374-0.239,0.546c-0.017,0.075-0.004,0.317-0.026,0.358
			c-0.158,0.265-0.768,0.346-1.021,0.615c-0.197,0.209-0.482,0.577-0.53,0.859c-0.02,0.113,0.164,0.246,0.088,0.347
			c-0.107,0.147-0.844,0.011-1.076,0.193c-0.203,0.155-0.388,0.537-0.429,0.768c-0.067,0.358,0.123,0.378-0.262,0.471
			c-0.41,0.1-0.687,0.084-1.062,0.354"/>
		<path fill="none" stroke="#FFFFFF" stroke-linecap="round" stroke-linejoin="round" stroke-miterlimit="10" d="M190.119,181.577
			c0.097,0.364,0.499,0.412,0.745,0.614"/>
		<path fill="none" stroke="#FFFFFF" stroke-linecap="round" stroke-linejoin="round" stroke-miterlimit="10" d="M189.058,183.324
			c-0.006,0.348,0.379,0.506,0.607,0.678"/>
		<path fill="none" stroke="#FFFFFF" stroke-linecap="round" stroke-linejoin="round" stroke-miterlimit="10" d="M187.644,185.028
			c0.125,0.326,0.303,0.542,0.605,0.677"/>
		<path fill="none" stroke="#FFFFFF" stroke-linecap="round" stroke-linejoin="round" stroke-miterlimit="10" d="M196.616,176.926
			c-0.803,0.165-2.159,0.867-1.857,1.851c0.126,0.4,0.885,0.774,1.248,1.046c0.479,0.363,1.161,0.625,1.418,1.176
			c-0.015-0.031-0.009-0.021-0.009-0.021"/>
		<path fill="none" stroke="#FFFFFF" stroke-linecap="round" stroke-linejoin="round" stroke-miterlimit="10" d="M195.3,182.583
			c-0.328,0.079-1.016-0.778-1.217-1.064c-0.212-0.299-0.482-0.693-0.564-1.056c-0.156-0.671,0.349-1.207,0.865-1.541"/>
		<path fill="none" stroke="#FFFFFF" stroke-linecap="round" stroke-linejoin="round" stroke-miterlimit="10" d="M198.159,180.58
			c-0.369-0.25,0.269-1.018,0.468-1.232c0.108-0.115,0.335-0.343,0.497-0.39c0.17-0.049,0.365,0.055,0.52-0.027
			c0.312-0.167,0.198-0.866,0.438-1.205c0.049-0.067,0.376-0.309,0.356-0.412c-0.037-0.18-0.871-0.259-1.039-0.318
			c-0.707-0.242-1.955-1.03-1.562-1.946c0.201-0.469,1.35-1.439,1.906-1.17"/>
		<path fill="none" stroke="#FFFFFF" stroke-linecap="round" stroke-linejoin="round" stroke-miterlimit="10" d="M197.317,176.011
			c-1.193,1.074-0.314,2.766,0.629,3.752"/>
		<path fill="none" stroke="#FFFFFF" stroke-linecap="round" stroke-linejoin="round" stroke-miterlimit="10" d="M199.903,179.224
			c0.807,0.577,1.783,1.309,2.365,2.103c0.323-0.134,0.684-0.415,1.043-0.411c-0.166-0.541,0.004-0.992,0.436-1.32
			c0.363-0.278,0.717-0.248,1.117-0.352c-0.062-0.283,0.184-1.025,0.367-1.244c0.22-0.255,0.537-0.176,0.816-0.286
			c0.646-0.256,0.444-1.498,1.176-1.7c-0.604-0.409-1.389-0.474-2.004-0.896c-0.455-0.312-0.88-0.642-1.102-1.155"/>
		<path fill="none" stroke="#FFFFFF" stroke-linecap="round" stroke-linejoin="round" stroke-miterlimit="10" d="M215.209,160.909
			c-0.483,0.173-0.685,0.719-0.831,1.149c-0.154,0.467-0.211,0.455,0.129,0.812c0.309,0.325,0.666,0.464,1.02,0.725
			c0.307,0.227,0.496,0.588,0.664,0.926c0.662-0.186,1.051-0.553,1.705-0.061c0.23,0.176,0.533,0.458,0.703,0.695
			c0.102,0.143,0.174,0.428,0.25,0.433"/>
		<path fill="none" stroke="#FFFFFF" stroke-linecap="round" stroke-linejoin="round" stroke-miterlimit="10" d="M222.171,167.167
			c-0.574-0.496-1.395-1.414-2.27-1.109"/>
		<path fill="none" stroke="#FFFFFF" stroke-linecap="round" stroke-linejoin="round" stroke-miterlimit="10" d="M220.44,169.265
			c-0.1-0.077-0.107-0.195-0.188-0.312c-0.188-0.294-0.404-0.559-0.695-0.767c-0.219-0.157-0.467-0.252-0.723-0.299"/>
		<path fill="none" stroke="#FFFFFF" stroke-linecap="round" stroke-linejoin="round" stroke-miterlimit="10" d="M218.929,170.764
			c-0.229-0.747-1.174-1.093-1.865-1.048"/>
		<path fill="none" stroke="#FFFFFF" stroke-linecap="round" stroke-linejoin="round" stroke-miterlimit="10" d="M216.239,169.017
			c-0.695-0.938-2.012-1.419-3.119-0.964"/>
		<path fill="none" stroke="#FFFFFF" stroke-linecap="round" stroke-linejoin="round" stroke-miterlimit="10" d="M217.631,167.532
			c-0.241-0.723-1.468-1.37-2.188-1.471c-0.92-0.134-1.465,1.052-1.825,1.719"/>
		<path fill="none" stroke="#FFFFFF" stroke-linecap="round" stroke-linejoin="round" stroke-miterlimit="10" d="M215.946,164.817
			c-0.137,0.207-0.188,0.581-0.191,0.841"/>
		<path fill="none" stroke="#FFFFFF" stroke-linecap="round" stroke-linejoin="round" stroke-miterlimit="10" d="M214.507,165.489
			c-0.527-0.636-1.084-1.061-1.79-1.493c-0.024-0.403,0.327-1.334,0.79-1.46"/>
		<path fill="none" stroke="#FFFFFF" stroke-linecap="round" stroke-linejoin="round" stroke-miterlimit="10" d="M214.179,160.847
			c-0.357-0.76-0.625-1.159-1.345-1.54"/>
		<path fill="none" stroke="#FFFFFF" stroke-linecap="round" stroke-linejoin="round" stroke-miterlimit="10" d="M211.341,159.504
			c-0.25,0.427-0.547,0.953-0.664,1.44c0.415,0.235,0.887,0.32,1.273,0.656c0.318,0.276,0.527,0.647,0.796,0.917"/>
		<path fill="none" stroke="#FFFFFF" stroke-linecap="round" stroke-linejoin="round" stroke-miterlimit="10" d="M210.153,160.889
			c-0.524,0.369-0.812,1.021-0.666,1.615c0.106,0.432,0.52,0.646,0.916,0.91c0.295,0.201,0.854,0.477,0.927,0.888
			c0.056,0.329-0.3,1.027-0.403,1.363c-0.857-0.027-1.99,0.541-1.266,1.485c0.416,0.539,1.199,0.851,1.711,1.31
			c0.283,0.256,0.381,0.631,0.632,0.866"/>
		<path fill="none" stroke="#FFFFFF" stroke-linecap="round" stroke-linejoin="round" stroke-miterlimit="10" d="M213.188,167.396
			c-0.281-0.305-0.328-0.447-0.722-0.653c-0.323-0.173-0.663-0.36-0.97-0.558"/>
		<path fill="none" stroke="#FFFFFF" stroke-linecap="round" stroke-linejoin="round" stroke-miterlimit="10" d="M212.47,163.98
			c-0.292,0.136-0.525,0.271-0.789,0.452"/>
		<path fill="none" stroke="#FFFFFF" stroke-linecap="round" stroke-linejoin="round" stroke-miterlimit="10" d="M209.632,165.762
			c-0.527-0.318-0.922-0.753-1.49-1.027c-0.285-0.138-0.57-0.263-0.791-0.447c0.01-0.571,0.424-1.499,0.928-1.771
			c0.543-0.293,0.82-0.086,1.233,0.217"/>
		<path fill="none" stroke="#FFFFFF" stroke-linecap="round" stroke-linejoin="round" stroke-miterlimit="10" d="M209.772,160.611
			c-0.418-0.49-0.688-1.507-1.445-1.577"/>
		<path fill="none" stroke="#FFFFFF" stroke-linecap="round" stroke-linejoin="round" stroke-miterlimit="10" d="M207.165,163.87
			c-0.752-0.595-1.664-1.905-2.814-1.189c-0.543,0.335-0.436,1.131-0.123,1.601c0.365,0.553,1.166,0.925,1.605,1.378"/>
		<path fill="none" stroke="#FFFFFF" stroke-linecap="round" stroke-linejoin="round" stroke-miterlimit="10" d="M208.343,162.195
			c-0.396-0.592-1.148-1.162-1.839-1.352"/>
		<path fill="none" stroke="#FFFFFF" stroke-linecap="round" stroke-linejoin="round" stroke-miterlimit="10" d="M204.794,167.188
			c-0.666-0.256-1.311-0.634-1.929-0.982c-0.415-0.232-0.95-0.575-0.915-1.109c0.049-0.783,1.133-1.579,1.877-1.585"/>
		<path fill="none" stroke="#FFFFFF" stroke-linecap="round" stroke-linejoin="round" stroke-miterlimit="10" d="M202.799,169.077
			c-0.688-0.323-1.239-1.525-1.389-2.263c-0.113-0.553,0.138-0.8,0.614-1.005"/>
		<path fill="none" stroke="#FFFFFF" stroke-linecap="round" stroke-linejoin="round" stroke-miterlimit="10" d="M201.952,170.388
			c-0.812-0.25-1.555-0.838-2.297-1.233c-0.695-0.373-0.812,0.241-1.239,0.681c-0.028,0.488-0.19,0.918,0.265,1.312
			c0.49,0.43,1.286,0.596,1.84,0.908"/>
		<path fill="none" stroke="#FFFFFF" stroke-linecap="round" stroke-linejoin="round" stroke-miterlimit="10" d="M209.306,167.207
			c-0.24,0.244-0.648,0.313-0.924,0.524c-0.355,0.274-0.188,0.49-0.189,0.914c-0.002,0.637-0.645,0.785-0.947,1.304
			c-0.176,0.299-0.299,0.522-0.416,0.833c-0.162,0.416-0.475,0.545-0.799,0.84c-0.561,0.509-1.771,2.279-2.016,2.474
			c-0.328,0.259-0.35,0.501-0.463,0.885c-0.242,0.809-1.007,0.909-1.529,1.45c-0.633,0.655-0.239,1.175,0.209,1.802
			c0.162,0.224,0.785,1.247,0.996,1.234"/>
		<path fill="none" stroke="#FFFFFF" stroke-linecap="round" stroke-linejoin="round" stroke-miterlimit="10" d="M205.116,177.709
			c-0.676-0.476-1.346-0.969-2.096-1.271"/>
		<path fill="none" stroke="#FFFFFF" stroke-linecap="round" stroke-linejoin="round" stroke-miterlimit="10" d="M207.08,164.494
			c-0.729,0.284-1.334,1.301-1.8,1.921c-0.285,0.38-0.491,0.735-0.523,1.206c-0.031,0.451-0.218,0.752,0.168,1.068
			c0.432,0.358,0.965,0.658,1.295,1.119c0.141,0.199,0.188,0.385,0.365,0.504"/>
		<path fill="none" stroke="#FFFFFF" stroke-linecap="round" stroke-linejoin="round" stroke-miterlimit="10" d="M204.329,168.779
			c-0.63-0.084-2.654,0.789-1.967,1.595c0.171,0.202,0.684,0.352,0.933,0.47c0.416,0.192,0.784,0.336,1.093,0.693
			c0.197,0.228,0.316,0.573,0.521,0.725"/>
		<path fill="none" stroke="#FFFFFF" stroke-linecap="round" stroke-linejoin="round" stroke-miterlimit="10" d="M201.538,176.294
			c-0.639-0.506-1.592-1.529-1.58-2.424c0.01-0.767,0.443-1.211,1.027-1.614"/>
		<path fill="none" stroke="#FFFFFF" stroke-linecap="round" stroke-linejoin="round" stroke-miterlimit="10" d="M203.2,174.226
			c-0.492-0.635-2.166-1.28-2.117-2.277c0.027-0.555,0.857-1.165,1.305-1.431"/>
		<path fill="none" stroke="#FFFFFF" stroke-linecap="round" stroke-linejoin="round" stroke-miterlimit="10" d="M205.828,172.708
			c0.69,0.506,1.341,0.958,1.966,1.54c0.219,0.207,0.571,0.521,0.895,0.297c0.332-0.229,0.404-0.991,0.604-1.31
			c0.123-0.198,0.338-0.453,0.575-0.536"/>
		<path fill="none" stroke="#FFFFFF" stroke-linecap="round" stroke-linejoin="round" stroke-miterlimit="10" d="M208.61,169.285
			c0.865,0.319,1.972,0.729,2.399,1.659c0.354-0.152,0.47-0.729,0.687-1.026c0.264-0.37,0.529-0.692,0.955-0.718
			c1.106-0.067,1.887,1.271,2.291,2.132"/>
		<path fill="none" stroke="#FFFFFF" stroke-linecap="round" stroke-linejoin="round" stroke-miterlimit="10" d="M213.036,168.051
			c-0.085,0.175-0.201,0.377-0.336,0.533"/>
		<path fill="none" stroke="#FFFFFF" stroke-linecap="round" stroke-linejoin="round" stroke-miterlimit="10" d="M207.31,171.057
			c0.879,0.543,1.743,1.21,2.643,1.573c0.373,0.148,0.637,0.315,0.914,0.605c0.367,0.391,0.721,1.006,1.252,1.175
			c1.062,0.344,1.342-0.585,1.82-1.291c0.668-0.977,1.566,0.371,2.188,0.817c-0.034-0.015-0.063-0.024-0.104-0.021"/>
		<path fill="none" stroke="#FFFFFF" stroke-linecap="round" stroke-linejoin="round" stroke-miterlimit="10" d="M213.474,172.475
			c-0.479-0.478-0.809-0.843-1.438-1.121"/>
		<path fill="none" stroke="#FFFFFF" stroke-linecap="round" stroke-linejoin="round" stroke-miterlimit="10" d="M210.249,172.354
			c0.043-0.27,0.578-0.995,0.875-1.159"/>
		<path fill="none" stroke="#FFFFFF" stroke-linecap="round" stroke-linejoin="round" stroke-miterlimit="10" d="M214.683,172.205
			c0.07-0.304,0.361-0.964,0.639-1.131"/>
		<path fill="none" stroke="#FFFFFF" stroke-linecap="round" stroke-linejoin="round" stroke-miterlimit="10" d="M214.913,175.473
			c-0.406-0.396-0.969-0.816-1.529-0.954"/>
		<path fill="none" stroke="#FFFFFF" stroke-linecap="round" stroke-linejoin="round" stroke-miterlimit="10" d="M213.581,177.263
			c-0.34-0.407-0.74-0.638-1.191-0.917c-0.457-0.285-0.344-0.2-0.869-0.042c-0.494,0.15-0.832-0.156-1.27-0.403
			c-0.421-0.236-0.875-0.437-1.158-0.84"/>
		<path fill="none" stroke="#FFFFFF" stroke-linecap="round" stroke-linejoin="round" stroke-miterlimit="10" d="M210.771,176.864
			c-0.287,0.529-0.717,0.949-1.277,0.772c-0.488-0.151-1.053-0.419-1.477-0.705c-0.229-0.153-0.658-0.536-0.654-0.873
			c0.004-0.352,0.515-0.85,0.736-1.074"/>
		<path fill="none" stroke="#FFFFFF" stroke-linecap="round" stroke-linejoin="round" stroke-miterlimit="10" d="M211.896,175.881
			c0.188-0.222,0.521-0.95,0.404-1.272"/>
		<path fill="none" stroke="#FFFFFF" stroke-linecap="round" stroke-linejoin="round" stroke-miterlimit="10" d="M212.147,179.016
			c-0.547-0.423-1.061-0.827-1.768-0.928"/>
		<path fill="none" stroke="#FFFFFF" stroke-linecap="round" stroke-linejoin="round" stroke-miterlimit="10" d="M209.456,177.896
			c0.337,0.492-0.484,1.415-1.004,1.436c-0.497,0.021-0.955-0.468-1.317-0.717c-0.216-0.152-0.644-0.551-0.895-0.552"/>
		<path fill="none" stroke="#FFFFFF" stroke-linecap="round" stroke-linejoin="round" stroke-miterlimit="10" d="M208.122,179.77
			c-0.055,0.352-0.281,1.198-0.646,1.342c-0.246,0.099-0.474-0.067-0.701-0.202c-0.431-0.259-1.248-0.792-1.524-1.218"/>
		<path fill="none" stroke="#FFFFFF" stroke-linecap="round" stroke-linejoin="round" stroke-miterlimit="10" d="M206.668,181.571
			c0.157,0.687-0.481,1.644-1.198,1.2c-0.611-0.378-1.154-1.337-1.852-1.485"/>
		<path fill="none" stroke="#FFFFFF" stroke-linecap="round" stroke-linejoin="round" stroke-miterlimit="10" d="M210.571,181
			c-0.41-0.67-1.402-0.73-1.894-1.284"/>
		<path fill="none" stroke="#FFFFFF" stroke-linecap="round" stroke-linejoin="round" stroke-miterlimit="10" d="M209.259,182.656
			c-0.359-0.328-0.955-0.542-1.381-0.73"/>
		<path fill="none" stroke="#FFFFFF" stroke-linecap="round" stroke-linejoin="round" stroke-miterlimit="10" d="M207.495,184.146
			c-0.383-0.372-0.626-1.141-1.133-1.264"/>
		<path fill="none" stroke="#FFFFFF" stroke-linecap="round" stroke-linejoin="round" stroke-miterlimit="10" d="M188.116,211.244
			c-0.688,0.396-3.002-0.799-2.443-1.732c-0.699-0.033-1.181-0.36-1.609-0.879c-0.193-0.235-0.334-0.455-0.377-0.757
			c-0.021-0.173,0.065-0.265-0.012-0.432c-0.84,0.163-2.006,0.192-2.668-0.357c-0.52-0.431-0.994-0.537-0.725-1.242
			c-1.324,0.315-2.135-1.131-2.414-2.24c-0.247-0.968,0.389-1.889,1.236-2.29"/>
		<path fill="none" stroke="#FFFFFF" stroke-linecap="round" stroke-linejoin="round" stroke-miterlimit="10" d="M179.673,206.551
			c0.182,0.556-0.753,1.308-1.137,1.58c-0.299,0.205-0.648,0.336-0.982,0.492"/>
		<path fill="none" stroke="#FFFFFF" stroke-linecap="round" stroke-linejoin="round" stroke-miterlimit="10" d="M177.97,205.136
			c-0.998,0.388-2.599-0.406-2.988-1.4"/>
		<path fill="none" stroke="#FFFFFF" stroke-linecap="round" stroke-linejoin="round" stroke-miterlimit="10" d="M174.937,206.675
			c-0.188-0.296,0.488-1.256,0.817-1.465"/>
		<path fill="none" stroke="#FFFFFF" stroke-linecap="round" stroke-linejoin="round" stroke-miterlimit="10" d="M177.667,201.984
			c-0.604,0.172-1.557-0.593-1.744-1.147"/>
		<path fill="none" stroke="#FFFFFF" stroke-linecap="round" stroke-linejoin="round" stroke-miterlimit="10" d="M184.731,209.527
			c-0.438,0.755-1.16,1.277-2.062,1.311c-0.662,0.023-1.369,0.074-1.896-0.379c-0.682-0.59-1.283-2.553-0.34-3.179"/>
		<path fill="none" stroke="#FFFFFF" stroke-linecap="round" stroke-linejoin="round" stroke-miterlimit="10" d="M179.642,211.488
			c0.443-0.207,0.849-0.604,1.271-0.762"/>
		<path fill="none" stroke="#FFFFFF" stroke-linecap="round" stroke-linejoin="round" stroke-miterlimit="10" d="M189.935,208.976
			c-0.828-0.312-2.057-0.785-2.002-1.852c-0.367,0.024-0.646,0.205-0.98,0.036c-0.256-0.124-0.494-0.433-0.661-0.652
			c-0.173-0.223-0.53-0.632-0.351-0.924c-0.299-0.092-0.689,0.245-1.072,0.181c-0.455-0.076-1.018-0.281-1.422-0.502
			c-0.42-0.228-0.741-0.721-0.811-1.21c-1.169,0.063-2.17-0.46-2.777-1.495c-0.412-0.711-0.574-1.133-0.301-1.88
			c-0.547-0.229-1.195-0.85-1.156-1.498"/>
		<path fill="none" stroke="#FFFFFF" stroke-linecap="round" stroke-linejoin="round" stroke-miterlimit="10" d="M183.696,207.134
			c0.328-0.204,0.775-0.771,0.742-1.182"/>
		<path fill="none" stroke="#FFFFFF" stroke-linecap="round" stroke-linejoin="round" stroke-miterlimit="10" d="M180.489,205.713
			c0.475-0.275,0.996-0.865,0.953-1.447"/>
		<path fill="none" stroke="#FFFFFF" stroke-linecap="round" stroke-linejoin="round" stroke-miterlimit="10" d="M186.065,209.53
			c0.639-0.332,1.262-1.149,1.304-1.858"/>
		<path fill="none" stroke="#FFFFFF" stroke-linecap="round" stroke-linejoin="round" stroke-miterlimit="10" d="M188.134,206.814
			c0.446-0.519,1.213-1.117,1.037-1.816c0.223-0.036,0.43,0.128,0.695,0.057c0.389-0.11,0.801-0.624,0.896-0.999
			c0.06-0.241-0.05-0.638,0.169-0.853c0.155-0.151,0.355-0.099,0.551-0.155c0.201-0.062,0.398-0.193,0.588-0.278
			c0.371,0.696,1.221,0.999,1.781,1.461"/>
		<path fill="none" stroke="#FFFFFF" stroke-linecap="round" stroke-linejoin="round" stroke-miterlimit="10" d="M191.599,206.824
			c-0.677,0.152-1.387-0.758-1.637-1.278"/>
		<path fill="none" stroke="#FFFFFF" stroke-linecap="round" stroke-linejoin="round" stroke-miterlimit="10" d="M179.933,200.134
			c0.322-0.138,0.608-0.347,0.94-0.475c0.396,0.794,0.96,1.149,1.715,1.563c0.581,0.318,1.119,0.849,1.825,0.656
			c0.473-0.128,0.67-0.336,0.598-0.777c-0.115-0.697,0.201-1.16,0.533-1.736c-1.287-0.121-3.637-1.022-2.874-2.698
			c0.201-0.438,0.251-0.253,0.681-0.354c0.271-0.063,0.543-0.234,0.731-0.438c0.271-0.287,0.231-0.815,0.554-1.026
			c-0.492-0.188-1.021-0.232-1.416-0.639c-0.357-0.37-0.522-0.932-0.74-1.395"/>
		<path fill="none" stroke="#FFFFFF" stroke-linecap="round" stroke-linejoin="round" stroke-miterlimit="10" d="M180.661,194.373
			c0,0.76,1.176,1.455,1.781,1.672"/>
		<path fill="none" stroke="#FFFFFF" stroke-linecap="round" stroke-linejoin="round" stroke-miterlimit="10" d="M178.603,196.752
			c0.424,0.561,1.672,1.626,2.432,1.453"/>
		<path fill="none" stroke="#FFFFFF" stroke-linecap="round" stroke-linejoin="round" stroke-miterlimit="10" d="M181.103,199.338
			c-0.15-0.364,0.729-1.313,1.07-1.459"/>
		<path fill="none" stroke="#FFFFFF" stroke-linecap="round" stroke-linejoin="round" stroke-miterlimit="10" d="M183.747,202.148
			c-0.055,0.572-0.069,1.205-0.664,1.436"/>
		<path fill="none" stroke="#FFFFFF" stroke-linecap="round" stroke-linejoin="round" stroke-miterlimit="10" d="M185.591,205.291
			c0.307-0.456,0.551-1.143,0.741-1.69c0.065-0.183,0.128-0.422,0.134-0.611c0.006-0.154-0.104-0.289-0.017-0.435
			c0.127-0.219,0.911-0.409,1.143-0.528c0.279-0.149,0.612-0.342,0.812-0.575c0.277-0.327,0.473-0.671,0.35-1.083
			c-0.911-0.07-2.051-0.124-2.285-1.252c-0.087-0.425,0.155-0.97,0.354-1.329c-0.438-0.248-0.959-0.189-1.418-0.496
			c-0.325-0.216-0.869-0.47-0.991-0.871"/>
		<path fill="none" stroke="#FFFFFF" stroke-linecap="round" stroke-linejoin="round" stroke-miterlimit="10" d="M190.544,202.773
			c-0.523,0.047-1.146-0.685-1.391-1.103"/>
		<path fill="none" stroke="#FFFFFF" stroke-linecap="round" stroke-linejoin="round" stroke-miterlimit="10" d="M189.011,205.027
			c-0.795,0.111-1.609-0.609-1.926-1.269"/>
		<path fill="none" stroke="#FFFFFF" stroke-linecap="round" stroke-linejoin="round" stroke-miterlimit="10" d="M186.103,202.551
			c-0.338,0.018-0.808-0.368-0.91-0.701"/>
		<path fill="none" stroke="#FFFFFF" stroke-linecap="round" stroke-linejoin="round" stroke-miterlimit="10" d="M194.429,195.373
			c-0.58,0.265-1.121,0.703-1.697,1.004c0.052,0.5,0.143,1.062-0.09,1.541c-0.311,0.652-1.057,0.725-1.561,1.147
			c0.191,0.695,0.771,1.865,1.533,2.092c0.809,0.243,1.894-0.446,2.211-1.163c0.287-0.646-0.04-0.623,0.719-0.74
			c0.583-0.09,0.755-0.655,1.066-1.072c-0.084-0.284-0.354-0.387-0.562-0.58c-0.3-0.275-0.511-0.602-0.691-0.957
			c-0.271-0.524-0.516-1.046-0.586-1.626c0.465-0.301,1.217-0.341,1.521-0.883c0.159-0.285,0.004-0.259,0.344-0.431
			c0.399-0.2,0.971-0.17,1.192-0.637c0.112-0.237,0.036-0.477,0.019-0.718c-0.029-0.436,0-0.364,0.482-0.593
			c0.652-0.307,1.76-0.792,1.348-1.671"/>
		<path fill="none" stroke="#FFFFFF" stroke-linecap="round" stroke-linejoin="round" stroke-miterlimit="10" d="M194.935,202.264
			c-0.219-0.198-0.461-0.792-0.393-1.109"/>
		<path fill="none" stroke="#FFFFFF" stroke-linecap="round" stroke-linejoin="round" stroke-miterlimit="10" d="M192.345,202.431
			c0.156-0.193,0.211-0.435,0.271-0.668"/>
		<path fill="none" stroke="#FFFFFF" stroke-linecap="round" stroke-linejoin="round" stroke-miterlimit="10" d="M194.513,199.127
			c-0.529,0.136-1.281-0.44-1.531-0.871"/>
		<path fill="none" stroke="#FFFFFF" stroke-linecap="round" stroke-linejoin="round" stroke-miterlimit="10" d="M191.336,198.482
			c-1.3,0.141-2.063-1.452-2.507-2.423c0.354-0.296,0.537-0.723,0.844-1.056c0.16-0.176,0.501-0.328,0.59-0.553
			c0.189-0.482-0.732-0.7-1.061-0.868c-0.641-0.334-1.479-0.431-1.729-1.221c-0.172-0.537-0.05-0.733,0.252-1.169
			c0.252-0.368,0.478-0.458,0.844-0.677c0.42-0.251,0.285-0.674,0.604-1.033c0.303-0.338,0.612-0.49,1.028-0.688
			c0.192-0.092,0.274-0.137,0.366-0.282c0.121-0.197,0.15-0.516,0.311-0.74c-0.217-0.176-0.5-0.226-0.716-0.432
			c-0.146-0.135-0.286-0.296-0.406-0.457c-0.167-0.223-0.286-0.504-0.454-0.712"/>
		<path fill="none" stroke="#FFFFFF" stroke-linecap="round" stroke-linejoin="round" stroke-miterlimit="10" d="M187.216,197.696
			c0.223-0.32,0.581-0.457,0.803-0.774c0.121-0.175,0.17-0.445,0.352-0.565c-0.037-0.155-0.09-0.085-0.201-0.172
			c-0.289-0.223-0.848-0.243-1.186-0.484c-0.479-0.341-0.857-0.991-1.014-1.563c-0.107-0.401,0.211-0.884,0.5-1.18
			c-0.841-0.103-1.262-0.211-1.88-0.857c-0.308-0.329-0.501-0.667-0.692-1.07"/>
		<path fill="none" stroke="#FFFFFF" stroke-linecap="round" stroke-linejoin="round" stroke-miterlimit="10" d="M184.911,189.18
			c1.037-0.335,2.064,0.845,2.609,1.576"/>
		<path fill="none" stroke="#FFFFFF" stroke-linecap="round" stroke-linejoin="round" stroke-miterlimit="10" d="M188.866,189.169
			c-0.842-0.051-1.491-0.718-1.805-1.452"/>
		<path fill="none" stroke="#FFFFFF" stroke-linecap="round" stroke-linejoin="round" stroke-miterlimit="10" d="M190.817,199.516
			c-0.508,0.484-1.057,0.729-1.685,0.952"/>
		<path fill="none" stroke="#FFFFFF" stroke-linecap="round" stroke-linejoin="round" stroke-miterlimit="10" d="M190.483,194.962
			c0.643,0.373,1.307,0.624,1.972,0.83"/>
		<path fill="none" stroke="#FFFFFF" stroke-linecap="round" stroke-linejoin="round" stroke-miterlimit="10" d="M190.353,193.521
			c-0.045-0.347,0.168-1.049,0.558-1.134c0.567-0.129,1.077,0.133,1.433-0.487c0.111-0.197,0.148-0.674,0.307-0.818
			c0.226-0.21,0.66-0.057,0.928-0.229c0.494-0.312,0.63-1.146,1-1.597c-0.545-0.662-1.668-0.912-2.223-1.586
			c-0.427-0.517-0.359-1.131,0.062-1.626c0.114-0.136,0.272-0.191,0.433-0.263c0.443-0.202,0.588-0.334,0.771-0.809
			c0.076-0.2,0.09-0.694,0.214-0.833c0.146-0.163,0.718-0.294,0.925-0.382c0.336,0.35,0.814,0.582,1.221,0.843
			c0.385,0.245,0.729,0.593,1.143,0.783c0.551,0.252,1.05,0.048,1.327-0.464c0.079-0.149,0.155-0.508,0.274-0.611
			c0.141-0.119,0.621-0.088,0.854-0.177c0.659-0.25,1.134-0.885,1.216-1.569c0.498,0.327,1.066,0.584,1.6,0.84
			c0.431,0.203,1.041,0.64,1.529,0.676c0.295,0.022,0.713-0.185,0.957-0.334c0.395-0.243,0.232-0.331,0.25-0.741"/>
		<path fill="none" stroke="#FFFFFF" stroke-linecap="round" stroke-linejoin="round" stroke-miterlimit="10" d="M206.606,185.728
			c-0.561,0.265-1.902-0.463-2.082-1.071"/>
		<path fill="none" stroke="#FFFFFF" stroke-linecap="round" stroke-linejoin="round" stroke-miterlimit="10" d="M204.094,184.9
			c0.161,1.256-1.526,1.109-1.933,1.891c-0.195,0.371-0.18,1.352,0.07,1.604c0.104,0.111,0.426,0.147,0.57,0.235
			c0.174,0.102,0.305,0.236,0.45,0.366c0.147,0.13,0.304,0.345,0.446,0.423"/>
		<path fill="none" stroke="#FFFFFF" stroke-linecap="round" stroke-linejoin="round" stroke-miterlimit="10" d="M205.239,187.534
			c-0.33-0.063-0.631-0.581-0.969-0.756c-0.302-0.159-0.584-0.058-0.881-0.173"/>
		<path fill="none" stroke="#FFFFFF" stroke-linecap="round" stroke-linejoin="round" stroke-miterlimit="10" d="M202.017,186.077
			c-0.688-0.023-1.461-1.146-1.762-1.722"/>
		<path fill="none" stroke="#FFFFFF" stroke-linecap="round" stroke-linejoin="round" stroke-miterlimit="10" d="M201.919,187.206
			c-0.201,0.276-0.328,0.855-0.631,1.04c-0.377,0.226-0.754-0.3-1.107-0.531c-0.744-0.491-1.51-0.982-2.244-1.438
			c-0.713,0.321-0.35,1.751-1.401,1.801c-0.503,0.024-0.978-0.472-1.36-0.718c-0.439-0.28-0.906-0.551-1.229-0.977"/>
		<path fill="none" stroke="#FFFFFF" stroke-linecap="round" stroke-linejoin="round" stroke-miterlimit="10" d="M202.401,191.192
			c-0.361-0.156-0.76-0.184-1.146-0.414c-0.373-0.224-0.646-0.432-0.938-0.741"/>
		<path fill="none" stroke="#FFFFFF" stroke-linecap="round" stroke-linejoin="round" stroke-miterlimit="10" d="M200.618,188.438
			c0.104,0.594-0.404,1.416-1.025,1.648"/>
		<path fill="none" stroke="#FFFFFF" stroke-linecap="round" stroke-linejoin="round" stroke-miterlimit="10" d="M195.595,188.489
			c-0.009,0.382-0.434,0.679-0.457,1.057c-0.022,0.389,0.281,0.658,0.533,0.92c0.568,0.585,1.305,1.165,2.1,1.346"/>
		<path fill="none" stroke="#FFFFFF" stroke-linecap="round" stroke-linejoin="round" stroke-miterlimit="10" d="M195.923,193.298
			c-0.927-0.345-1.398-1.294-1.786-2.125"/>
		<path fill="none" stroke="#FFFFFF" stroke-linecap="round" stroke-linejoin="round" stroke-miterlimit="10" d="M194.328,194.711
			c-0.808-0.477-1.196-1.406-1.578-2.225"/>
		<path fill="none" stroke="#FFFFFF" stroke-linecap="round" stroke-linejoin="round" stroke-miterlimit="10" d="M196.683,194.57
			c0.461,0.743,1.178,1.207,1.532,2.036c0.31,0.727-0.532,1.344-1.192,1.542c-0.021-0.026-0.035-0.055-0.047-0.087"/>
		<path fill="none" stroke="#FFFFFF" stroke-linecap="round" stroke-linejoin="round" stroke-miterlimit="10" d="M199.72,194.739
			c-0.81-0.242-1.188-0.761-1.879-1.169"/>
		<path fill="none" stroke="#FFFFFF" stroke-linecap="round" stroke-linejoin="round" stroke-miterlimit="10" d="M199.431,191.702
			c0.279,0.537,1.164,1.326,1.717,1.451"/>
		<path fill="none" stroke="#FFFFFF" stroke-linecap="round" stroke-linejoin="round" stroke-miterlimit="10" d="M199.272,190.025
			c-1.025-0.014-2.051-0.72-2.543-1.605"/>
		<path fill="none" stroke="#FFFFFF" stroke-linecap="round" stroke-linejoin="round" stroke-miterlimit="10" d="M200.474,182.503
			c-0.562-0.362-1.164-0.631-1.633-1.123c-0.119-0.125-0.305-0.491-0.436-0.547c-0.467-0.214-1.133,0.407-1.459,0.623
			c0.061,0.27-0.12,0.491-0.16,0.757c-0.016,0.11-0.145,0.132-0.084,0.261c0.059,0.133,0.396,0.257,0.512,0.347
			c0.587,0.464,0.92,1.015,1.229,1.674"/>
		<path fill="none" stroke="#FFFFFF" stroke-linecap="round" stroke-linejoin="round" stroke-miterlimit="10" d="M194.915,183.634
			c-0.072-0.229,0.377-0.933,0.552-1.134c0.288-0.327,0.704-0.365,1.081-0.461"/>
		<path fill="none" stroke="#FFFFFF" stroke-linecap="round" stroke-linejoin="round" stroke-miterlimit="10" d="M193.657,183.889
			c-0.426,0.118-1.596-0.69-1.881-1.082"/>
		<path fill="none" stroke="#FFFFFF" stroke-linecap="round" stroke-linejoin="round" stroke-miterlimit="10" d="M192.423,185.8
			c-0.732,0.081-1.585-0.781-1.889-1.368"/>
		<path fill="none" stroke="#FFFFFF" stroke-linecap="round" stroke-linejoin="round" stroke-miterlimit="10" d="M192.681,190.641
			c-0.604,0.202-1.763-0.999-1.936-1.557"/>
		<path fill="none" stroke="#FFFFFF" stroke-linecap="round" stroke-linejoin="round" stroke-miterlimit="10" d="M190.628,192.141
			c-0.329,0.009-1.018-0.674-1.211-0.94c-0.195-0.269-0.307-0.613-0.447-0.912"/>
	</g>
</g>
</svg>
