<svg xmlns="http://www.w3.org/2000/svg" width="1366" height="958.031" viewBox="0 0 1366 958.031"><path fill="#9DDFF8" d="M.105 3.465c1.986-1.954 5.957-1.954 7.943 0 1.986 1.955 5.957 1.955 7.942 0 1.985-1.954 5.958-1.954 7.944 0 1.986 1.955 5.957 1.955 7.943 0 1.985-1.954 5.959-1.954 7.943 0 1.986 1.955 5.958 1.955 7.943 0 1.986-1.954 5.957-1.954 7.944 0 1.985 1.955 5.956 1.955 7.943 0 1.985-1.954 5.958-1.954 7.942 0 1.987 1.955 5.959 1.955 7.943 0 1.987-1.954 5.958-1.954 7.945 0 1.984 1.955 5.956 1.955 7.943 0 1.983-1.954 5.957-1.954 7.942 0 1.985 1.955 5.958 1.955 7.944 0 1.984-1.954 5.957-1.954 7.941 0 1.986 1.955 5.959 1.955 7.944 0 1.985-1.954 5.958-1.954 7.944 0 1.986 1.955 5.957 1.955 7.943 0 1.985-1.954 5.957-1.954 7.942 0 1.987 1.955 5.958 1.955 7.944 0 1.985-1.954 5.957-1.954 7.943 0 1.985 1.955 5.958 1.955 7.943 0 1.986-1.954 5.958-1.954 7.943 0 1.985 1.955 5.957 1.955 7.943 0 1.985-1.954 5.958-1.954 7.943 0 1.986 1.955 5.958 1.955 7.943 0 1.986-1.954 5.957-1.954 7.943 0 1.986 1.955 5.958 1.955 7.943 0 1.986-1.954 5.957-1.954 7.943 0 1.986 1.955 5.957 1.955 7.944 0 1.985-1.954 5.958-1.954 7.942 0 1.986 1.955 5.959 1.955 7.943 0 1.986-1.954 5.958-1.954 7.945 0 1.984 1.955 5.956 1.955 7.941 0 1.986-1.954 5.959-1.954 7.943 0 1.987 1.955 5.959 1.955 7.944 0 1.985-1.954 5.957-1.954 7.944 0 1.985 1.955 5.957 1.955 7.942 0 1.986-1.954 5.958-1.954 7.944 0 1.986 1.955 5.957 1.955 7.943 0 1.986-1.954 5.957-1.954 7.943 0 1.984 1.955 5.957 1.955 7.943 0 1.984-1.954 5.957-1.954 7.943 0 1.986 1.955 5.959 1.955 7.942 0 1.987-1.954 5.959-1.954 7.944 0 1.986 1.955 5.957 1.955 7.943 0 1.986-1.954 5.957-1.954 7.943 0 1.986 1.955 5.958 1.955 7.943 0 1.986-1.954 5.957-1.954 7.943 0 1.987 1.955 5.958 1.955 7.944 0 1.985-1.954 5.957-1.954 7.944 0 1.983 1.955 5.957 1.955 7.942 0 1.986-1.954 5.958-1.954 7.943 0 1.985 1.955 5.958 1.955 7.944 0 1.984-1.954 5.957-1.954 7.942 0 1.985 1.955 5.958 1.955 7.942 0 1.988-1.954 5.959-1.954 7.945 0 1.985 1.955 5.957 1.955 7.942 0 1.985-1.954 5.958-1.954 7.944 0 1.986 1.955 5.957 1.955 7.943 0 1.986-1.954 5.957-1.954 7.943 0 1.984 1.955 5.958 1.955 7.943 0 1.985-1.954 5.957-1.954 7.943 0 1.985 1.955 5.957 1.955 7.943 0 1.984-1.954 5.959-1.954 7.943 0 1.986 1.955 5.957 1.955 7.942 0 1.987-1.954 5.958-1.954 7.945 0 1.985 1.955 5.957 1.955 7.942 0 1.986-1.954 5.957-1.954 7.943 0 1.987 1.955 5.958 1.955 7.943 0 1.986-1.954 5.959-1.954 7.945 0 1.984 1.955 5.957 1.955 7.942 0 1.985-1.954 5.957-1.954 7.942 0 1.986 1.955 5.959 1.955 7.943 0 1.987-1.954 5.959-1.954 7.943 0 1.986 1.955 5.958 1.955 7.945 0 1.984-1.954 5.955-1.954 7.942 0 1.986 1.955 5.958 1.955 7.943 0 1.987-1.954 5.958-1.954 7.944 0 1.985 1.955 5.957 1.955 7.943 0 1.985-1.954 5.957-1.954 7.943 0 1.984 1.955 5.958 1.955 7.943 0 1.985-1.954 5.957-1.954 7.942 0 1.987 1.955 5.959 1.955 7.944 0 1.986-1.954 5.957-1.954 7.943 0 1.985 1.955 5.957 1.955 7.943 0 1.987-1.954 5.958-1.954 7.943 0 1.986 1.955 5.958 1.955 7.943 0 1.986-1.954 5.957-1.954 7.944 0 1.985 1.955 5.957 1.955 7.943 0 1.984-1.954 5.958-1.954 7.943 0 1.985 1.955 5.957 1.955 7.942 0 1.986-1.954 5.959-1.954 7.943 0 1.986 1.955 5.958 1.955 7.944 0 1.985-1.954 5.957-1.954 7.943 0 1.986 1.955 5.958 1.955 7.942 0 1.987-1.954 5.958-1.954 7.945 0 1.985 1.955 5.956 1.955 7.943 0 1.984-1.954 5.957-1.954 7.942 0 1.986 1.955 5.958 1.955 7.944 0 1.985-1.954 5.957-1.954 7.943 0 1.984 1.955 5.958 1.955 7.942 0 1.986-1.954 5.958-1.954 7.944 0 1.986 1.955 5.957 1.955 7.943 0 1.985-1.954 5.958-1.954 7.942 0 1.987 1.955 5.958 1.955 7.945 0 1.985-1.954 5.956-1.954 7.942 0 1.985 1.955 5.959 1.955 7.943 0 1.987-1.954 5.958-1.954 7.943 0 1.985 1.955 5.958 1.955 7.944 0 1.984-1.954 5.957-1.954 7.943 0 1.985 1.955 5.957 1.955 7.942 0 1.986-1.954 5.959-1.954 7.943 0 1.986 1.955 5.959 1.955 7.944 0 1.986-1.954 5.957-1.954 7.943 0 1.985 1.955 5.957 1.955 7.943 0 1.986-1.954 5.958-1.954 7.943 0 1.987 1.955 5.958 1.955 7.943 0 1.986-1.954 5.958-1.954 7.944 0 1.984 1.955 5.956 1.955 7.943 0 1.984-1.954 5.958-1.954 7.941 0 1.987 1.955 5.959 1.955 7.944 0 1.986-1.954 5.958-1.954 7.944 0 1.985 1.955 5.957 1.955 7.942 0 1.986-1.954 5.958-1.954 7.944 0 1.986 1.955 5.957 1.955 7.943 0 1.986-1.954 5.958-1.954 7.943 0 1.986 1.955 5.957 1.955 7.944 0 1.985-1.954 5.956-1.954 7.943 0 1.985 1.955 5.958 1.955 7.942 0 1.986-1.954 5.958-1.954 7.944 0 1.985 1.955 5.957 1.955 7.942 0 1.986-1.954 5.959-1.954 7.943 0 1.986 1.955 5.958 1.955 7.944 0 1.985-1.954 5.957-1.954 7.942 0 1.987 1.955 5.958 1.955 7.944 0 1.986-1.954 5.957-1.954 7.944 0 1.984 1.955 5.957 1.955 7.942 0 1.986-1.954 5.958-1.954 7.943 0 1.986 1.955 5.958 1.955 7.944 0 1.984-1.954 5.957-1.954 7.942 0 1.985 1.955 5.958 1.955 7.943 0 1.987-1.954 5.958-1.954 7.944 0 1.985 1.955 5.957 1.955 7.942 0 1.986-1.954 5.958-1.954 7.944 0 1.986 1.955 5.957 1.955 7.943 0 1.986-1.954 5.957-1.954 7.943 0 1.986 1.955 5.958 1.955 7.943 0 1.985-1.954 5.958-1.954 7.945 0 1.983 1.955 5.955 1.955 7.942 0 1.984-1.954 5.958-1.954 7.942 0 1.986 1.955 5.959 1.955 7.942 0 1.987-1.954 5.959-1.954 7.945 0 1.985 1.955 5.957 1.955 7.943 0 1.985-1.954 5.957-1.954 7.942 0 1.987 1.955 5.958 1.955 7.944 0 1.986-1.954 5.958-1.954 7.944 0 1.984 1.955 5.957 1.955 7.942 0 1.985-1.954 5.957-1.954 7.944 0 1.984 1.955 5.958 1.955 7.941 0 1.987-1.954 5.959-1.954 7.943 0 1.987 1.955 5.959 1.955 7.945 0 1.984-1.954 5.956-1.954 7.942 0 1.986 1.955 5.958 1.955 7.943 0 1.987-1.954 5.958-1.954 7.944 0 1.985 1.955 5.957 1.955 7.943 0 1.986-1.954 5.957-1.954 7.943 0 1.985 1.955 5.958 1.955 7.944 0 1.984-1.954 5.957-1.954 7.942 0 1.986 1.955 5.958 1.955 7.943 0 1.986-1.954 5.958-1.954 7.944 0 1.984 1.955 5.956 1.955 7.942 0v954.566H-.379L.105 3.465z"/></svg>