<svg xmlns="http://www.w3.org/2000/svg" xmlns:xlink="http://www.w3.org/1999/xlink" width="1364.484" height="526.5" viewBox="0 0 1364.484 526.5"><defs><path id="a" d="M0 2.53h1364.484V526.5H0z"/></defs><clipPath id="b"><use xlink:href="#a" overflow="visible"/></clipPath><path clip-path="url(#b)" fill="#00AEEF" d="M.483 3.996c1.983-1.955 5.948-1.955 7.93 0 1.983 1.955 5.948 1.955 7.93 0 1.983-1.955 5.948-1.955 7.931 0 1.982 1.955 5.947 1.955 7.93 0 1.982-1.955 5.948-1.955 7.93 0 1.983 1.955 5.948 1.955 7.93 0 1.983-1.955 5.948-1.955 7.931 0 1.982 1.955 5.947 1.955 7.93 0 1.982-1.955 5.948-1.955 7.93 0 1.983 1.955 5.948 1.955 7.93 0 1.983-1.955 5.948-1.955 7.931 0 1.982 1.955 5.947 1.955 7.93 0 1.982-1.955 5.947-1.955 7.93 0 1.983 1.955 5.948 1.955 7.93 0 1.983-1.955 5.948-1.955 7.93 0s5.948 1.955 7.931 0c1.982-1.955 5.947-1.955 7.931 0 1.982 1.955 5.947 1.955 7.929 0 1.983-1.955 5.948-1.955 7.93 0 1.983 1.955 5.948 1.955 7.931 0 1.982-1.955 5.947-1.955 7.93 0 1.982 1.955 5.948 1.955 7.93 0 1.983-1.955 5.948-1.955 7.93 0 1.983 1.955 5.948 1.955 7.931 0 1.982-1.955 5.947-1.955 7.93 0 1.982 1.955 5.947 1.955 7.929 0 1.984-1.955 5.949-1.955 7.931 0 1.983 1.955 5.949 1.955 7.931 0s5.947-1.955 7.93 0c1.982 1.955 5.947 1.955 7.93 0s5.948-1.955 7.93 0c1.983 1.955 5.948 1.955 7.93 0 1.983-1.955 5.948-1.955 7.931 0 1.982 1.955 5.947 1.955 7.93 0 1.982-1.955 5.948-1.955 7.93 0 1.983 1.955 5.948 1.955 7.93 0 1.983-1.955 5.947-1.955 7.931 0 1.982 1.955 5.947 1.955 7.93 0 1.982-1.955 5.948-1.955 7.93 0 1.983 1.955 5.948 1.955 7.93 0 1.983-1.955 5.948-1.955 7.931 0 1.982 1.955 5.947 1.955 7.93 0 1.982-1.955 5.947-1.955 7.93 0s5.948 1.955 7.93 0c1.983-1.955 5.948-1.955 7.93 0 1.983 1.955 5.948 1.955 7.931 0 1.982-1.955 5.947-1.955 7.93 0 1.982 1.955 5.948 1.955 7.93 0 1.983-1.955 5.948-1.955 7.93 0 1.984 1.955 5.948 1.955 7.931 0 1.981-1.955 5.946-1.955 7.93 0 1.982 1.955 5.948 1.955 7.93 0 1.983-1.955 5.948-1.955 7.931 0s5.947 1.955 7.931 0c1.982-1.955 5.947-1.955 7.93 0s5.947 1.955 7.931 0c1.982-1.955 5.947-1.955 7.93 0s5.948 1.955 7.93 0c1.982-1.955 5.948-1.955 7.932 0 1.981 1.955 5.946 1.955 7.931 0 1.981-1.955 5.947-1.955 7.929 0 1.982 1.955 5.947 1.955 7.93 0 1.983-1.955 5.948-1.955 7.932 0 1.982 1.955 5.947 1.955 7.931 0 1.981-1.955 5.947-1.955 7.931 0 1.982 1.955 5.947 1.955 7.93 0s5.948-1.955 7.932 0c1.981 1.955 5.946 1.955 7.931 0 1.981-1.955 5.946-1.955 7.929 0 1.984 1.955 5.949 1.955 7.932 0 1.983-1.955 5.948-1.955 7.932 0 1.982 1.955 5.946 1.955 7.93 0 1.982-1.955 5.947-1.955 7.931 0 1.982 1.955 5.947 1.955 7.931 0 1.982-1.955 5.947-1.955 7.93 0s5.948 1.955 7.932 0c1.981-1.955 5.945-1.955 7.931 0 1.981 1.955 5.947 1.955 7.93 0 1.983-1.955 5.948-1.955 7.931 0 1.983 1.955 5.946 1.955 7.932 0 1.981-1.955 5.946-1.955 7.93 0s5.948 1.955 7.931 0c1.983-1.955 5.947-1.955 7.931 0 1.982 1.955 5.947 1.955 7.931 0s5.947-1.955 7.931 0c1.981 1.955 5.946 1.955 7.931 0 1.981-1.955 5.948-1.955 7.93 0s5.947 1.955 7.93 0c1.984-1.955 5.947-1.955 7.932 0 1.98 1.955 5.947 1.955 7.93 0 1.984-1.955 5.949-1.955 7.932 0s5.947 1.955 7.93 0 5.949-1.955 7.932 0 5.947 1.955 7.932 0c1.98-1.955 5.945-1.955 7.93 0 1.982 1.955 5.947 1.955 7.93 0s5.947-1.955 7.932 0c1.982 1.955 5.945 1.955 7.93 0 1.98-1.955 5.947-1.955 7.93 0 1.984 1.955 5.949 1.955 7.932 0s5.947-1.955 7.93 0c1.98 1.955 5.949 1.955 7.932 0s5.947-1.955 7.932 0c1.98 1.955 5.945 1.955 7.93 0 1.982-1.955 5.947-1.955 7.93 0s5.947 1.955 7.932 0c1.98-1.955 5.945-1.955 7.93 0 1.982 1.955 5.947 1.955 7.93 0 1.984-1.955 5.949-1.955 7.93 0 1.984 1.955 5.949 1.955 7.934 0 1.98-1.955 5.945-1.955 7.93 0 1.982 1.955 5.947 1.955 7.93 0s5.947-1.955 7.932 0c1.982 1.955 5.947 1.955 7.93 0 1.984-1.955 5.947-1.955 7.932 0 1.982 1.955 5.945 1.955 7.93 0 1.982-1.955 5.949-1.955 7.93 0 1.984 1.955 5.949 1.955 7.932 0s5.947-1.955 7.932 0c1.98 1.955 5.945 1.955 7.93 0 1.982-1.955 5.947-1.955 7.93 0s5.947 1.955 7.932 0c1.982-1.955 5.945-1.955 7.93 0 1.982 1.955 5.947 1.955 7.932 0 1.982-1.955 5.947-1.955 7.93 0 1.984 1.955 5.947 1.955 7.93 0 1.984-1.955 5.949-1.955 7.932 0s5.947 1.955 7.932 0c1.98-1.955 5.945-1.955 7.93 0s5.947 1.955 7.93 0 5.949-1.955 7.932 0 5.947 1.955 7.932 0c1.98-1.955 5.945-1.955 7.93 0 1.982 1.955 5.947 1.955 7.93 0 1.984-1.955 5.947-1.955 7.932 0 1.982 1.955 5.947 1.955 7.93 0 1.984-1.955 5.947-1.955 7.932 0 1.98 1.955 5.947 1.955 7.93 0s5.947-1.955 7.93 0c1.984 1.955 5.949 1.955 7.934 0 1.98-1.955 5.945-1.955 7.93 0 1.98 1.955 5.947 1.955 7.93 0s5.947-1.955 7.93 0 5.947 1.955 7.932 0c1.982-1.955 5.947-1.955 7.93 0 1.984 1.955 5.947 1.955 7.932 0 1.982-1.955 5.947-1.955 7.93 0 1.984 1.955 5.949 1.955 7.932 0s5.947-1.955 7.93 0c1.984 1.955 5.947 1.955 7.932 0 1.98-1.955 5.947-1.955 7.93 0s5.947 1.955 7.93 0c1.984-1.955 5.949-1.955 7.932 0s5.947 1.955 7.932 0c1.98-1.955 5.947-1.955 7.93 0s5.947 1.955 7.932 0c1.982-1.955 5.945-1.955 7.93 0 1.982 1.955 5.947 1.955 7.93 0 1.984-1.955 5.947-1.955 7.932 0 1.982 1.955 5.947 1.955 7.93 0 1.984-1.955 5.949-1.955 7.93 0 1.984 1.955 5.949 1.955 7.934 0 1.98-1.955 5.945-1.955 7.93 0 1.982 1.955 5.947 1.955 7.93 0s5.947-1.955 7.932 0c1.982 1.955 5.947 1.955 7.93 0s5.947-1.955 7.932 0c1.982 1.955 5.947 1.955 7.93 0 1.984-1.955 5.947-1.955 7.93 0 1.984 1.955 5.949 1.955 7.932 0s5.947-1.955 7.93 0c1.984 1.955 5.947 1.955 7.932 0V526.5H0L.483 3.996z"/></svg>