<svg xmlns="http://www.w3.org/2000/svg" xmlns:xlink="http://www.w3.org/1999/xlink" width="1366" height="732" viewBox="0 0 1366 732"><defs><path id="a" d="M0 0h1366v732H0z"/></defs><clipPath id="b"><use xlink:href="#a" overflow="visible"/></clipPath><path clip-path="url(#b)" fill="#FFF200" d="M0 .092h1366V732H0z"/><defs><path id="c" d="M0 0h1366v732H0z"/></defs><clipPath id="d"><use xlink:href="#c" overflow="visible"/></clipPath><g clip-path="url(#d)"><defs><path id="e" d="M0 0h1366v732H0z"/></defs><clipPath id="f"><use xlink:href="#e" overflow="visible"/></clipPath><g clip-path="url(#f)"><defs><path id="g" d="M413 11.83h1968.939v676.34H413z"/></defs><defs><path id="i" d="M413 11.83h1968.939v676.34H413z"/></defs><defs><path id="k" d="M413 11.83h1968.939v676.34H413z"/></defs><defs><path id="m" d="M413 11.83h1968.939v676.34H413z"/></defs><defs><path id="o" d="M413 11.83h1968.939v676.34H413z"/></defs><defs><path id="q" d="M413 11.83h1968.939v676.34H413z"/></defs><defs><path id="s" d="M413 11.83h1968.939v676.34H413z"/></defs><defs><path id="u" d="M413 11.83h1968.939v676.34H413z"/></defs><defs><path id="w" d="M413 11.83h1968.939v676.34H413z"/></defs><defs><path id="y" d="M413 11.83h1968.939v676.34H413z"/></defs><defs><path id="A" d="M413 11.83h1968.939v676.34H413z"/></defs><defs><path id="C" d="M413 11.83h1968.939v676.34H413z"/></defs><clipPath id="h"><use xlink:href="#g" overflow="visible"/></clipPath><clipPath id="j" clip-path="url(#h)"><use xlink:href="#i" overflow="visible"/></clipPath><clipPath id="l" clip-path="url(#j)"><use xlink:href="#k" overflow="visible"/></clipPath><clipPath id="n" clip-path="url(#l)"><use xlink:href="#m" overflow="visible"/></clipPath><clipPath id="p" clip-path="url(#n)"><use xlink:href="#o" overflow="visible"/></clipPath><clipPath id="r" clip-path="url(#p)"><use xlink:href="#q" overflow="visible"/></clipPath><clipPath id="t" clip-path="url(#r)"><use xlink:href="#s" overflow="visible"/></clipPath><clipPath id="v" clip-path="url(#t)"><use xlink:href="#u" overflow="visible"/></clipPath><clipPath id="x" clip-path="url(#v)"><use xlink:href="#w" overflow="visible"/></clipPath><clipPath id="z" clip-path="url(#x)"><use xlink:href="#y" overflow="visible"/></clipPath><clipPath id="B" clip-path="url(#z)"><use xlink:href="#A" overflow="visible"/></clipPath><clipPath id="D" clip-path="url(#B)"><use xlink:href="#C" overflow="visible"/></clipPath><path clip-path="url(#D)" fill="#F9E816" d="M1655.689 347.211c-5.052 27.848-10.636 55.578-16.201 83.366-12.353 61.632-25.08 123.09-36.984 184.799-3.91 20.152-13.027 33.729-30.964 41.287-29.446 12.342-60.094 18.61-91.206 22.854-42.789 5.707-85.709 7.889-128.805 5.532-36.304-1.946-71.098-10.99-102.209-32.724-11.615-8.118-21.688-17.299-30.27-27.559H661.497c-15.508-.676-27.255-14.349-27.255-30.759 0-8.679 3.682-16.95 9.572-22.603 4.13-3.99 9.318-6.613 14.99-7.231.519-.076.975-.153 1.51-.153h212.043c.655 0 1.271 0 1.937-.074 13.354-1.18 24.109-13.598 24.109-28.6 0-14.31-9.871-26.496-22.441-28.387-1.201-.271-2.422-.348-3.604-.348h-331.88c-14.939 0-26.758-13.019-26.758-29.235 0-16.392 11.817-29.406 26.758-29.406h310.709c1.199 0 2.5-.175 3.611-.426 12.272-2.141 21.398-14.174 21.398-27.653 0-11.378-5.961-21.059-14.687-25.356-1.587-.83-3.319-1.505-5.048-1.91a25.375 25.375 0 0 0-5.744-.656h-230.17c-16.734 0-29.77-14.98-29.77-33.495 0-18.437 13.034-33.555 29.77-33.555l294.424-.559c14.92 0 26.143-12.998 26.143-28.812 0-12.784-7.521-23.777-18.384-27.363-2.473-.83-5.041-1.311-7.759-1.311l-279.88.752c-16.122 0-29.155-14.368-29.155-31.415 0-17.741 13.033-32.05 29.155-32.05 0 0 245.488 0 246.075-.675 3.989-.521 7.69-1.927 10.845-4.204 4.077-2.757 7.384-6.807 9.496-11.532a29.714 29.714 0 0 0 2.646-12.322v-.462s-.079-.311-.079-.367c-.396-14.019-10.178-25.899-22.907-27.19-.587-.733-1.883-.733-3.084-.733h-261.32c-14.298 0-26.668-12.883-26.668-29.369 0-16.392 12.37-29.333 26.668-29.333h685.359l-.158 1.582c32.018-28.251 69.09-46.223 111.256-54.189 66.214-12.303 132.27-11.146 198.175 2.411 9.556 1.929 19.05 5.167 28.024 9.295 11.959 5.458 17.025 15.234 15.588 29.332-3.066 30.293-12.502 58.739-24.939 85.755-5.041 10.857-14.754 15.214-25.599 13.729-20.251-2.716-40.38-6.459-60.56-9.428-27.887-4.225-55.746-5.054-83.771.231-33.354 6.401-23.754 24.483-42.137 54.394-28.246 45.993-40.826 98.019-46.561 152.38-3.32 32.228-4.218 64.584 1.656 96.558 5.276 28.927 15.744 55.036 41.72 67.858 32.393 16.008 31.994 15.957 65.07 4.193 7.521-2.739 11.379-10.104 12.938-18.378 3.92-19.573 7.469-39.225 11.526-60.572h-26.212c-12.491-.172-25.079.061-37.581-.48-14.236-.753-19.89-8.718-17.479-24.395 1.833-12.091 4.146-24.085 6.549-36.099 3.56-18.071 7.397-36.119 11.013-54.268 4.058-20.479 10.765-26.748 29.673-26.825 53.414-.097 106.812 0 160.216 0 2.41 0 4.9.251 7.293.561 14.167 1.661 20.647 10.377 17.867 25.592"/><path clip-path="url(#D)" fill="#FFF200" d="M489.129 477.188c0 16.258-12.052 29.483-26.824 29.483h-5.496c-7.383 0-14.078-3.312-18.979-8.579-4.804-5.421-7.828-12.786-7.828-20.904 0-16.219 12.055-29.466 26.809-29.466h5.496c7.38 0 14.088 3.297 18.917 8.601 4.881 5.399 7.905 12.764 7.905 20.865m95.879-240.994c0 17.065-13.104 32.05-29.211 32.05H540.86c-16.122 0-29.132-14.985-29.132-32.05 0-17.703 13.01-32.148 29.132-32.148h14.937c16.105 0 29.211 14.445 29.211 32.148"/></g></g></svg>