<svg xmlns="http://www.w3.org/2000/svg" width="1366" height="768" viewBox="0 0 1366 768"><path d="M881.676 367.583c.205.438.369.656.492.656 0-.328.055-.492.164-.492l.164.082c.014-.109.068-.164.164-.164.055.109.109.355.164.738.178-.164.451-.328.82-.492.246.205.547.943.902 2.215h.082l-.082.41v.246c.109.383.164.602.164.656v.246c.273.055.41.246.41.574.438-.109 1.75-.273 3.938-.492l.164.082c.328 0 .492-.273.492-.82 0-.273.027-1.285.082-3.035l.164-.082h.164c.041.383.15.574.328.574.041-.328.123-.492.246-.492.055 0 .082.027.082.082l.164-.082h.164l-.082.41c.109 0 .164.109.164.328h.082c0-.205.246-.396.738-.574.314.396.506.834.574 1.312h-.082l.41.984c.055.943.082 1.49.082 1.641l.164-.082c.697.369 1.135.643 1.312.82.492 1.34.793 2.543.902 3.609.15 0 .26.273.328.82v.164c0 .164-.246.301-.738.41a.647.647 0 0 1-.328-.082.647.647 0 0 1-.328.082c-.082-.068-.301-.15-.656-.246l-.164.082a.647.647 0 0 0-.328-.082l-.082 1.148h.082c2.871 0 4.32.328 4.348.984.109.15.219.396.328.738l-.082.164.41.902-.082.328.082.164a.647.647 0 0 0-.082.328c.109.014.164.068.164.164v.492c.273 0 .41.191.41.574v.164c-.109.219-.246.328-.41.328l-.328-.082a.62.62 0 0 1-.246.082c-.383-.164-.602-.246-.656-.246l-.492.082c0-.082-.109-.164-.328-.246-.178.109-.314.164-.41.164 0-.219-1.094-.328-3.281-.328a45.105 45.105 0 0 0-.41 5.906c-.068.438-.26.656-.574.656 0-.109-.055-.164-.164-.164l-.246.164c-.096-.109-.643-.246-1.641-.41l-.246.164c-.492-.533-.738-1.189-.738-1.969h.082c-.164-.396-.246-.725-.246-.984h.082l-.246-.82a.647.647 0 0 0 .082-.328l-.082-.164a.647.647 0 0 0 .082-.328l-.082-.328h.328v-1.477h-.082c-.424 0-1.682.219-3.773.656-.656.096-.984.287-.984.574-.109.587-.164 1.572-.164 2.953 0 .369.055.861.164 1.477l-.246.164h-.082l-.246-.164-.246.164c-.383-.164-.602-.246-.656-.246l-.164.082c-.424-.164-.697-.246-.82-.246l-.246.164c-.287 0-.643-1.395-1.066-4.183-.178-.109-.342-.164-.492-.164l-.41.082-.082-.164.082-.164c-.246 0-.41-.246-.492-.738l.082-.41-.164-.082.082-.41v-.082c-.137 0-.219-.137-.246-.41l.082-.492c-.096 0-.178-.164-.246-.492a.647.647 0 0 0 .082-.328l-.082-.164.082-.164-.082-.492c.998-.328 1.654-.52 1.969-.574.109-.314.164-.752.164-1.312h-.41c-.137-.109-.246-.164-.328-.164-1.094 0-1.641-.082-1.641-.246l.082-.164c-.246 0-.41-.246-.492-.738l.082-.41-.164-.082.082-.164v-.164a1.834 1.834 0 0 1-.246-.574l.082-.492c-.096 0-.178-.164-.246-.492a.647.647 0 0 0 .082-.328l-.085-.165.082-.164-.082-.492.164-.082h.574c2.133 0 3.199-.219 3.199-.656.383-2.051.574-3.719.574-5.004l.165-.082zm2.707 10.992c1.682-.164 2.775-.246 3.281-.246h.082c.273 0 .684.027 1.23.082l.164-1.395-4.676.82a4.16 4.16 0 0 1-.081.739zm28.711-9.803c.752 0 1.928.273 3.527.82 0 .109.246.219.738.328l.164-.082c1.695.383 2.543 1.504 2.543 3.363 0 1.572-.738 3.596-2.215 6.07-1.559 2.188-3.117 4.02-4.676 5.496-.807.656-1.791 1.093-2.953 1.312v.082l-.164-.082h-.738l-.574.082v-.082c-.055 0-.082.027-.082.082l-.41-.082h-.492v.656c0 .055-.027.082-.082.082 0 .055.027.082.082.082l-.164 1.23c0 .055.027.082.082.082l-.082.41v.082c0 .465-.027 1.203-.082 2.215-.055 0-.082.027-.082.082h.082a.62.62 0 0 0-.082.246l.082.164a.647.647 0 0 0-.082.328h.082l-.082.164.082.328-.082.492.082.164a.647.647 0 0 0-.082.328v.082c0 .123.027.232.082.328l-.082.164.082.82c0 .465-.109.738-.328.82 0 .109-.246.465-.738 1.066-.383.246-.574.52-.574.82h-.164v-.164h-.246v.164c-.273 0-.41-.055-.41-.164l-.164.082h-.082c-.027 0-.164-.109-.41-.328l-.164.082c-.041-.164-.15-.273-.328-.328a.62.62 0 0 1-.246.082l-.492-.328v-.082h-.164c-.506 0-.889-.219-1.148-.656l-.164.082h-.082c-.082 0-.164-.082-.246-.246.055-.301.082-.52.082-.656 0-.109-.027-.164-.082-.164l.082-.41v-2.133a.647.647 0 0 0-.082-.328.62.62 0 0 0 .082-.246c0-.314.055-1.6.164-3.855h.082c0-.055-.027-.082-.082-.082.109-1.203.191-1.805.246-1.805 0-.055-.027-.082-.082-.082.109-.725.164-1.216.164-1.476-.273-.055-.41-.164-.41-.328h-.164c-.314 0-.861-.273-1.641-.82.123-1.463.889-3.213 2.297-5.25.547-.643.82-1.271.82-1.887v-.492c0-.055.027-.082.082-.082 0-.055-.027-.082-.082-.082l.082-.82v-1.723l.082-.492c0-.055-.027-.082-.082-.082.137-.957.328-1.559.574-1.805l.164.082c.178-.602.342-.902.492-.902 0 .082.082.164.246.246.164-.656.328-.984.492-.984l.41.082.164-.082c.438.055.656.191.656.41.109 0 .164-.055.164-.164.369.164.588.246.656.246a.62.62 0 0 1 .246-.082c.027.205.41.424 1.148.656 0 .055.109.137.328.246 0-.123.027-.232.082-.328.41.109.684.164.82.164.944-.818 2.12-1.228 3.528-1.228zm.656 4.02c-.93.492-2.023 1.285-3.281 2.379l-1.723 1.805c-.055 1.039-.219 2.68-.492 4.922h-.082a.647.647 0 0 1 .082.328c1.477-.506 2.707-1.572 3.691-3.199 1.203-1.873 1.887-3.65 2.051-5.332l-.082-.164a.647.647 0 0 0 .082-.328c-.055 0-.082-.027-.082-.082h.082c-.082-.22-.164-.329-.246-.329zm9.105-3.671c1.531.26 2.522.554 2.974.882.26 0 .39.075.39.226.287-.055.499-.082.636-.082l.39.082v.205c-.328.273-.615 1.032-.861 2.276-.205 2.27-.308 3.466-.308 3.589h.082l-.082.144v.144c0 .15.027.226.082.226l-.082.369v2.851c0 .109.027.205.082.287 0 .055-.027.082-.082.082.055 1.34.13 2.27.226 2.789h-.082l.164.574h-.082l.246 1.025h-.082c.15.288.226.629.226 1.026 2.01-1.163 3.582-3.48 4.717-6.953.15-.26.308-.8.472-1.62.301-.984.718-2.837 1.251-5.558h.144a.62.62 0 0 0 .246.082v-.226c0-.205.075-.403.226-.595l.39.226c.123-.629.253-.943.39-.943l.246.144a.542.542 0 0 0 .308-.082l1.415.451a.502.502 0 0 1 .226-.082c.342.342.711.513 1.107.513 0 .068.075.144.226.226l.246-.144c.41 0 .615.171.615.513v.062c-.041 0-.062.027-.062.082h.062c-.52 3.432-.807 5.188-.861 5.271l.082.144c-.123.875-.198 1.312-.226 1.312 0 .055.027.082.082.082-.109.451-.219 1.135-.328 2.051 0 .041.027.062.082.062l-.164 1.107c0 .055.027.082.082.082l-.082.513v1.169l.082.718h-.082c.219 1.518.533 2.495.943 2.932l1.025.514v.225l-.39.082.164.205a4.056 4.056 0 0 0-.861.883c-.246.15-.403.225-.472.225l.062.369c-.041 0-.062.021-.062.062l-.164-.062h-.39c-.451 0-1.135-.219-2.051-.656-2.078-.711-3.117-1.518-3.117-2.42h-.082c-2.379 2.242-4.026 3.363-4.942 3.363h-.615c-.451 0-1.162-.197-2.133-.594-1.285-.451-2.222-1.012-2.81-1.682-.479-.588-.896-2.078-1.251-4.471v-.144h.062c0-.041-.021-.062-.062-.062a36.242 36.242 0 0 1-.082-1.989v-.205a.61.61 0 0 0-.082-.308.503.503 0 0 0 .082-.287l-.082-.287h.082l-.082-.144v-1.025c0-.164.027-.287.082-.369l-.082-.451v-.574c0-.055.027-.082.082-.082 0-.041-.027-.062-.082-.062l.082-.513v-.369c0-.424.027-1.087.082-1.989.041 0 .062-.021.062-.062h-.062a.627.627 0 0 0 .062-.226c0-1.121.239-2.27.718-3.445.068 0 .355-.314.861-.943.191 0 .376-.219.554-.656a.57.57 0 0 0 .222-.085zm20.098-1.19l.164.226.144-.082c.355.027.533.082.533.164l.144-.082h.082c0 .15.021.226.062.226.957.068 1.436.253 1.436.554h.369c.287.205.465.308.533.308 0-.055.021-.137.062-.246.178 0 .376.082.595.246l-.062.144v.164l.062.144c-.109 0-.205.41-.287 1.23h.062l-.205 1.148h.062c1.203-1.176 2.181-1.764 2.933-1.764.875 0 2.222.362 4.04 1.087.711 0 1.436.383 2.174 1.148v.308c-.205 0-.308.027-.308.082a.502.502 0 0 1 .082.226c-.109 0-.431.335-.964 1.005-.15 0-.226.075-.226.226a.627.627 0 0 1 .062.226l-.144.082c-.096 0-.144-.055-.144-.164l-.164.082c-.287 0-1.012-.253-2.174-.759h-.144c-1.408.328-2.782 1.962-4.122 4.901-.643 1.162-1.265 3.062-1.866 5.701 0 .301-.027.451-.082.451 0 .055.027.082.082.082l-.308 1.989.082.164a.545.545 0 0 0-.082.309.5.5 0 0 0 .082.225c-.055.41-.13.615-.226.615 0-.055-.027-.082-.082-.082 0 .26-.198.568-.595.924l-.595.697c0 .205-.055.307-.164.307a.623.623 0 0 1-.062-.225c-.082 0-.157.074-.226.225-.205-.082-.308-.156-.308-.225l-.144.082h-.164c-.041 0-.137-.104-.287-.309l-.144.062c-.232-.205-.362-.309-.39-.309-.041 0-.062.027-.062.082l-.984-.451c-.164 0-.485-.184-.964-.553-.137 0-.239-.076-.308-.227l.082-.389v-.451c0-.055-.027-.082-.082-.082l.082-.145v-1.086l.062-.145h-.062c.643-3.568.964-6.466.964-8.695v-.226c0-.055.027-.082.082-.082 0-.055-.027-.082-.082-.082.096-.807.171-1.702.226-2.687l-.082-.144c.055-.465.109-.697.164-.697 0-.055-.027-.082-.082-.082.123-1.791.226-2.687.308-2.687 0-.055-.027-.082-.082-.082.082-.711.26-1.066.533-1.066.15-.465.273-.697.369-.697l.308.226h.062c.042-.709.165-1.065.37-1.065zm21.718 1.19c.615 0 1.914.355 3.896 1.066.875 0 1.647.636 2.317 1.907 0 .068.096.123.287.164a.506.506 0 0 1 .205-.082c.26.273.697.526 1.312.759.014-.096.062-.144.144-.144h.062c.492 0 .738.485.738 1.456-.068.916-.116 1.449-.144 1.6.041.52.062.93.062 1.23v2.522c0 .246.027.629.082 1.148h-.082l.082.144c0 .916.191 1.887.574 2.912h.062l.226-.164c.492 0 .902.13 1.23.39.506 0 .889.103 1.148.308.164.137.451.26.861.369 0 .055.027.082.082.082l.431-.082h.062c.068 0 .144.082.226.246v.061c-.533.807-.991 1.348-1.374 1.621l.082.143v.082c-.533.451-1.333.678-2.399.678-1.299 0-3.028-.738-5.188-2.215 0-.068-.075-.145-.226-.227-2.229 3.363-4.368 5.045-6.419 5.045h-.226c-1.012 0-2.358-.457-4.04-1.373-1.148-.602-1.866-1.367-2.153-2.297-.191-.547-.287-1.033-.287-1.457v-.533a.61.61 0 0 0-.082-.308.542.542 0 0 0 .082-.308v-.062c0-.164-.027-.246-.082-.246.191-2.461.526-4.368 1.005-5.722.779-2.338 1.935-4.375 3.466-6.111 1.189-1.734 2.515-2.602 3.978-2.602zm-3.097 14.601v.677c0 .806.191 1.498.574 2.072 1.518-.561 3.056-2.468 4.614-5.722.725-1.928 1.203-3.534 1.436-4.819l-.205-1.62h.062c-.082-.232-.178-.355-.287-.369 0 .096-.048.144-.144.144l-.062-.144-.144.082c-.123 0-.198-.103-.226-.308h-.349c-.875-.492-1.312-.772-1.312-.841-.998.492-1.866 1.791-2.604 3.896-.902 2.174-1.353 4.491-1.353 6.952zm30.741-14.95c.752 0 1.928.273 3.527.82 0 .109.246.219.738.328l.164-.082c1.695.383 2.543 1.504 2.543 3.363 0 1.572-.738 3.596-2.215 6.07-1.559 2.188-3.117 4.02-4.676 5.496-.807.656-1.791 1.093-2.953 1.312v.082l-.164-.082h-.738l-.574.082v-.082c-.055 0-.082.027-.082.082l-.41-.082h-.492v.656c0 .055-.027.082-.082.082 0 .055.027.082.082.082l-.164 1.23c0 .055.027.082.082.082l-.082.41v.082c0 .465-.027 1.203-.082 2.215-.055 0-.082.027-.082.082h.082a.62.62 0 0 0-.082.246l.082.164a.647.647 0 0 0-.082.328h.082l-.082.164.082.328-.082.492.082.164a.647.647 0 0 0-.082.328v.082c0 .123.027.232.082.328l-.082.164.082.82c0 .465-.109.738-.328.82 0 .109-.246.465-.738 1.066-.383.246-.574.52-.574.82h-.164v-.164h-.246v.164c-.273 0-.41-.055-.41-.164l-.164.082h-.082c-.027 0-.164-.109-.41-.328l-.164.082c-.041-.164-.15-.273-.328-.328a.62.62 0 0 1-.246.082l-.492-.328v-.082h-.164c-.506 0-.889-.219-1.148-.656l-.164.082h-.082c-.082 0-.164-.082-.246-.246.055-.301.082-.52.082-.656 0-.109-.027-.164-.082-.164l.082-.41v-2.133a.647.647 0 0 0-.082-.328.62.62 0 0 0 .082-.246c0-.314.055-1.6.164-3.855h.082c0-.055-.027-.082-.082-.082.109-1.203.191-1.805.246-1.805 0-.055-.027-.082-.082-.082.109-.725.164-1.216.164-1.476-.273-.055-.41-.164-.41-.328h-.164c-.314 0-.861-.273-1.641-.82.123-1.463.889-3.213 2.297-5.25.547-.643.82-1.271.82-1.887v-.492c0-.055.027-.082.082-.082 0-.055-.027-.082-.082-.082l.082-.82v-1.723l.082-.492c0-.055-.027-.082-.082-.082.137-.957.328-1.559.574-1.805l.164.082c.178-.602.342-.902.492-.902 0 .082.082.164.246.246.164-.656.328-.984.492-.984l.41.082.164-.082c.438.055.656.191.656.41.109 0 .164-.055.164-.164.369.164.588.246.656.246a.62.62 0 0 1 .246-.082c.027.205.41.424 1.148.656 0 .055.109.137.328.246 0-.123.027-.232.082-.328.41.109.684.164.82.164.944-.818 2.12-1.228 3.528-1.228zm.657 4.02c-.93.492-2.023 1.285-3.281 2.379l-1.723 1.805c-.055 1.039-.219 2.68-.492 4.922h-.082a.647.647 0 0 1 .082.328c1.477-.506 2.707-1.572 3.691-3.199 1.203-1.873 1.887-3.65 2.051-5.332l-.082-.164a.647.647 0 0 0 .082-.328c-.055 0-.082-.027-.082-.082h.082c-.082-.22-.164-.329-.246-.329zm14.417-3.671c1.791.355 2.816.69 3.076 1.005 1.244 0 1.866.355 1.866 1.066v.082c-.205 0-.362.178-.472.533-.096 0-.301.232-.615.697-.164.109-.294.164-.39.164v.369l-.082.164c1.326.314 2.591.677 3.794 1.087.725 0 1.552.513 2.481 1.538.246.615.451 1.36.615 2.235l-.082.533v.533c0 .123.027.226.082.308l-.164.615h.082c-.328 1.545-.711 2.673-1.148 3.384-.889 1.531-2.256 3.2-4.102 5.004-1.477 1.135-2.974 1.701-4.491 1.701h-.308c-1.518 0-3.582-.771-6.193-2.316-1.23-.998-1.846-2.434-1.846-4.307v-.226c0-2.42.827-5.168 2.481-8.244.848-1.682 2.208-3.452 4.081-5.312.029-.176.473-.381 1.335-.613zm-1.477 9.782h.082c-.574 1.518-.861 2.851-.861 3.999 0 1.682.438 2.94 1.312 3.774 1.969-.643 3.391-1.641 4.266-2.995.82-1.736 1.23-3.199 1.23-4.389 0-.082-.027-.39-.082-.923h.082c-.232-1.545-.643-2.317-1.23-2.317-.588-.219-.923-.396-1.005-.533l-.164.062c-.807-.369-1.271-.649-1.395-.841v-.082h.861v-.144c-.205 0-.308-.055-.308-.164.014-.096.062-.144.144-.144l-.082-.164v-.144h.636c0-.096.048-.226.144-.39a.607.607 0 0 1-.082-.308l.164-.082h.472v-.144l-.164.062h-.082l-.39-.308c-.588 0-1.613 1.647-3.076 4.942l-.472 1.233zm4.553-5.927v.226h.246v-.082c0-.096-.055-.144-.164-.144h-.082zm10.623-5.045l.164.226.144-.082c.355.027.533.082.533.164l.144-.082h.082c0 .15.021.226.062.226.957.068 1.436.253 1.436.554h.369c.287.205.465.308.533.308 0-.055.021-.137.062-.246.178 0 .376.082.595.246l-.062.144v.164l.062.144c-.109 0-.205.41-.287 1.23h.062l-.205 1.148h.062c1.203-1.176 2.181-1.764 2.933-1.764.875 0 2.222.362 4.04 1.087.711 0 1.436.383 2.174 1.148v.308c-.205 0-.308.027-.308.082a.502.502 0 0 1 .082.226c-.109 0-.431.335-.964 1.005-.15 0-.226.075-.226.226a.627.627 0 0 1 .062.226l-.144.082c-.096 0-.144-.055-.144-.164l-.164.082c-.287 0-1.012-.253-2.174-.759h-.144c-1.408.328-2.782 1.962-4.122 4.901-.643 1.162-1.265 3.062-1.866 5.701 0 .301-.027.451-.082.451 0 .055.027.082.082.082l-.308 1.989.082.164a.545.545 0 0 0-.082.309.5.5 0 0 0 .082.225c-.055.41-.13.615-.226.615 0-.055-.027-.082-.082-.082 0 .26-.198.568-.595.924l-.595.697c0 .205-.055.307-.164.307a.623.623 0 0 1-.062-.225c-.082 0-.157.074-.226.225-.205-.082-.308-.156-.308-.225l-.144.082h-.164c-.041 0-.137-.104-.287-.309l-.144.062c-.232-.205-.362-.309-.39-.309-.041 0-.062.027-.062.082l-.984-.451c-.164 0-.485-.184-.964-.553-.137 0-.239-.076-.308-.227l.082-.389v-.451c0-.055-.027-.082-.082-.082l.082-.145v-1.086l.062-.145h-.062c.643-3.568.964-6.466.964-8.695v-.226c0-.055.027-.082.082-.082 0-.055-.027-.082-.082-.082.096-.807.171-1.702.226-2.687l-.082-.144c.055-.465.109-.697.164-.697 0-.055-.027-.082-.082-.082.123-1.791.226-2.687.308-2.687 0-.055-.027-.082-.082-.082.082-.711.26-1.066.533-1.066.15-.465.273-.697.369-.697l.308.226h.062c.042-.709.165-1.065.37-1.065zm15.196 1.477c.602.055.998.137 1.189.246 0-.055.027-.082.082-.082a.502.502 0 0 1 .082.226c.055 0 .082-.027.082-.082.479.041 1.039.253 1.682.636.191 0 .376.082.554.246l.41-.082h.308c.123 0 .232.287.328.861l-.082.164.082.472h-.082l.082.164v2.358c0 .055-.027.082-.082.082l.082.144a27.994 27.994 0 0 0-.082 1.107c.055.273.082.431.082.472a2.443 2.443 0 0 0-.082.636v.082h.082c1.326-2.256 3.268-4.703 5.824-7.342.369-.15.588-.226.656-.226 1.969.355 2.953.67 2.953.943.26 0 .472.055.636.164.027 0 .137-.027.328-.082.588 0 .882.369.882 1.107l-.882 7.711c0 .055.027.082.082.082l-.082.39v1.354c0 1.271.103 2.324.308 3.158-.055 0-.082.021-.082.062.068 0 .26.451.574 1.354.328.684.779 1.025 1.354 1.025l.082.143v.328h-.082l-.164-.082c-.014.219-.335.664-.964 1.334-.205 0-.308.184-.308.553h-.554c-.861 0-2.386-.629-4.573-1.887-1.012-.861-1.518-2.987-1.518-6.377v-.328l.082-.164c-.055 0-.082-.021-.082-.062h.082c0-.055-.027-.082-.082-.082l.082-.39v-.554h-.164c-1.135 1.873-2.276 4.286-3.425 7.24-.369.834-.957 1.674-1.764 2.521-.232.41-.581.807-1.046 1.189-.588 0-1.278-.211-2.071-.635l-1.682-.637c-.697-.383-1.046-.744-1.046-1.086v-.555c0-1.066.055-2.406.164-4.019h.082l-.082-.164.082-.308-.082-.164c.109 0 .294-2.078.554-6.234 0-.055-.027-.082-.082-.082l.082-.39v-3.548c0-.465-.055-.909-.164-1.333l.164-.082.246.164h.164v-.164a.542.542 0 0 0-.082-.308c.109-.178.164-.314.164-.41h.062l.328.246a.62.62 0 0 1 .246-.082v-.164l.082-.472a.502.502 0 0 1-.082-.226c.056.003.083-.025.083-.079zm26.148-.287c.615 0 1.914.355 3.896 1.066.875 0 1.647.636 2.317 1.907 0 .068.096.123.287.164a.506.506 0 0 1 .205-.082c.26.273.697.526 1.312.759.014-.096.062-.144.144-.144h.062c.492 0 .738.485.738 1.456-.068.916-.116 1.449-.144 1.6.041.52.062.93.062 1.23v2.522c0 .246.027.629.082 1.148h-.082l.082.144c0 .916.191 1.887.574 2.912h.062l.226-.164c.492 0 .902.13 1.23.39.506 0 .889.103 1.148.308.164.137.451.26.861.369 0 .055.027.082.082.082l.431-.082h.062c.068 0 .144.082.226.246v.061c-.533.807-.991 1.348-1.374 1.621l.082.143v.082c-.533.451-1.333.678-2.399.678-1.299 0-3.028-.738-5.188-2.215 0-.068-.075-.145-.226-.227-2.229 3.363-4.368 5.045-6.419 5.045h-.226c-1.012 0-2.358-.457-4.04-1.373-1.148-.602-1.866-1.367-2.153-2.297-.191-.547-.287-1.033-.287-1.457v-.533a.61.61 0 0 0-.082-.308.542.542 0 0 0 .082-.308v-.062c0-.164-.027-.246-.082-.246.191-2.461.526-4.368 1.005-5.722.779-2.338 1.935-4.375 3.466-6.111 1.189-1.734 2.515-2.602 3.978-2.602zm-3.097 14.601v.677c0 .806.191 1.498.574 2.072 1.518-.561 3.056-2.468 4.614-5.722.725-1.928 1.203-3.534 1.436-4.819l-.205-1.62h.062c-.082-.232-.178-.355-.287-.369 0 .096-.048.144-.144.144l-.062-.144-.144.082c-.123 0-.198-.103-.226-.308h-.349c-.875-.492-1.312-.772-1.312-.841-.998.492-1.866 1.791-2.604 3.896-.902 2.174-1.353 4.491-1.353 6.952zm23.358-20.979l.595.082c0-.055.027-.082.082-.082 0 .109.595.273 1.784.492.41.383.8.574 1.169.574 0 .055.089.109.267.164.014-.109.068-.164.164-.164h.246c.137.109.28.164.431.164v.164l-.595 1.641h.082l-1.436 6.234a.647.647 0 0 1 .082.328c.055 0 .082-.027.082-.082.67.096 1.265.314 1.784.656.342.109.622.164.841.164l.164-.082.595.246c-.096.273-.239.41-.431.41l.082.164v.082c-.451.342-.759.67-.923.984l-.41.164.082.41c-2.023.615-3.035 1.025-3.035 1.23-.123.438-.212.656-.267.656l.082.164c-.109.26-.417 1.381-.923 3.363h.082c-.109.178-.246.725-.41 1.641h.082c-.164.492-.28 1.094-.349 1.805l.082.328-.082.41c.041.328.103.492.185.492 1.859-.861 3.124-1.544 3.794-2.05.561.055.95.137 1.169.246 0-.055.027-.082.082-.082a.62.62 0 0 1 .082.246.69.69 0 0 0 .349-.082c.506.109.868.246 1.087.41.232.15.629.314 1.189.492.014-.109.068-.164.164-.164.055 0 .082.027.082.082l.185-.082c.219.082.328.164.328.246v.246c-.779.902-1.312 1.477-1.6 1.723 0 .396-.759.916-2.276 1.559-2.188 1.203-3.732 1.805-4.635 1.805h-.677c-.533-.082-1.743-.52-3.63-1.312-1.244-.697-1.866-1.436-1.866-2.215-.096 0-.15-.41-.164-1.23v-.328c0-1.695.649-4.867 1.948-9.515l-.759-.492c.014-.109.068-.164.164-.164h.082c.055 0 .082.027.082.082.232-.109.403-.164.513-.164v-.082c-.287 0-.431-.082-.431-.246.137-.219.308-.328.513-.328.164 0 .67-1.969 1.518-5.906.479-2.57.868-3.855 1.169-3.855.15 0 .294-.273.431-.82h.246l.185.082c.205-.604.369-.904.492-.904zm11.649 6.378c1.531.26 2.522.554 2.974.882.26 0 .39.075.39.226.287-.055.499-.082.636-.082l.39.082v.205c-.328.273-.615 1.032-.861 2.276-.205 2.27-.308 3.466-.308 3.589h.082l-.082.144v.144c0 .15.027.226.082.226l-.082.369v2.851c0 .109.027.205.082.287 0 .055-.027.082-.082.082.055 1.34.13 2.27.226 2.789h-.082l.164.574h-.082l.246 1.025h-.082c.15.288.226.629.226 1.026 2.01-1.163 3.582-3.48 4.717-6.953.15-.26.308-.8.472-1.62.301-.984.718-2.837 1.251-5.558h.144a.62.62 0 0 0 .246.082v-.226c0-.205.075-.403.226-.595l.39.226c.123-.629.253-.943.39-.943l.246.144a.542.542 0 0 0 .308-.082l1.415.451a.502.502 0 0 1 .226-.082c.342.342.711.513 1.107.513 0 .068.075.144.226.226l.246-.144c.41 0 .615.171.615.513v.062c-.041 0-.062.027-.062.082h.062c-.52 3.432-.807 5.188-.861 5.271l.082.144c-.123.875-.198 1.312-.226 1.312 0 .055.027.082.082.082-.109.451-.219 1.135-.328 2.051 0 .041.027.062.082.062l-.164 1.107c0 .055.027.082.082.082l-.082.513v1.169l.082.718h-.082c.219 1.518.533 2.495.943 2.932l1.025.514v.225l-.39.082.164.205a4.056 4.056 0 0 0-.861.883c-.246.15-.403.225-.472.225l.062.369c-.041 0-.062.021-.062.062l-.164-.062h-.39c-.451 0-1.135-.219-2.051-.656-2.078-.711-3.117-1.518-3.117-2.42h-.082c-2.379 2.242-4.026 3.363-4.942 3.363h-.615c-.451 0-1.162-.197-2.133-.594-1.285-.451-2.222-1.012-2.81-1.682-.479-.588-.896-2.078-1.251-4.471v-.144h.062c0-.041-.021-.062-.062-.062a36.242 36.242 0 0 1-.082-1.989v-.205a.61.61 0 0 0-.082-.308.503.503 0 0 0 .082-.287l-.082-.287h.082l-.082-.144v-1.025c0-.164.027-.287.082-.369l-.082-.451v-.574c0-.055.027-.082.082-.082 0-.041-.027-.062-.082-.062l.082-.513v-.369c0-.424.027-1.087.082-1.989.041 0 .062-.021.062-.062h-.062a.627.627 0 0 0 .062-.226c0-1.121.239-2.27.718-3.445.068 0 .355-.314.861-.943.191 0 .376-.219.554-.656a.582.582 0 0 0 .222-.085zm20.097-1.19l.164.226.144-.082c.355.027.533.082.533.164l.144-.082h.082c0 .15.021.226.062.226.957.068 1.436.253 1.436.554h.369c.287.205.465.308.533.308 0-.055.021-.137.062-.246.178 0 .376.082.595.246l-.062.144v.164l.062.144c-.109 0-.205.41-.287 1.23h.062l-.205 1.148h.062c1.203-1.176 2.181-1.764 2.933-1.764.875 0 2.222.362 4.04 1.087.711 0 1.436.383 2.174 1.148v.308c-.205 0-.308.027-.308.082a.502.502 0 0 1 .082.226c-.109 0-.431.335-.964 1.005-.15 0-.226.075-.226.226a.627.627 0 0 1 .062.226l-.144.082c-.096 0-.144-.055-.144-.164l-.164.082c-.287 0-1.012-.253-2.174-.759h-.144c-1.408.328-2.782 1.962-4.122 4.901-.643 1.162-1.265 3.062-1.866 5.701 0 .301-.027.451-.082.451 0 .055.027.082.082.082l-.308 1.989.082.164a.545.545 0 0 0-.082.309.5.5 0 0 0 .082.225c-.055.41-.13.615-.226.615 0-.055-.027-.082-.082-.082 0 .26-.198.568-.595.924l-.595.697c0 .205-.055.307-.164.307a.623.623 0 0 1-.062-.225c-.082 0-.157.074-.226.225-.205-.082-.308-.156-.308-.225l-.144.082h-.164c-.041 0-.137-.104-.287-.309l-.144.062c-.232-.205-.362-.309-.39-.309-.041 0-.062.027-.062.082l-.984-.451c-.164 0-.485-.184-.964-.553-.137 0-.239-.076-.308-.227l.082-.389v-.451c0-.055-.027-.082-.082-.082l.082-.145v-1.086l.062-.145h-.062c.643-3.568.964-6.466.964-8.695v-.226c0-.055.027-.082.082-.082 0-.055-.027-.082-.082-.082.096-.807.171-1.702.226-2.687l-.082-.144c.055-.465.109-.697.164-.697 0-.055-.027-.082-.082-.082.123-1.791.226-2.687.308-2.687 0-.055-.027-.082-.082-.082.082-.711.26-1.066.533-1.066.15-.465.273-.697.369-.697l.308.226h.062c.042-.709.165-1.065.37-1.065zm24.179 1.19h.349c1.121 0 2.481.362 4.081 1.087 1.531 0 2.297.779 2.297 2.338 0 1.49-.848 3.138-2.543 4.942-1.381 1.846-2.919 3.021-4.614 3.527a7.561 7.561 0 0 1-1.538.328l-.164-.082-.164.082c-.191 0-.793-.219-1.805-.656a4.21 4.21 0 0 1-.492-.103v.103c0 2.406.937 4.327 2.81 5.762 1.586-.26 2.946-.84 4.081-1.743.971.068 1.456.205 1.456.411.656 0 1.278.197 1.866.594.287 0 .431.082.431.246.15 0 .321-.055.513-.164.396.096.595.205.595.328v.082c-.848 1.121-1.388 1.682-1.62 1.682l.082.41c-1.846 1.23-3.521 1.846-5.024 1.846-2.379 0-5.305-1.059-8.777-3.178-1.818-1.463-2.728-3.555-2.728-6.276 0-2.639 1.251-5.182 3.753-7.629 2.078-2.119 3.753-3.261 5.024-3.425.887-.341 1.598-.512 2.131-.512zm-3.999 8.367h.082c1.477-.383 2.693-1.135 3.65-2.256.41-.793.615-1.381.615-1.764-2.898 1.477-4.347 2.817-4.347 4.02zm23.81-8.737c1.818.342 2.987.704 3.507 1.087.725 0 1.278.178 1.661.533-.055.451-.431 1.066-1.128 1.846-3.814 4.758-6.686 8.572-8.613 11.443 1.312.055 3.657.725 7.034 2.009 1.777 1.244 2.905 1.914 3.384 2.01l.144.227v.225c0 .109-.048.164-.144.164 0-.055-.027-.082-.082-.082l-.082.145v.082l.082.164c-.205.027-.479.307-.82.84-.246.137-.369.24-.369.309.041.096.062.17.062.225l-.144.082-.226-.143c0 .15-.048.225-.144.225-.205-.082-.308-.156-.308-.225l-.144.061h-.082c-.246-.205-.396-.307-.451-.307v.082c-1.955-.807-3.555-1.654-4.799-2.543-.41-.096-1.135-.172-2.174-.227-.875 0-2.297.383-4.266 1.148-.602 0-1.005-.129-1.21-.389l-.144.082c0-.096-.622-.377-1.866-.842l-.759-.553v-.082c1.053-1.395 3.001-4.123 5.845-8.183l4.204-5.394h-.144c-.725 0-2.529.438-5.414 1.312-.287 0-.984-.232-2.092-.697-.109 0-.232-.103-.369-.308l-.164.082c-.109-.027-.581-.314-1.415-.861 0-.068.103-.144.308-.226a.502.502 0 0 0 .226.082c0-.055.021-.082.062-.082l-.062-.164c0-.41.219-.615.656-.615l.164-.308c-.109 0-.164-.048-.164-.144.027-.109.157-.212.39-.308l.144.062c1.518-.561 3.644-1.046 6.378-1.456a17.507 17.507 0 0 1 3.138-.308h.082a.589.589 0 0 0 .308-.08zm14.827.37c.615 0 1.914.355 3.896 1.066.875 0 1.647.636 2.317 1.907 0 .068.096.123.287.164a.506.506 0 0 1 .205-.082c.26.273.697.526 1.312.759.014-.096.062-.144.144-.144h.062c.492 0 .738.485.738 1.456-.068.916-.116 1.449-.144 1.6.041.52.062.93.062 1.23v2.522c0 .246.027.629.082 1.148h-.082l.082.144c0 .916.191 1.887.574 2.912h.062l.226-.164c.492 0 .902.13 1.23.39.506 0 .889.103 1.148.308.164.137.451.26.861.369 0 .055.027.082.082.082l.431-.082h.062c.068 0 .144.082.226.246v.061c-.533.807-.991 1.348-1.374 1.621l.082.143v.082c-.533.451-1.333.678-2.399.678-1.299 0-3.028-.738-5.188-2.215 0-.068-.075-.145-.226-.227-2.229 3.363-4.368 5.045-6.419 5.045h-.226c-1.012 0-2.358-.457-4.04-1.373-1.148-.602-1.866-1.367-2.153-2.297-.191-.547-.287-1.033-.287-1.457v-.533a.61.61 0 0 0-.082-.308.542.542 0 0 0 .082-.308v-.062c0-.164-.027-.246-.082-.246.191-2.461.526-4.368 1.005-5.722.779-2.338 1.935-4.375 3.466-6.111 1.189-1.734 2.515-2.602 3.978-2.602zm-3.097 14.601v.677c0 .806.191 1.498.574 2.072 1.518-.561 3.056-2.468 4.614-5.722.725-1.928 1.203-3.534 1.436-4.819l-.205-1.62h.062c-.082-.232-.178-.355-.287-.369 0 .096-.048.144-.144.144l-.062-.144-.144.082c-.123 0-.198-.103-.226-.308h-.349c-.875-.492-1.312-.772-1.312-.841-.998.492-1.866 1.791-2.604 3.896-.902 2.174-1.353 4.491-1.353 6.952z" fill="#00AEEF"/></svg>