<svg xmlns="http://www.w3.org/2000/svg" width="298" height="442" viewBox="0 0 298 442"><g fill="none" stroke="#FFF" stroke-linecap="round" stroke-linejoin="round" stroke-miterlimit="10"><path d="M47.964 436.123s2.655-1.066 18.133-32.188c0 0 7.376-17.292 43.812-27.53 0 0 38.904-9.537 50.181-10.034 9.031-.396 28.994-9.009 70.334 29.69 0 0-2.071-15.033-21.875-25.366-19.801-10.331-29.368-10.012-32.026-11.146-2.662-1.136-11.853-.969-17.283-2.97-5.434-2.005-8.463 3.62-11.348 3.02-2.889-.604-15.839-2.672-23.806 2.736-7.964 5.403-20 5.614-23.415 6.985-3.416 1.372-13.25 1.581-22.768 9.154a3581.988 3581.988 0 0 0-13.347 10.649m19.752-44.224s-4.28-10.479-2.162-16.181c2.115-5.698.211-9.342.211-9.342-5.298-12.638.335-26.578.335-26.578s7.002-23.975-4.532-29.916c-7.781-4.009-12.446-17.256-15.454-21.996-3.006-4.741-8.406-8.304-14.329-7.686-5.922.616-11.508-1.77-11.508-1.77-18.926-8.696-29.648 4.646-29.648 4.646 7.132-4.189 20.224-3.716 26.769-1.395 6.554 2.324 29.948 15.841 29.203 24.957-.743 9.111.761 23.274 6.202 29.683 5.443 6.406 7.116 20.086 7.116 20.086s.793 7.812-3.989 10.173c-4.779 2.361-2.061 15.152 1.525 25.17 3.585 10.021-14.91 53.375-25.279 72.532l-7.916 12.658m36.242-56.214s4.761-13.815-3.345-29.809"/><path d="M80.294 353.607l17.397-37.748s1.335-8.354.936-19.881c0 0 1.526-22.928-9.227-31.995-10.75-9.067-4.046-18.702-2.038-25.626 2.013-6.924-9.451-14.879-9.451-14.879s-3.394-3.098-1.932-14.264c1.462-11.166-18.092-5.125-23.116-46.411-5.026-41.285-47.4-39.789-47.4-39.789s19.634-9.546 54.432 22.747c34.8 32.292 19.836 41.944 32.076 54.711 12.237 12.767 13.835 31.131 15.125 36.398 1.292 5.266-7.476 32.398-1.038 42.235 5.138 7.852 5.777 15.781 5.777 15.781m-30.991 81.472s16.558-29.97 29.194-34.718c12.637-4.75 56.992-29.688 96.539-18.479 39.549 11.21 45.963 16.069 70.904 28.359 0 0-4.289-9.848-14.266-14.104-9.975-4.254-13.314-9.688-18.188-11.531s-16.782-4.327-27.272-10.688c-10.489-6.362-27.292-6.219-35.571-1.731-8.279 4.482-23.043-1.814-35.483-.284-12.444 1.531-47.909 12.812-55.799 28.547m28.923-56.75s8.503-7.023 19.449-9.603"/><path d="M107.026 327.144s21.247-45.911 28.364-49.909c12.405-6.969 27.531-4.289 33.809-14.582 6.275-10.29 19.086-13.786 22.729-14.589 3.645-.806 21.229-10.519 26.855-17.077s12.588-.762 19.164-1.255c6.576-.496 37.32-9.55 54.591 31.772 0 0-.929-15.511-12.425-23.939-11.494-8.428-14.541-7.367-23.549-13.334-9.014-5.967-21.82-2.471-36.211-7.428-14.392-4.961-24.383-1.44-36.844 4.561-12.465 6.003-16.627 3.046-24.011 15.934-7.382 12.883-20.377 19.025-20.377 19.025m-28.446 32.908s21.795-37.767 16.331-68.626c-5.462-30.862-12.532-48.561-16.106-58.425-3.574-9.863-12.578-12.524-16.862-20.719-4.286-8.194 1.059-30.675-5.478-39.12 0 0-5.483-8.705-10.779-25.585-5.297-16.879-.674-27.168-10.103-46.518 0 0 38.122 45.501 53.23 104.056 0 0 4.678 21.097 16.12 51.207 0 0 14.671 35.26-1.555 57.813"/><path d="M140.233 195.492s1.846-8.012 7.521-18c5.677-9.987-.146-16.243-1.664-22.078-1.519-5.836 1.593-18.656 8.399-34.616 6.81-15.96 9.816-56.178 12.603-75.975 0 0 7.61 28.27 5.253 42.76M132.97 263.899c7.137-7.33 30.41-39.568 34.387-62.159 3.979-22.59 8.912-35.812 11.653-46.667 2.745-10.856 25.265-49.824 29.285-62.019 4.022-12.197 13.176-56.866 16.81-64.277 3.633-7.411-22.017 35.829-32.979 46.243"/><path d="M145.726 152.533c1.178-16.525 20.572-38.96 23.465-45.742 2.896-6.784 1.99-34.521 13.36-47.354 11.37-12.837 32.8-55.334 32.8-55.334S204.066 32.77 202.4 40.548c-1.668 7.777-4.283 21.28-8.336 28.748-4.049 7.47-3.139 24.128-3.465 33.185-.326 9.058-.447 24.331-11.682 41.233-11.232 16.902-7.342 25.802-21.66 46.879m15.544 25.083c-1.829-3.517-.062-13.804 9.656-24.339 9.718-10.54 36.632-57.805 36.632-57.805s-25.363 29.281-31.545 35.729c-6.186 6.453-20.822 28.175-19.385 36.474s4.642 9.941 4.642 9.941z"/><path d="M217.366 136.532s13.559-11.009 19.305-16.387c5.745-5.379-16.371 19.002-23.633 23.837m-39.707 62.064c-.838 2.217 2.479 7.482 2.479 7.482s-2.768-.265-3.625-1.888m4.002 5.933c3.912.621 13.11-4.315 20.024-16.87 6.917-12.556 43.22-53.062 43.22-53.062s-19.738 33.334-23.895 41.242c-4.157 7.911-20.123 28.678-28.451 29.944-8.326 1.265-10.898-1.254-10.898-1.254z"/><path d="M237.13 150.225s6.145-16.348 9.424-23.503c3.281-7.153-12.835 21.551-15.117 29.967m-46.284 57.331c-1.838 1.498-7.881.019-7.881.019s1.123 2.544 2.938 2.843m-8.293 8.93s1.947-4.642 3.34-4.685c.824-.022 2.702-.55 3.18-2.432m-8.288-6.232s-2.32 1.705-1.951 3.648c.369 1.945-14.975 29.568-14.975 29.568m83.155-124.706s6.068-3.312 6.913-4.261c.844-.948-1.326 6.517-3.558 8.234"/><path d="M244.606 122.579s2.166-1.949 4.045-2.844c1.883-.894-2.307 5.181-2.957 7.812"/><path d="M237.774 126.359s4.688-2.363 9.814-11.653c0 0-6.209 16.712-8.693 21.822m-66.65 75.302s.925 4.176 1.734 5.045c.812.868 6.045.141 6.045.141"/><path d="M225.321 163.731c.048-.056.137-.55-.047-.616 0 0 1.359-.862 1.002-1.954 0 0 1.729-.883 1.313-1.771 0 0 1.872-.898 1.827-1.912 0 0 1.479-1.418 1.016-2.412 0 0 1.611-1.077 1.166-2.028 0 0 1.413-.535 1.086-1.564 0 0 1.84-1.562 1.26-2.803 0 0 1.936-1.685 1.434-2.759 0 0 1.27-1.978.877-2.979 0 0 2.007-1.776 2.025-3.65a.805.805 0 0 0-.004-.139s1.471-1.894.223-3.277c0 0 .777-1.295.337-2.726 0 0 1.108-.919.247-2.279 0 0 1.496-1.38.419-2.612 0 0-.438-2.756-2.542-1.509 0 0-1.207-.37-2.613 1.091 0 0-1.531.062-2.742 1.408 0 0-1.688.435-2.418 1.353 0 0-1.332.22-2.068 1.496 0 0-1.469.225-2.7 1.622m-50.455 76.231s2.137 1.587 2.533 3.262c0 0 2.525.019 3.434 1.315m5.52-.858s-1.642-.632-1.64-1.442c0 0-2.293 3.059-4.305-.418 0 0-3.342-1.108-2.527-3.14 0 0-1.742.179-2.131-1.672 0 0-1.043.244-1.483-.252"/><path d="M238.534 133.205c-.83.022-1.307.249-2.098.562-.389-.752-.908-1.095-1.791-.653-.223-.604-.562-1.947-1.441-1.631.115-.709-.482-1.4-.994-1.826m5.766 5.976c-.207.167-.666.089-.985.173-.339.088-.65.265-.979.394.32-.462.719-1.032.516-1.65m-2.392-1.053c-.369.427-.77.651-1.203 1.052.627-.004.76.797 1.008 1.266.699-.28 1.066-.649 1.73-.19m-5.8-4.741c.469.198.817.104 1.219.449.364.312.479.621.716 1.063.291-.233.473-.505.84-.642"/><path d="M238.438 130.678c-.443.08-1.099.264-1.508.596-.463.376-.412.97-.794 1.289m.015-1.562c-.273-.589-.816-1.784-1.625-1.477.518-.493.41-.738.109-1.337m2.391-1.115c.109 1.054.465 2.002.902 2.959-.535-.692.437-1.404 1.01-1.619m-1.38 10.53c-.332-1.252-1.924-.426-2.638-.047.272.53.079 1.442-.362 1.854 1.066-.672 2.028.13 1.766 1.206m-9.876-8.392c.867.15 1.287 1.204 1.375 2.056.906-.448 2.018.313 2.361 1.138.687-.354 1.364-.277 1.785.372.453.694.438 1.174.081 1.866.595-.89 1.743-.735 2.556-.573m-6.529-6.16c.729.032 1.49.543 1.748 1.283m2.299-.733c.047.552.379 1.045.412 1.623-.656.33-1.615.542-1.795 1.373-.102-.595.156-1.282-.549-1.621m-.369-1.52c.344-.416.545-.857 1.044-1.097m5.112 4.859c-.021.511-.354 1.274-.891 1.43m-1.98.113c-.135-.488.422-1.143.646-1.521m1.571 6.85c-.627.149-1.156-.253-1.799.036.404.785.391 1.419-.35 1.896.479-.233 1.569.253 1.719.771"/><path d="M233.101 148.401c.256-.7-.759-2.581-1.666-2.434-.113-.409.352-1.236-.395-1.412.434-.563 1.232-1.245.775-1.977.645-.137 1.469-.44 1.395-1.202-.055-.569-.652-1.34-.967-1.783m2.097 1.595c-.308.227-.874.517-.93.907m-5.569-3.086c.293-.14 1.098-.37 1.446-.558.468-.249.458-.603.627-1.088m-.417 1.277c.314.41.568.888.707 1.388.115.416.16.856.064 1.281-.064.294-.305.356-.199.675.387-.083.633.142.977.267m-7.07-7.464c1.068.159 1.728.739 2.166 1.754-.404.22-1.404.598-1.271 1.206-.438-.057-.726-.229-1.188-.12-.184-.418-.271-1.016-.711-1.221m.248 1.982a12.48 12.48 0 0 0-.125 1.322c.887.112 1.223.475 1.416 1.437.572-.164.834-.482 1.443-.266.463.163.855.547 1.309.693-.164-.639.021-1.342.037-1.973-.604-.158-2.566-.342-2.49-1.144m2.936-.083c-.319-.691-.884-1.404-1.111-2.109.146-.079.327-.2.489-.24m-6.488 2.485c.426.271 1.023.54 1.307 1.055.283.523.23.322-.205.85-.305.369-.452.525-.238.99-.341-.318-.84-.024-1.238.048-.451-.852-.646-1.11-1.611-1.404m-1.867 1.817c.988.207 1.812.346 2.273 1.363.812-.351 1.252.283 1.541.981.174-.734 1.209-.736 1.717-.461.619.333 1.067 1.101 1.375 1.724.67-.282 1.278-.373 1.899-.545.394-.107.323.098.438-.407.058-.256.01-.581-.129-.818-.33-.566-1.443-1.126-2.049-1.45-.771-.412-.623.041-1.154.504-.238-.44-.363-.874-.771-1.193"/><path d="M226.877 143.18c.269-.449 1.088-1.006.919-1.506.346.219 1.059.354 1.473.129.146.294-.066.47-.021.772.043.279.265.569.373.828.146.348.188.879.446 1.118-1.164.279-2.071.191-2.975 1.141.481.398 1.237.328 1.682.896.332.418.621 1.191.692 1.697.446-.179.703-.426 1.136-.11.401.296.442 1.269.846 1.505.515.298 1.396-1.75 2.058-.966m-3.705-.967c.54.027 1.329-.946 1.214-1.322m-4.827-1.201c.02.418.35.839.386 1.28.034.481-.286 1.008-.226 1.487.078.597.346.358.729.688.344.297.504 1.001.715 1.41.963-.53 1.893.506 2.201 1.396-.213-.862 1.804-.604 2.152-.171m-13.596-7.67c-.411.384-1.045 1.451-.933 2.047.701.049 1.273.223 1.773.733.586-1.303 2.459-.204 2.799.793.814-.321 1.209-.471 1.922.143.699.609.996 1.353-.053 1.846.053.155-.002.334.075.485-.583.243-1.594.048-1.919.75.098-.906-.484-1.486-1.348-1.586.484-.191.775-.622.889-1.089m9.058 5.184c-1.176-.254-2.896.269-3.068 1.672.699.232 1.559.276 1.867 1.125m-2.079-5.328a2.759 2.759 0 0 1-.583 1.365c.612.203.905.583 1.171 1.201m-3.349-2.97c.232.489.957 1.211.971 1.785.004.344-.74 1.195-1.016 1.551 1.012.516 1.767.516 2.297 1.638m-3.876.25c1.979-.229.697-3.854-1.199-3.448a.755.755 0 0 0 .188-.75m-.935 1.045c-.231.312-.55.761-.821.983-.113-1.205-.996-2.595-2.188-2.943.312-.602.906-1.004 1.514-1.268-.404.318-.854-.238-1.012-.675-.17.277-.41.492-.699.66m-.711-4.138c-.729.09-1.375-1.213-1.652-1.8m-.522 1.057c-.463.216-.84.38-1.198.749-.358.37-.353.791-.681 1.146 1.334-.124 1.984.288 2.613 1.401-.068-.546.625-1.44 1.062-1.766m-3.184 6.09c-.779-2.005 2.569-2.888 3.188-.887.222-.254.502-.493.727-.736m-.865 1.487c.002.37-.1.688.123 1.013-.371.205-1.344.488-1.27.887.061-2.152-4-1.281-3.109.15m2.555-6.13c-.613.615-.877 1.426-.471 2.182m-1.437-3.663c-.531.534-1.365.584-1.355 1.565.004.356.354 1.085.592 1.298m1.572-.26c-.598.225-2.896.355-2.127 1.534m.484 2.346c-.344-.284-.398-.558-.823-.783-.405-.212-.907-.302-1.37-.141-.712.246-1.369 1.365-.438 1.812"/><path d="M213.708 150.07c-.541-.026-.828-.298-1.355-.18-.451.101-1.059.451-1.438.696.084.302-.064.492.014.781m13.278 4.228c.442.408.89.698 1.149 1.283.468-.14 1.289-.891 1.238-1.383m2.059 2.088c-.486.589-1.649-.445-1.812-.982m.338 2.753c-.943.081-1.846-.523-2.156-1.43m-2.172-1.899c-.244.388-.688.512-1.078.714.543.964-.385 2.473-1.254 2.947.826-.6 1.916.365 2.289 1.019.713-.242.771-.606 1.492-.413.471.129.672.367 1.025.603"/><path d="M222.731 157.368c.188.691 1.066.621 1.559.952.307.207.414.033.4.659-.013.364-.039.786-.438.927m-4.964-7.159c-.346-.043-.637-.303-.969-.313-.309-.009-.707.165-.979.203m1.155 3.052c-.342-.661-1.754-1.881-2.542-1.386m6.759.353c-.506-.477-.902-1.009-1.552-1.361m-.995.548c-.18.783-.09 1.393-.846 1.886.697.091 1.471.242 1.99.747m-2.445-.149c.195.493-.578 1.331-1.016 1.554 1.145-.153 2.061.165 2.477 1.308m-5.637-3.5c.281.23.965.226 1.354.496.48.338.884.79 1.16 1.31.133.245.293.535.273.799-.021.367-.363.761-.488 1.069.234.039.533-.047.762.057.243.11.497.503.646.705.197.261.314.543.465.825.834-.373 1.662-.352 2.197.436.312.46.416.897.303 1.396-.06.251-.223.59-.243.845-.041.455.218.343.673.428.961.186 1.262 1.054 1.641 1.777a.143.143 0 0 0-.088-.085m-.364-4.711c-.008.767-.797 1.243-1.264 1.674m3.27.393c-.312.146-.971.389-1.029.706.039-.547-.564-1.3-1.191-1.088m-14.362-7.725c.117-.55.752-1.149 1.275-1.305.6-.181.998.052 1.437.413m4.239.149c-.267.202-.717.81-.682 1.147-.68.361-1.354 1.05-1.508 1.83-.441-.615-1.314-1.656-2.152-1.705-.693-.04-1.51.567-1.777 1.165"/><path d="M214.022 154.708c-.397-.396-.658-.945-1.314-.97-.668-.024-1.766.534-1.701 1.292m5.478 4.242c-.328.435-.811 1.035-.627 1.618.104.342.723.536 1.052.828.415.367.751.853.981 1.355 1.006-.595 2.119 1.056 2.455 1.8-.164.18-.438.219-.609.381-.125.12-.195.408-.285.503-.15.16-.34.193-.475.384-.111.164-.229.5-.291.692-.039.13-.002.402-.057.496-.16.288-.805.311-1.062.522-.279.233-.957 1.093-.691 1.476-.992-.065-.877 1.286-1.008 1.848.459.173.777.383 1.049.776.107.162.412.637.506.681m-1.67-13.146c-.219-.358-.584-.581-.891-.877-.365-.355-.656-.604-1.156-.754-.859-.257-1.35.545-1.689 1.205-.348-.729-1.401-1.604-2.145-1.878-.99-.367-2.02.474-1.893 1.461-.027-.056-.098-.11-.125-.172-.395.041-1.195.427-1.432.747-.234.319-.07.837.104 1.151-.533.017-1.271.238-1.656.671-.453.506-.301.929-.053 1.464m4.412-6.81c-.218-.029-.379-.201-.584-.29-.338-.151-.429-.119-.793.016-.674.249-1.164.502-1.302 1.232"/><path d="M206.214 159.061c-.464.038-.768-.617-.914-.975-.209-.506.039-1.042.551-1.274.801-.363 1.395-.015 1.967.501m-2.727 3.271c-.527.079-.956-.402-1.145-.842m-.122 2.683c-.404.191-.995-.503-1.196-.775m-.256 2.579c-.354.143-.723-.104-.834-.444m-.213 2.31c-.381.135-.566-.24-.766-.479m.846 1.19c-.797.113-2.77.789-2.301 1.949m-1.024 1.647c-.45.148-1.146.34-1.392.774m1.918 2.857c-.395.028-1.156-.522-1.471-.822-.314-.307-.51-.652-.693-1.044m1.159 3.462c-.955-.158-1.562-1.122-1.941-1.928m-.409 3.777c-.162-.309-1.391-1.607-1.045-1.975m-.466 3.469c-.595-.334-.755-.549-1.034-1.144m-.377 2.68c-.555-.053-.918-.328-1.111-.773m2.148.581c-.133.129-.318.19-.488.27-.445.206-.707.428-1.005.823-.289.384-.445.694-.435 1.133-.399.122-.797.286-1.033.648a2.009 2.009 0 0 0-.239.546c-.017.075-.004.317-.026.358-.158.265-.768.346-1.021.615-.197.209-.482.577-.53.859-.02.113.164.246.088.347-.107.147-.844.011-1.076.193-.203.155-.388.537-.429.768-.067.358.123.378-.262.471-.41.1-.687.084-1.062.354m4.271-6.124c.097.364.499.412.745.614m-1.806 1.133c-.006.348.379.506.607.678m-2.021 1.026c.125.326.303.542.605.677"/><path d="M196.616 176.926c-.803.165-2.159.867-1.857 1.851.126.4.885.774 1.248 1.046.479.363 1.161.625 1.418 1.176-.015-.031-.009-.021-.009-.021m-2.116 1.605c-.328.079-1.016-.778-1.217-1.064-.212-.299-.482-.693-.564-1.056-.156-.671.349-1.207.865-1.541m3.775 1.658c-.369-.25.269-1.018.468-1.232.108-.115.335-.343.497-.39.17-.049.365.055.52-.027.312-.167.198-.866.438-1.205.049-.067.376-.309.356-.412-.037-.18-.871-.259-1.039-.318-.707-.242-1.955-1.03-1.562-1.946.201-.469 1.35-1.439 1.906-1.17m-2.426 2.131c-1.193 1.074-.314 2.766.629 3.752m1.957-.539c.807.577 1.783 1.309 2.365 2.103.323-.134.684-.415 1.043-.411-.166-.541.004-.992.436-1.32.363-.278.717-.248 1.117-.352-.062-.283.184-1.025.367-1.244.22-.255.537-.176.816-.286.646-.256.444-1.498 1.176-1.7-.604-.409-1.389-.474-2.004-.896-.455-.312-.88-.642-1.102-1.155m11.092-13.054c-.483.173-.685.719-.831 1.149-.154.467-.211.455.129.812.309.325.666.464 1.02.725.307.227.496.588.664.926.662-.186 1.051-.553 1.705-.061.23.176.533.458.703.695.102.143.174.428.25.433m3.322 1.579c-.574-.496-1.395-1.414-2.27-1.109m.539 3.207c-.1-.077-.107-.195-.188-.312a2.689 2.689 0 0 0-.695-.767 1.784 1.784 0 0 0-.723-.299m.095 2.877c-.229-.747-1.174-1.093-1.865-1.048m-.825-.699c-.695-.938-2.012-1.419-3.119-.964m4.511-.521c-.241-.723-1.468-1.37-2.188-1.471-.92-.134-1.465 1.052-1.825 1.719m2.328-2.963c-.137.207-.188.581-.191.841m-1.248-.169c-.527-.636-1.084-1.061-1.79-1.493-.024-.403.327-1.334.79-1.46m.672-1.689c-.357-.76-.625-1.159-1.345-1.54m-1.493.197c-.25.427-.547.953-.664 1.44.415.235.887.32 1.273.656.318.276.527.647.796.917m-2.593-1.628c-.524.369-.812 1.021-.666 1.615.106.432.52.646.916.91.295.201.854.477.927.888.056.329-.3 1.027-.403 1.363-.857-.027-1.99.541-1.266 1.485.416.539 1.199.851 1.711 1.31.283.256.381.631.632.866"/><path d="M213.188 167.396c-.281-.305-.328-.447-.722-.653-.323-.173-.663-.36-.97-.558m.974-2.205a5.214 5.214 0 0 0-.789.452m-2.049 1.33c-.527-.318-.922-.753-1.49-1.027-.285-.138-.57-.263-.791-.447.01-.571.424-1.499.928-1.771.543-.293.82-.086 1.233.217m.26-2.123c-.418-.49-.688-1.507-1.445-1.577m-1.162 4.836c-.752-.595-1.664-1.905-2.814-1.189-.543.335-.436 1.131-.123 1.601.365.553 1.166.925 1.605 1.378m2.51-3.465c-.396-.592-1.148-1.162-1.839-1.352m-1.71 6.345c-.666-.256-1.311-.634-1.929-.982-.415-.232-.95-.575-.915-1.109.049-.783 1.133-1.579 1.877-1.585m-1.028 5.565c-.688-.323-1.239-1.525-1.389-2.263-.113-.553.138-.8.614-1.005m-.072 4.579c-.812-.25-1.555-.838-2.297-1.233-.695-.373-.812.241-1.239.681-.028.488-.19.918.265 1.312.49.43 1.286.596 1.84.908m8.785-4.849c-.24.244-.648.313-.924.524-.355.274-.188.49-.189.914-.002.637-.645.785-.947 1.304a4.98 4.98 0 0 0-.416.833c-.162.416-.475.545-.799.84-.561.509-1.771 2.279-2.016 2.474-.328.259-.35.501-.463.885-.242.809-1.007.909-1.529 1.45-.633.655-.239 1.175.209 1.802.162.224.785 1.247.996 1.234m1.888-1.758c-.676-.476-1.346-.969-2.096-1.271"/><path d="M207.08 164.494c-.729.284-1.334 1.301-1.8 1.921-.285.38-.491.735-.523 1.206-.031.451-.218.752.168 1.068.432.358.965.658 1.295 1.119.141.199.188.385.365.504m-2.256-1.533c-.63-.084-2.654.789-1.967 1.595.171.202.684.352.933.47.416.192.784.336 1.093.693.197.228.316.573.521.725m-3.371 4.032c-.639-.506-1.592-1.529-1.58-2.424.01-.767.443-1.211 1.027-1.614m2.215 1.97c-.492-.635-2.166-1.28-2.117-2.277.027-.555.857-1.165 1.305-1.431m3.44 2.19c.69.506 1.341.958 1.966 1.54.219.207.571.521.895.297.332-.229.404-.991.604-1.31.123-.198.338-.453.575-.536m-1.258-3.414c.865.319 1.972.729 2.399 1.659.354-.152.47-.729.687-1.026.264-.37.529-.692.955-.718 1.106-.067 1.887 1.271 2.291 2.132m-1.906-3.281a2.533 2.533 0 0 1-.336.533"/><path d="M207.31 171.057c.879.543 1.743 1.21 2.643 1.573.373.148.637.315.914.605.367.391.721 1.006 1.252 1.175 1.062.344 1.342-.585 1.82-1.291.668-.977 1.566.371 2.188.817a.2.2 0 0 0-.104-.021m-2.549-1.44c-.479-.478-.809-.843-1.438-1.121m-1.787 1c.043-.27.578-.995.875-1.159m3.559 1.01c.07-.304.361-.964.639-1.131m-.409 4.399c-.406-.396-.969-.816-1.529-.954m.197 2.744c-.34-.407-.74-.638-1.191-.917-.457-.285-.344-.2-.869-.042-.494.15-.832-.156-1.27-.403-.421-.236-.875-.437-1.158-.84m1.678 1.803c-.287.529-.717.949-1.277.772a6.004 6.004 0 0 1-1.477-.705c-.229-.153-.658-.536-.654-.873.004-.352.515-.85.736-1.074m3.797.897c.188-.222.521-.95.404-1.272m-.153 4.407c-.547-.423-1.061-.827-1.768-.928m-.923-.192c.337.492-.484 1.415-1.004 1.436-.497.021-.955-.468-1.317-.717-.216-.152-.644-.551-.895-.552m1.882 1.707c-.055.352-.281 1.198-.646 1.342-.246.099-.474-.067-.701-.202-.431-.259-1.248-.792-1.524-1.218m1.417 1.879c.157.687-.481 1.644-1.198 1.2-.611-.378-1.154-1.337-1.852-1.485m6.953-.286c-.41-.67-1.402-.73-1.894-1.284m.582 2.94c-.359-.328-.955-.542-1.381-.73m-.383 2.22c-.383-.372-.626-1.141-1.133-1.264m-18.246 28.362c-.688.396-3.002-.799-2.443-1.732-.699-.033-1.181-.36-1.609-.879-.193-.235-.334-.455-.377-.757-.021-.173.065-.265-.012-.432-.84.163-2.006.192-2.668-.357-.52-.431-.994-.537-.725-1.242-1.324.315-2.135-1.131-2.414-2.24-.247-.968.389-1.889 1.236-2.29m.569 5.236c.182.556-.753 1.308-1.137 1.58-.299.205-.648.336-.982.492m.416-3.487c-.998.388-2.599-.406-2.988-1.4m-.045 2.939c-.188-.296.488-1.256.817-1.465m1.913-3.226c-.604.172-1.557-.593-1.744-1.147"/><path d="M184.731 209.527c-.438.755-1.16 1.277-2.062 1.311-.662.023-1.369.074-1.896-.379-.682-.59-1.283-2.553-.34-3.179m-.791 4.208c.443-.207.849-.604 1.271-.762m9.022-1.75c-.828-.312-2.057-.785-2.002-1.852-.367.024-.646.205-.98.036-.256-.124-.494-.433-.661-.652-.173-.223-.53-.632-.351-.924-.299-.092-.689.245-1.072.181a4.96 4.96 0 0 1-1.422-.502c-.42-.228-.741-.721-.811-1.21-1.169.063-2.17-.46-2.777-1.495-.412-.711-.574-1.133-.301-1.88-.547-.229-1.195-.85-1.156-1.498m5.294 7.954c.328-.204.775-.771.742-1.182m-3.949-.239c.475-.275.996-.865.953-1.447m4.623 5.264c.639-.332 1.262-1.149 1.304-1.858m.765-.858c.446-.519 1.213-1.117 1.037-1.816.223-.036.43.128.695.057.389-.11.801-.624.896-.999.06-.241-.05-.638.169-.853.155-.151.355-.099.551-.155.201-.062.398-.193.588-.278.371.696 1.221.999 1.781 1.461m-2.252 2.593c-.677.152-1.387-.758-1.637-1.278m-10.029-5.412c.322-.138.608-.347.94-.475.396.794.96 1.149 1.715 1.563.581.318 1.119.849 1.825.656.473-.128.67-.336.598-.777-.115-.697.201-1.16.533-1.736-1.287-.121-3.637-1.022-2.874-2.698.201-.438.251-.253.681-.354a1.51 1.51 0 0 0 .731-.438c.271-.287.231-.815.554-1.026-.492-.188-1.021-.232-1.416-.639-.357-.37-.522-.932-.74-1.395m-1.819 1.558c0 .76 1.176 1.455 1.781 1.672m-3.839.707c.424.561 1.672 1.626 2.432 1.453m.068 1.133c-.15-.364.729-1.313 1.07-1.459m1.574 4.269c-.055.572-.069 1.205-.664 1.436"/><path d="M185.591 205.291c.307-.456.551-1.143.741-1.69.065-.183.128-.422.134-.611.006-.154-.104-.289-.017-.435.127-.219.911-.409 1.143-.528.279-.149.612-.342.812-.575.277-.327.473-.671.35-1.083-.911-.07-2.051-.124-2.285-1.252-.087-.425.155-.97.354-1.329-.438-.248-.959-.189-1.418-.496-.325-.216-.869-.47-.991-.871m6.13 6.352c-.523.047-1.146-.685-1.391-1.103m-.142 3.357c-.795.111-1.609-.609-1.926-1.269m-.982-1.207c-.338.018-.808-.368-.91-.701m9.236-6.477c-.58.265-1.121.703-1.697 1.004.052.5.143 1.062-.09 1.541-.311.652-1.057.725-1.561 1.147.191.695.771 1.865 1.533 2.092.809.243 1.894-.446 2.211-1.163.287-.646-.04-.623.719-.74.583-.09.755-.655 1.066-1.072-.084-.284-.354-.387-.562-.58-.3-.275-.511-.602-.691-.957-.271-.524-.516-1.046-.586-1.626.465-.301 1.217-.341 1.521-.883.159-.285.004-.259.344-.431.399-.2.971-.17 1.192-.637.112-.237.036-.477.019-.718-.029-.436 0-.364.482-.593.652-.307 1.76-.792 1.348-1.671m-4.742 12.178c-.219-.198-.461-.792-.393-1.109m-2.197 1.276c.156-.193.211-.435.271-.668m1.897-2.636c-.529.136-1.281-.44-1.531-.871m-1.646.226c-1.3.141-2.063-1.452-2.507-2.423.354-.296.537-.723.844-1.056.16-.176.501-.328.59-.553.189-.482-.732-.7-1.061-.868-.641-.334-1.479-.431-1.729-1.221-.172-.537-.05-.733.252-1.169.252-.368.478-.458.844-.677.42-.251.285-.674.604-1.033.303-.338.612-.49 1.028-.688.192-.092.274-.137.366-.282.121-.197.15-.516.311-.74-.217-.176-.5-.226-.716-.432a3.4 3.4 0 0 1-.406-.457c-.167-.223-.286-.504-.454-.712m-2.086 11.525c.223-.32.581-.457.803-.774.121-.175.17-.445.352-.565-.037-.155-.09-.085-.201-.172-.289-.223-.848-.243-1.186-.484-.479-.341-.857-.991-1.014-1.563-.107-.401.211-.884.5-1.18-.841-.103-1.262-.211-1.88-.857-.308-.329-.501-.667-.692-1.07m1.013-1.851c1.037-.335 2.064.845 2.609 1.576m1.346-1.587c-.842-.051-1.491-.718-1.805-1.452m3.756 11.799c-.508.484-1.057.729-1.685.952m1.351-5.506c.643.373 1.307.624 1.972.83"/><path d="M190.353 193.521c-.045-.347.168-1.049.558-1.134.567-.129 1.077.133 1.433-.487.111-.197.148-.674.307-.818.226-.21.66-.057.928-.229.494-.312.63-1.146 1-1.597-.545-.662-1.668-.912-2.223-1.586-.427-.517-.359-1.131.062-1.626.114-.136.272-.191.433-.263.443-.202.588-.334.771-.809.076-.2.09-.694.214-.833.146-.163.718-.294.925-.382.336.35.814.582 1.221.843.385.245.729.593 1.143.783.551.252 1.05.048 1.327-.464.079-.149.155-.508.274-.611.141-.119.621-.088.854-.177a1.955 1.955 0 0 0 1.216-1.569c.498.327 1.066.584 1.6.84.431.203 1.041.64 1.529.676.295.022.713-.185.957-.334.395-.243.232-.331.25-.741m1.474 2.725c-.561.265-1.902-.463-2.082-1.071m-.43.243c.161 1.256-1.526 1.109-1.933 1.891-.195.371-.18 1.352.07 1.604.104.111.426.147.57.235.174.102.305.236.45.366.147.13.304.345.446.423"/><path d="M205.239 187.534c-.33-.063-.631-.581-.969-.756-.302-.159-.584-.058-.881-.173m-1.372-.528c-.688-.023-1.461-1.146-1.762-1.722m1.664 2.851c-.201.276-.328.855-.631 1.04-.377.226-.754-.3-1.107-.531a98.357 98.357 0 0 0-2.244-1.438c-.713.321-.35 1.751-1.401 1.801-.503.024-.978-.472-1.36-.718-.439-.28-.906-.551-1.229-.977m8.454 4.809c-.361-.156-.76-.184-1.146-.414a4.096 4.096 0 0 1-.938-.741m.301-1.599c.104.594-.404 1.416-1.025 1.648m-3.998-1.597c-.009.382-.434.679-.457 1.057-.022.389.281.658.533.92.568.585 1.305 1.165 2.1 1.346m-1.848 1.486c-.927-.345-1.398-1.294-1.786-2.125m.191 3.538c-.808-.477-1.196-1.406-1.578-2.225m3.933 2.084c.461.743 1.178 1.207 1.532 2.036.31.727-.532 1.344-1.192 1.542a.305.305 0 0 1-.047-.087m2.744-3.322c-.81-.242-1.188-.761-1.879-1.169m1.59-1.868c.279.537 1.164 1.326 1.717 1.451m-1.876-3.128c-1.025-.014-2.051-.72-2.543-1.605m3.745-5.917c-.562-.362-1.164-.631-1.633-1.123-.119-.125-.305-.491-.436-.547-.467-.214-1.133.407-1.459.623.061.27-.12.491-.16.757-.016.11-.145.132-.084.261.059.133.396.257.512.347.587.464.92 1.015 1.229 1.674m-3.528-.861c-.072-.229.377-.933.552-1.134.288-.327.704-.365 1.081-.461m-2.891 1.85c-.426.118-1.596-.69-1.881-1.082m.647 2.993c-.732.081-1.585-.781-1.889-1.368m2.147 6.209c-.604.202-1.763-.999-1.936-1.557m-.117 3.057c-.329.009-1.018-.674-1.211-.94-.195-.269-.307-.613-.447-.912"/></g></svg>