<svg xmlns="http://www.w3.org/2000/svg" width="500" height="495" viewBox="0 0 500 495"><path fill="none" stroke="#FFF" stroke-linecap="round" stroke-linejoin="round" stroke-miterlimit="10" d="M331.5 179.5h-10v-55h-18v-9h18v-22h10v22h18v9h-18z"/><path fill="none" stroke="#FFF" stroke-linecap="round" stroke-linejoin="round" stroke-miterlimit="10" d="M26.618 195.507l26.882 7.557V395.5h160.264L407.5 412.689V238.293l31.344 8.244-.009-14.71-31.335-9.639v-6.309l-64-24.222V179.5h-12v-55h18v-9h-18v-22h-10v22h-18v9h18v55h-10.102l-.017 15.183-93.591-25.785-86.563-51.946-104.683 67.839.185 10.703 103.957-63.252 85.091 52.029 192.198 54.021"/><path fill="none" stroke="#FFF" stroke-linecap="round" stroke-linejoin="round" stroke-miterlimit="10" d="M168.5 203.5h6v166h-6zm-22 0h6v166h-6zm-21 0h6v166h-6zm-21 0h6v166h-6zm-51-36.5v-18.807l50.439-27.667-.036-22.144 27.597-7.046V34.5h-18v-10h18v-22h11v22h18v10h-18v56.218l28 7.664v22.429l47 29.912V169m-135 34.5h6v166h-6zm184 172.383V214.677l4 1.252v160.337zm-17-1.729V209.12l3 1.252v164.166zm33 3.262V219.273l5 1.255v157.274zm19 1.729v-154.79l4 1.26v153.914zm16 1.533v-151.54l4 1.264v150.665zm16 1.536V233.436l4 1.269v147.898zm18 1.727V238.53l4 1.275v144.526zm17 1.533V243.111l4 1.28v141.477zm16 1.537V247.467l4 1.288v138.647zm2 42.099v-18.401l21 1.98v14.51c-7 .459-14 1.087-21 1.911zm-333-18.671V395.5h23v19.023c-9-1.828-16-3.155-23-4.084z"/><path fill="none" stroke="#FFF" stroke-linecap="round" stroke-linejoin="round" stroke-miterlimit="10" d="M5.407 409.582s77.526-12.991 164.068 47.134c0 0 28.99 22.16 61.638 30.867m90.387-49.791v-32.846l22 1.983v27.189zm-65 5.208v-43.812l22 1.978v40.884zm-64-.424V395.5h23v47.7z"/><path fill="none" stroke="#FFF" stroke-linecap="round" stroke-linejoin="round" stroke-miterlimit="10" d="M494.594 430.445s-53.683-12.164-148.971 4.293c-95.288 16.456-203.997 4.293-203.997 4.293"/></svg>