<svg xmlns="http://www.w3.org/2000/svg" width="655" height="563" viewBox="0 0 655 563"><g fill="none" stroke="#FFF" stroke-miterlimit="10"><path d="M207.609 114.75c-5.082-13.666-3.725-26.643-3.725-26.643s-8.531-5.454-1.398-12.588c7.133-7.133 73.566-7.272 88.392 0 14.825 7.273 96.783 22.378 96.783 22.378s5.875.559 1.679 9.511c0 0-3.856 29.982-25.432 38.788-3.082 1.26-4.292 1.867-8.138 2.111"/><path d="M168.919 179.018s22.938-8.112 41.121-34.126c18.181-26.015 31.327-26.014 31.327-26.014s23.217-2.237 30.77-4.754c7.552-2.518 1.398-4.801 1.398-4.801s-7.272-1.353-10.63-1.353c-3.356 0-2.238-2.798-2.238-2.798l8.671-3.355s11.175-1.989 9.509-6.434c-1.676-4.476-5.876-1.119-5.876-1.119s-12.032 5.875-15.948 5.875-1.408-2.238-1.408-2.238 15.274-7.178 17.606-8.672c3.891-2.492 5.145-3.449 3.603-5.314-1.386-1.677-6.168 1.12-6.168 1.12S259.5 91.227 254.5 91.227c-8 0 0-4.237 0-4.237l5.882-4.754s7.92-3.829 6.784-6.433c-.694-1.589-3.334-2.237-8.37.279-5.034 2.517-16.551 11.959-19.282 11.749-4.448-.345-2.313-5.592-2.313-5.592s6.434-17.9-2.238-9.229c-8.672 8.67-8.939 26.58-15.652 33.293-6.713 6.712-51.994 36.66-51.994 36.66m34.46 12.293s-31.37 40.008-54.211 49.288m-.001-12.491s2.497 7.138-3.213 21.058c0 0-42.651 7.315-48.896 13.562m47.11-71.417s8.942 14.668 5.542 32.871"/><path d="M26.923 170.616l3.524-6.665s5.022 2.048 12.16.263c7.139-1.785 16.074 6.068 16.074 6.068s11.427-8.923 32.484-4.64c21.058 4.283 21.417-3.211 21.417-3.211s12.851-5.068 29.983-7.174c0 0-2.854-6.73 1.785-6.73 4.64 0 18.153-3.584 18.153-3.584s3.996-2.824 3.996 3.584v35.318s1.818 3.927-8.175 3.927-67.162 20.81-65.101 32.539c17.192 97.856 9.651 145.199 9.651 139.133 0-6.069-4.836-10.708-4.836-10.708-27.359-12.492-29.013-24.984-29.013-24.984l-2.131 17.846c-7.496 11.063-53.889-2.854-53.889-2.854-3.926-10.352 2.858-39.26 2.858-39.26-1.784-1.784-3.568-8.21-3.568-8.21-4.998-4.997-1.784-13.562-1.784-13.562s-.713-1.785-4.997-36.404c-4.282-34.62 17.131-71.663 17.131-71.663 1.822 1.822 6.319.639 6.319.639 23.452-6.781 28.658 1.41 28.658 1.41s-17.131 12.152-17.131 27.142-3.926 21.057-3.926 21.057-7.139 12.135 36.405 24.984c0 0 18.202-13.205 18.202-21.415M17.703 106.753c-2.14 19.884 14.685 48.503 14.685 48.503 26.92-3.5 59.042-31.679 59.042-31.679s-9.483-22.024-32.427-40.074c0 0-50.477 15.908-50.477 23.861s8.957 39.717 17.131 47.892c0 0 1.988 1.378 1.988-9.113"/><path d="M89.005 125.616s2.424 6.835 2.424 10.506-3.647 1.411-1.211 8.2c2.435 6.79 5.481 9.236-4.149 12.296 0 0-1.173 7.04 0 8.214m-28.902-18.045s2.448 8.469 6.424 8.469m-31.204 0s2.232 4.073 0 8.398M17.652 340.035s-20.166 24.76 0 77.761c20.165 52.999-2.142 136.516-2.142 136.516m85.479-194.352s-5.353 41.238 6.959 76.037c12.314 34.798 3.749 122.798 3.749 122.798"/><path d="M17.652 401.734s14.276 13.92 29.266 45.506c14.989 31.586 6.959 111.555 6.959 111.555m320.587-46.263c0-119.919-46.482-149.046-46.482-149.046-3.213-12.016-6.96-8.328-6.96-8.328-74.95 18.737-86.191 0-86.191 0s-3.214-1.07-3.214 8.565c0 0-48.717 84.051-37.474 135.981 0 0 35.053 28.373 98.085 28.373 63.032.001 82.236-15.545 82.236-15.545zm-141.241-145.06s39.616 14.99 88.87-3.213m-80.304 16.596s-23.556 37.479-18.737 60.497m95.293-68.076s13.384 27.922 13.384 70.75m.357-257.684l-5.711-24.626s-.713-6.459 8.566-6.459c9.28 0 25.341-8.173 32.479-15.312 0 0 .32-3.219-5.324 0-5.646 3.22-11.644 4.454-11.644 4.454s10.585-10.21 13.583-19.571c3-9.359-2.646-3.891-3.527-3.009-.882.883-10.056 14.995-10.056 14.995s3.704-11.656 5.116-17.383c1.411-5.727-2.822-4.669-3.705-1.316-.882 3.352-7.761 18.346-7.761 18.346s1.058-16.936 1.058-19.228c0-2.293-4.233-.53-4.233 1.94s-1.411 13.76-1.411 13.76-.177 4.057-6.881 5.469c-6.703 1.411-18.393 1.269-19.339 12.454-.946 11.184-7.12 37.291-7.12 37.291m-82.03-25.58l10.759-19.626"/><path d="M201.777 158.687l18.924-24.742c3.673 3.143 8.132 5.876 13.54 7.942 26.135 9.988 54.182 10.849 79.053 9.613"/><path d="M197.886 160.317c5.631-4.422 28.088 3.904 28.088 3.904l-6.559 9.14s2.613-1.25 3.768 1.925c1.155 3.174-1.852 3.739-1.852 3.739s3.876 1.894 2.817 6.304c0 0 5.997 4.055 3.704 7.759 0 0 5.972 2.469 8.089 6.703 2.115 4.234.56 6.085 4.56 10.583v2.378s4.656-1.495 6.066 4.15l4.49 1.587 3.655 2.116m-69.819-45.927s.266 10.471 8.733 27.935c8.467 17.465 32.736 51.863 32.736 51.863s7.308 9.351 7.308 18.7-13.936 13.23-8.644 32.635l9.803 49.347m26.589-115.638s-7.138 12.621-12.491 12.621 12.491 4.868 16.061-1.913c3.569-6.782 7.852.357 7.852.357s-3.211 17.489-7.852 22.128c0 0 11.642-6.067 14.03-16.597 2.389-10.528 16.229-8.762 16.229-8.762l6.859 4.747c-3.569-21.949-6.859-22.95-6.859-27.59 0-4.639 3.646-6.058 3.646-6.058s-1.248-10.166 2.499-13.914c3.747-3.747 2.855-9.991 2.855-9.991s-1.071-6.423 8.565-6.423 14.634-2.498 14.634-2.498 9.636-2.142 6.424 10.35c-3.212 12.491 2.928 17.132 2.928 17.132s2.427 9.993 2.427 17.131c0 7.139 2.14 17.845 2.14 17.845s4.998 7.852-6.066 27.481c-11.064 19.631-16.958 46.81-14.276 79.59"/><path d="M296.729 202.878c-.733-.732-31.174-19.458-36.824-21.131-5.649-1.674-6.067 1.255-6.067 1.255s6.276-15.272 17.156-15.272c0 0-15.967-6.122-2.648-17.498m43.901 8.455s-11.573-6.93-24.145-6.93m-12.818 17.227s26.675 10.033 33.888 5.694m-55.334 8.951s-2.721 5.858-2.721 7.742c0 1.883 1.36 8.16 1.36 8.16s-4.366 15.25-3.391 16.226c.975.974 4.946 1.999 4.946 1.999 1.948 6.422 3.503 15.042 3.503 15.042s.067 8.788 8.438 7.114c.702-.142 1.416-.274 2.132-.407 7.81-1.425 16.235-2.479 21.509-7.754M273.5 251v-12m18.728-28.627s2.859-4.87 6.902-.828m-9.516 12.846s1.916 3.937 5.598 0"/><path d="M297.271 231.629c0 3.6-1.728 5.407-3.86 5.407-2.132 0-3.859-2.918-3.859-6.52s1.728-6.519 3.859-6.519c.533 0 1.041.181 1.502.512m-46.981 298.598l1.013 33.346M279.5 529v27m26-27v27m31-31v31M307.937 60.548s-15.709-21.446-15.709-37.731-16.944-18.611-16.944-18.611 38.004 4.014 48.427 41.44"/><path d="M327.238 64.455c.504-2.624.813-5.452.813-8.446 0-16.284 16.944-18.61 16.944-18.61s-34.661 3.931-45.085 41.356m18.993 4.942s3.996-4.98 6.705-13.058m-33.889-52.432c-4.99 5.201-9.463 9.786-12.082 19.191m24.772-20.847c1.766-7.463 11.02-12.346 11.02-12.346s-8.258 1.753-17.094 8.221m-8.949 36.667s2.811-4.071 6.342-10.681"/><path d="M279.871 72.532s-10.128-12.015-10.128-28.301c0-16.284-16.944-27.679-16.944-27.679s38.301 20.066 48.726 57.491m48.828 11.131s15.71-21.446 15.71-37.731 16.942-18.61 16.942-18.61-38.004 4.015-48.427 41.438"/><path d="M329.775 86.188s-2.75-2.491-2.75-9.3c0-16.285-16.944-18.611-16.944-18.611s32.778 8.859 42.592 32.783m13.898-48.226c4.989 5.199 11.315 12.216 13.936 21.62M353.88 41.178c-1.765-7.463-11.021-12.345-11.021-12.345s8.258 1.753 17.095 8.221m9.862 37.578s-3.724-4.985-7.256-11.594"/><path d="M379.271 96.305s7.44-11.267 9.274-27.448c1.222-10.782 16.944-18.611 16.944-18.611s-35.674 12.792-46.698 42.055M238.56 59.468s-13.252-18.759-13.252-35.044-16.945-18.612-16.945-18.612 30.115-4.885 44.435 31.229"/><path d="M259.24 70.491c1.108-3.765 1.891-8.112 1.891-12.875 0-16.285 13.494-37.803 13.494-37.803s-29.573 13.401-39.997 50.826M224.8 19.812c-4.99 5.2-9.534 11.072-12.153 20.475m28.054-23.736c1.765-7.463 11.02-12.346 11.02-12.346s-8.257 1.753-17.094 8.221m-12.282 38.392s2.931-4.19 6.464-10.8"/><path d="M211.396 72.363s-8.574-10.24-8.574-26.525c0-16.286-16.943-18.611-16.943-18.611s35.112 5.465 45.536 42.891"/><g stroke-linecap="round" stroke-linejoin="round"><path d="M520.986 549.382s-1.612-1.613-3.227-29.27c0 0 0-14.98-23.508-33.88 0 0-25.537-19.157-33.648-23.047-6.496-3.115-18.438-15.672-60.845-.23 0 0 6.222-10.371 23.969-11.754 17.746-1.383 24.66 1.844 26.965 1.844 2.306 0 8.989 2.996 13.598 3.227 4.61.23 5.071 5.301 7.376 5.762 2.305.46 12.445 2.995 16.594 9.45 4.148 6.452 12.906 10.37 14.98 12.443 2.074 2.075 9.219 5.302 13.828 13.829 4.609 8.528 6.453 11.984 6.453 11.984m-.652-38.596s6.414-6.345 6.645-11.185c.231-4.84 2.767-6.914 2.767-6.914 7.835-7.605 8.065-19.59 8.065-19.59s2.363-19.763 12.677-20.513c6.957-.505 14.52-8.758 18.207-11.293 3.687-2.535 8.758-3.456 12.906-1.152 4.148 2.305 8.988 2.305 8.988 2.305 16.595-.46 20.281 12.676 20.281 12.676-3.918-5.301-13.663-9.047-19.187-9.392-5.531-.346-26.907 2.247-29.212 9.162-2.305 6.913-7.836 16.824-13.828 19.82-5.993 2.995-11.497 12.5-11.497 12.5s-3.023 5.476-.257 8.703c2.766 3.226-3.228 11.753-8.989 17.977-5.761 6.223-5.761 43.789-4.148 61.074l1.844 11.755m-8.987-52.547s.83-11.615 11.772-20.805"/><path d="M523.088 478.782l-.949-33.112s1.634-6.542 5.531-14.866c0 0 6.05-17.285 16.768-20.569 10.716-3.285 8.814-12.445 9.507-18.149.69-5.704 11.581-7.951 11.581-7.951s3.457-1.21 5.877-9.853 14.865 1.901 31.459-26.793c16.594-28.693 47.189-14.346 47.189-14.346s-11.408-13.138-47.016-.347-27.657 24.546-40.621 30.077-19.878 18.494-22.471 21.952c-2.594 3.457-4.65 26.089-12.446 31.286-6.223 4.148-9.17 9.763-9.17 9.763m-2.757 69.414s-2.766-27.147-10.544-34.58c-7.778-7.434-32.496-39.584-64.992-43.732-32.497-4.148-38.719-2.593-60.845-1.383 0 0 6.223-5.877 14.864-5.877 8.644 0 12.792-2.938 16.94-2.767 4.148.174 13.656 2.075 23.335.692 9.68-1.383 21.952 3.976 26.619 9.853 4.668 5.877 17.459 5.877 26.102 10.89 8.643 5.014 31.113 24.373 31.978 38.374m-3.457-50.647s-4.037-7.807-11.255-13.12"/><path d="M511.768 451.024s-1.218-40.301-5.186-45.457c-6.914-8.988-18.841-11.754-20.224-21.261s-9.68-16.075-12.1-17.804c-2.421-1.729-12.272-14.348-14.347-20.916s-8.989-4.494-13.656-6.913c-4.666-2.42-24.372-18.669-49.954 6.222 0 0 5.531-11.08 16.594-13.664s12.964-.854 21.434-2.411c8.471-1.556 16.768 5.013 28.866 5.877 12.101.864 18.323 6.569 25.582 14.865 7.261 8.298 11.236 7.433 12.619 19.187s8.988 20.32 8.988 20.32m10.564 33.021s-4.168-34.499 9.487-55.414c13.656-20.916 24.373-31.68 30.077-37.793 5.704-6.112 13.137-5.248 18.841-9.915s8.815-22.817 16.248-26.965c0 0 6.741-4.667 15.902-15.385 9.161-10.716 8.989-19.705 21.952-30.94 0 0-42.175 21.434-71.561 59.634 0 0-10.025 14.002-27.829 32.497 0 0-21.78 21.261-16.939 42.868"/><path d="M528.593 344.13s1.152-6.45.114-15.547c-1.037-9.097 5.186-11.862 8.125-15.665 2.938-3.803 4.666-14.174 4.666-28.002 0-13.829 10.372-44.251 14.52-59.634 0 0-14.418 18.342-17.221 29.702m-26.272 141.565c-2.938-7.605-9.919-38.517-5.771-56.32s4.667-29.039 6.05-37.854c1.383-8.816-2.938-44.424-2.074-54.622.865-10.199 8.125-45.806 7.779-52.375-.347-6.569 4.934 33.149 9.716 44.213"/><path d="M538 310.92c4.305-12.481-2.897-34.993-2.897-40.87s9.335-25.928 5.013-38.893c-4.32-12.963-6.741-50.818-6.741-50.818s-.69 24.544-1.901 30.768c-1.21 6.223-3.514 16.939-2.88 23.681.633 6.742-5.244 18.668-7.836 25.41-2.594 6.742-7.28 17.977-4.332 33.88 2.949 15.902-2.686 21.21 1.22 41.139"/></g><g stroke-linecap="round" stroke-linejoin="round"><path d="M498.407 348.741c2.44-2.004 4.36-10.099.532-20.861-3.828-10.765-8.778-53.83-8.778-53.83s9.437 29.397 11.952 36.057c2.516 6.663 6.453 27.165 2.805 32.799-3.648 5.635-6.511 5.835-6.511 5.835z"/><path d="M490.486 276.789s-6.497-12.311-9.027-18.05c-2.529-5.739 6.06 19.05 9.87 24.864m9.7 57.914c-.079 1.888-4.156 4.71-4.156 4.71s2.11.672 3.248-.25m-4.79 3.097c-3.062-.769-8.261-7.263-9.403-18.629-1.145-11.367-15.09-52.414-15.09-52.414s4.045 30.609 4.619 37.706c.575 7.099 5.784 27.314 11.493 30.848 5.708 3.532 8.381 2.489 8.381 2.489z"/><path d="M471.717 280.646s.607-13.905.44-20.176c-.169-6.27 2.67 19.812 1.712 26.697m16.001 56.498c.879 1.674 5.771 2.479 5.771 2.479s-1.62 1.513-3.043 1.165m3.288 9.14s.024-4.013-.985-4.479c-.596-.275-1.808-1.247-1.568-2.775m8.022-1.979s1.168 1.975.289 3.285 1.731 26.356 1.731 26.356m-21.96-117.419s-3.414-4.326-3.736-5.285c-.321-.959-1.065 5.191.032 7.148"/><path d="M474.88 258.042s-.978-2.106-2.076-3.349c-1.1-1.243.07 4.518-.274 6.651"/><path d="M478.706 262.949s-2.696-3.198-3.552-11.612c0 0-.674 14.193-.45 18.716m25.314 76.044s-1.984 2.771-2.85 3.155c-.866.383-4.475-1.788-4.475-1.788"/><path d="M476.148 294.239c-.017-.056.073-.445.228-.437 0 0-.728-1.058-.123-1.746 0 0-.992-1.188-.41-1.709 0 0-1.092-1.245-.742-1.974 0 0-.64-1.502.011-2.085 0 0-.845-1.295-.221-1.853 0 0-.869-.834-.306-1.485 0 0-.86-1.72-.048-2.45 0 0-.891-1.839-.188-2.471 0 0-.312-1.845.288-2.457 0 0-.915-1.929-.343-3.31.014-.034.028-.067.045-.1 0 0-.484-1.848.863-2.471 0 0-.166-1.193.604-2.104 0 0-.525-1.021.532-1.748 0 0-.666-1.479.51-2.046 0 0 1.183-1.883 2.335-.311 0 0 1 .106 1.575 1.618 0 0 1.104.524 1.57 1.89 0 0 1.101.845 1.349 1.747 0 0 .907.577 1.05 1.744 0 0 1.006.624 1.473 2.033m13.147 71.662s-2.062.494-2.877 1.599c0 0-1.856-.776-2.928-.109m-3.778-2.357s1.4.051 1.653-.545c0 0 .725 2.959 3.284 1.039 0 0 2.797.232 2.835-1.51 0 0 1.222.676 2.086-.559 0 0 .688.504 1.167.278"/><path d="M476.008 267.73c.603.276.881.591 1.363 1.069.519-.431 1.008-.519 1.518.08.35-.373 1.02-1.252 1.566-.745.137-.555.791-.876 1.3-1.027m-6.096 2.578c.101.186.461.273.67.436.22.169.395.397.595.594-.09-.438-.202-.98.139-1.37m2.079-.025c.139.429.36.719.554 1.148-.458-.2-.807.345-1.134.612-.427-.424-.579-.81-1.209-.681m5.733-1.661c-.406-.002-.633-.179-1.034-.052-.365.114-.546.305-.857.556-.14-.262-.188-.518-.415-.733"/><path d="M476.868 265.908c.303.199.725.537.92.909.222.421-.002.839.179 1.193m.478-1.151c.384-.346 1.156-1.052 1.651-.574-.224-.522-.068-.669.338-1.014m-1.403-1.565c-.41.738-.966 1.322-1.587 1.887.609-.34.12-1.166-.233-1.502m-2.279 8.151c.634-.814 1.542.289 1.947.79-.366.304-.509 1.033-.314 1.472-.571-.826-1.527-.539-1.67.333m9.861-3.065c-.682-.161-1.319.48-1.65 1.077-.524-.612-1.576-.401-2.086.095-.393-.474-.915-.631-1.427-.286-.549.367-.688.725-.643 1.342-.157-.836-1.049-1.084-1.693-1.218m6.713-2.472c-.545-.205-1.262-.068-1.684.393m-1.455-1.257c-.206.389-.604.647-.81 1.062.378.446 1.015.901.887 1.567.26-.404.286-.989.908-1.017m.747-.998c-.122-.413-.131-.8-.423-1.131m-5.266 1.965c-.145.381-.14 1.044.205 1.326m1.416.701c.251-.315.048-.968.003-1.316m-3.294 4.53c.413.306.927.176 1.308.589-.543.449-.73.918-.339 1.499-.275-.32-1.229-.304-1.499.029"/><path d="M475.24 280.569c.031-.593 1.363-1.655 1.982-1.263.211-.265.13-1.016.73-.913-.142-.548-.514-1.297.05-1.691-.43-.302-.938-.782-.646-1.317.219-.4.898-.778 1.267-1.005m-2.035.514c.154.263.479.652.397.957m5.049-.522c-.173-.195-.689-.615-.888-.861-.265-.33-.146-.585-.119-.994m-.093 1.067a3.298 3.298 0 0 0-.951.796c-.215.27-.386.578-.448.919-.045.236.11.356-.065.557-.258-.182-.508-.094-.799-.11m7.517-3.261c-.834-.217-1.497.003-2.137.609.228.287.843.877.556 1.282.337.094.602.058.908.283.265-.249.518-.659.902-.673m-.802 1.376c-.091.336-.199.692-.322 1.008-.685-.195-1.045-.035-1.487.61-.369-.3-.46-.614-.976-.646-.39-.024-.798.134-1.176.1.32-.417.405-.991.59-1.458.492.072 1.988.552 2.184-.06m-2.127-.98c.451-.406 1.088-.753 1.475-1.199-.081-.103-.177-.249-.284-.329m3.979 3.852c-.397.065-.92.075-1.287.364-.371.295-.271.165-.116.687.107.365.169.527-.134.802.351-.127.623.244.894.422.599-.482.822-.612 1.622-.525m.795 1.913c-.79-.157-1.438-.313-2.093.289-.486-.512-1.007-.184-1.438.237.103-.593-.655-.917-1.114-.875-.558.051-1.128.472-1.547.833-.403-.417-.821-.674-1.224-.994-.254-.201-.268-.03-.192-.435a.958.958 0 0 1 .35-.56c.42-.312 1.411-.374 1.957-.423.694-.061.442.226.688.73.312-.248.54-.527.938-.633"/><path d="M481.436 278.689c-.057-.414-.484-1.077-.203-1.392-.321.053-.887-.071-1.119-.366-.198.171-.098.365-.227.573-.119.191-.372.335-.533.49-.215.209-.411.586-.678.68.767.569 1.46.789 1.824 1.766-.479.142-1.01-.146-1.514.131-.373.203-.826.68-1.038 1.028-.271-.271-.381-.532-.797-.436-.388.091-.722.791-1.09.838-.471.058-.479-1.719-1.206-1.351m3.018.449c-.404-.148-.679-1.109-.477-1.348m3.914.628c-.144.301-.517.506-.681.819-.177.342-.106.828-.301 1.16-.244.413-.366.155-.748.276-.346.11-.684.576-.965.811-.54-.689-1.545-.221-2.051.335.425-.566-1.133-1.007-1.525-.799m12.365-1.37c.181.41.312 1.391.044 1.792-.529-.184-1.003-.235-1.529-.018-.022-1.139-1.738-.918-2.3-.295-.498-.489-.739-.723-1.453-.495-.703.228-1.153.68-.54 1.369-.087.097-.103.245-.207.332.351.36 1.153.532 1.172 1.15.214-.695.821-.938 1.484-.743-.297-.291-.376-.698-.312-1.075m-8.257.97c.94.181 2.04 1.103 1.728 2.186-.588-.049-1.229-.285-1.722.24m3.189-3.256a2.204 2.204 0 0 0 0 1.184c-.514-.043-.847.145-1.234.515m3.385-1.131c-.324.285-1.08.588-1.268 1.005-.111.251.168 1.107.257 1.454-.902.062-1.454-.174-2.195.482m2.762 1.396c-1.382-.788.692-3.045 1.958-2.153a.593.593 0 0 1 .096-.608m.358 1.058c.072.301.165.729.294.978.461-.847 1.543-1.591 2.524-1.474-.04-.538-.35-1.019-.713-1.402.196.359.7.092.952-.179.038.257.146.489.306.703m1.816-2.812c.507.293 1.388-.459 1.774-.803m.053.938c.271.303.496.541.644.924.147.384.011.689.14 1.052-.938-.507-1.545-.409-2.354.21.222-.379-.008-1.252-.225-1.625m.43 5.458c1.198-1.225-.98-2.92-2.06-1.646-.083-.256-.214-.519-.303-.768m.17 1.361c-.117.271-.144.534-.408.704.209.266.832.778.653 1.047.63-1.596 3.333.312 2.232 1.083m.045-5.293c.258.644.197 1.319-.337 1.746m2.199-2.234c.223.558.817.854.504 1.571-.114.26-.598.686-.84.766m-1.071-.682c.369.352 2.013 1.166 1.08 1.79m-1.089 1.567c.34-.101.467-.284.848-.316.363-.029.76.062 1.049.325.445.403.578 1.43-.246 1.465"/><path d="M488.935 287.856c.405.15.7.041 1.05.293.3.215.636.661.836.96-.156.194-.106.381-.254.568m-11.057-1.053c-.452.161-.87.233-1.243.581-.3-.249-.667-1.056-.478-1.401m-2.16.886c.174.584 1.349.189 1.636-.153m-1.109 1.912c.666.354 1.517.193 2.028-.373m2.186-.713c.058.36.346.592.567.86-.7.537-.492 1.933-.002 2.554-.419-.699-1.52-.333-1.997.03-.446-.4-.376-.687-.965-.77-.386-.053-.606.06-.94.121"/><path d="M480.038 290.385c-.354.448-.978.122-1.44.211-.289.056-.314-.105-.5.358-.106.271-.217.588.03.815m5.879-3.695c.267.076.562-.023.809.073.227.089.466.341.651.454m-1.799 1.878c.457-.377 1.875-.829 2.297-.221m-5.066-1.856c.521-.19.978-.457 1.563-.512m.559.714c-.112.631-.369 1.049.03 1.647-.54-.152-1.152-.283-1.693-.075m1.839.655c-.298.301.008 1.156.259 1.457-.79-.471-1.562-.523-2.224.184m5.226-.803c-.278.081-.776-.136-1.145-.059-.46.097-.896.303-1.261.598-.174.138-.382.3-.452.499-.098.276.028.671.024.937-.185-.044-.377-.201-.575-.196-.213.006-.521.213-.696.313-.226.13-.4.301-.599.461-.494-.534-1.107-.778-1.746-.368-.373.239-.586.527-.658.929-.036.202-.021.502-.084.695-.113.347-.268.184-.629.104-.762-.165-1.254.378-1.757.79a.118.118 0 0 1 .09-.036m1.739-3.34c-.233.564.195 1.161.402 1.622m-2.519-.734c.184.204.59.588.535.84.142-.414.818-.776 1.212-.426m12.944-1.172c.085-.438-.192-1.076-.529-1.355-.381-.319-.747-.273-1.18-.146m-3.154-1.217c.132.231.271.817.141 1.054.385.478.663 1.193.533 1.813.516-.312 1.481-.804 2.11-.577.522.188.93.889.938 1.41"/><path d="M487.254 291.158c.415-.167.777-.487 1.267-.3.497.191 1.128.943.844 1.479m-5.344 1.396c.104.422.27 1.013-.046 1.384-.186.217-.697.166-1.03.277-.419.14-.816.391-1.143.687-.552-.75-1.886.11-2.364.551.065.185.254.298.328.471.055.127.016.36.053.458.06.164.188.248.227.43.031.155.012.438-.003.598-.011.108-.124.296-.114.383.027.26.492.479.614.714.133.259.36 1.1.046 1.298.749.263.241 1.218.161 1.67-.39-.017-.69.037-1.011.241-.131.085-.502.338-.584.341m5.335-9.116c.273-.194.61-.244.928-.365.379-.146.67-.236 1.083-.19.711.08.819.821.862 1.412.482-.427 1.53-.737 2.159-.706.841.04 1.333.979.931 1.663.037-.033.104-.052.146-.088.274.153.742.687.814.995.072.308-.21.636-.436.812.387.18.856.572 1.005 1.01.175.514-.069.775-.42 1.09m-1.103-6.373c.169.047.341-.028.519-.03.295-.005.352.047.577.261.415.393.695.73.568 1.31"/><path d="M491.617 296.791c.327.173.755-.213.975-.429.311-.306.297-.776-.005-1.106-.474-.517-1.017-.446-1.598-.248m.975 3.251c.362.224.826.004 1.103-.26m-.751 2.006c.236.267.886-.058 1.119-.194m-.618 1.97c.215.215.562.148.75-.065m-.566 1.761c.236.218.49.001.71-.111m-.992.607c.549.332 1.783 1.444 1.077 2.148m.236 1.527c.285.25.733.607.778 1.002m-2.299 1.496c.279.144 1.012-.021 1.335-.144.327-.126.578-.318.835-.548m-1.931 2.176c.75.183 1.495-.334 2.027-.806m-.882 2.895c.215-.175 1.521-.742 1.384-1.119m-.745 2.688c.54-.06.726-.166 1.115-.515m-.56 2.081c.422.135.775.047 1.057-.22m-1.757-.244c.057.137.174.24.273.351.263.291.384.535.479.918.093.372.109.648-.035.966.255.215.494.459.554.799.022.134.029.336.005.475-.011.061-.096.234-.092.271.033.244.454.493.556.771.079.215.174.574.12.796-.022.089-.196.129-.173.227.034.142.615.271.73.479.1.178.114.514.073.696-.062.284-.208.239.044.427.27.201.477.276.668.593m-1.217-5.829c-.185.236-.494.146-.738.217m.969 1.395c-.104.257-.435.253-.656.307m1.161 1.386c-.194.198-.392.302-.656.306"/><path d="M493.066 312.889c.535.372 1.312 1.311.781 1.938-.217.255-.89.291-1.241.377-.465.116-1.047.095-1.407.418l.014-.013m1.049 1.838c.216.16.988-.253 1.226-.4.248-.152.569-.357.743-.597.324-.443.123-.993-.152-1.4m-3.287.035c.35-.067.122-.83.043-1.05-.044-.119-.139-.356-.243-.441-.109-.089-.284-.074-.371-.183-.178-.22.125-.696.055-1.021-.015-.064-.18-.344-.132-.413.083-.12.719.082.86.091.595.044 1.756-.144 1.754-.938-.001-.407-.539-1.478-1.032-1.454m1.111 2.322c.539 1.162-.634 2.126-1.633 2.555m-1.266-1.008c-.772.171-1.716.402-2.392.803-.196-.2-.37-.519-.636-.629.29-.345.307-.728.094-1.104-.18-.317-.449-.406-.71-.606.134-.188.187-.81.12-1.027-.081-.256-.339-.297-.51-.465-.395-.391.143-1.238-.33-1.614.572-.11 1.166.087 1.748-.029.434-.087.846-.195 1.169-.503m-4.046-13.038c.3.277.277.741.249 1.103-.032.391.013.399-.349.555-.328.142-.633.132-.974.212-.295.071-.548.276-.776.472-.427-.344-.597-.733-1.23-.578a2.973 2.973 0 0 0-.732.29c-.119.073-.263.26-.32.239m-2.928.117c.576-.184 1.464-.601 2.01-.104m-1.399 2.184c.096-.026.141-.109.234-.171.23-.156.472-.282.75-.344.209-.047.42-.039.622.006m-.966 2.08c.403-.475 1.202-.433 1.695-.185m.823-.254c.803-.47 1.917-.411 2.587.269m-3.143-1.792c.403-.455 1.505-.546 2.064-.396.717.19.746 1.23.801 1.832m-.781-2.901c.036.196-.044.484-.122.677m.966.266c.586-.302 1.127-.438 1.779-.535.146-.287.178-1.08-.122-1.316m.037-1.449c.499-.444.82-.654 1.467-.709m1.033.612c.05.391.103.869.036 1.264-.377.043-.749-.043-1.139.082-.319.104-.589.311-.87.424m2.409-.384c.27.435.275 1.002-.018 1.393-.213.282-.581.311-.954.381-.279.055-.777.081-.958.36-.145.225-.101.847-.131 1.126.639.248 1.291 1.02.464 1.484-.474.265-1.146.249-1.664.426-.286.099-.477.343-.733.437"/><path d="M483.897 300.721c.303-.135.381-.226.733-.254.291-.025.599-.057.885-.105m-.023-1.921c.172.19.301.362.438.578m1.086 1.616c.486-.067.911-.264 1.413-.287.253-.012.501-.014.721-.08.171-.422.157-1.232-.127-1.589-.306-.385-.574-.32-.972-.227m.472-1.638c.46-.229.975-.89 1.553-.704m-.66 3.91c.736-.201 1.815-.877 2.436.008.292.415-.035.965-.411 1.212-.44.291-1.144.313-1.607.508m-.758-3.325c.477-.31 1.205-.492 1.771-.416m-.73 5.184c.568.021 1.157-.054 1.721-.116.377-.04.876-.124 1.018-.526.209-.59-.337-1.513-.881-1.75m-.987 4.402c.605-.021 1.386-.73 1.726-1.225.256-.37.148-.629-.137-.928m-1.379 3.38c.674.07 1.402-.128 2.069-.187.627-.056.519.432.696.887-.133.367-.146.733-.604.88-.495.16-1.13.033-1.634.09m-4.922-6.302c.1.254.379.433.514.673.175.312-.017.418-.146.729-.197.468.227.777.287 1.253.034.273.054.476.045.74-.011.356.176.547.322.865.251.548.584 2.225.703 2.443.16.293.1.476.063.793-.077.669.453.981.668 1.542.259.678-.192.937-.717 1.255-.189.114-.967.669-1.117.594m-.835-1.878c.645-.137 1.29-.289 1.935-.277"/><path d="M489.283 300.503c.444.437.571 1.37.718 1.971.091.368.131.692.007 1.048-.117.341-.075.62-.457.731-.429.127-.913.18-1.3.415-.165.101-.256.225-.425.255m2.134-.418c.487.135 1.698 1.407.942 1.784-.188.095-.61.044-.831.052-.365.012-.68.002-1.018.167-.215.104-.41.321-.608.368m1.21 4.01c.627-.171 1.645-.623 1.916-1.283.233-.564.055-1.025-.249-1.504m-2.238.752c.559-.312 1.987-.262 2.264-1.008.153-.414-.265-1.122-.509-1.456m-3.207.529c-.664.155-1.282.283-1.923.515-.226.082-.581.203-.748-.062-.171-.271.014-.854-.033-1.149-.027-.184-.106-.438-.254-.572m1.99-2.111c-.735-.038-1.674-.084-2.28.465-.213-.223-.116-.681-.182-.967-.077-.354-.171-.673-.475-.824-.792-.396-1.782.342-2.347.846m2.424-1.809c.008.155.03.34.08.496"/><path d="M487.062 305.243c-.813.123-1.656.341-2.428.326a1.903 1.903 0 0 0-.859.159c-.394.17-.843.512-1.285.47-.888-.081-.801-.849-.933-1.516-.184-.925-1.264-.219-1.857-.086a.18.18 0 0 1 .082.017m2.318-.259c.503-.199.857-.365 1.406-.371m.996 1.291c.053-.211-.113-.91-.28-1.124m-2.923-.372c.044-.245.036-.819-.114-1.029m-1.078 3.354c.422-.163.965-.296 1.419-.222m-1.002 1.95c.376-.192.742-.236 1.159-.3.426-.065.314-.039.65.241.315.265.66.146 1.058.102.382-.042.777-.047 1.11-.254m-1.791.797c.045.479.228.92.696.967.404.041.9.021 1.301-.056.217-.041.65-.188.753-.436.108-.259-.11-.783-.204-1.018m-3.064-.529c-.068-.222-.084-.859.101-1.06m-1.266 3.279c.533-.14 1.034-.275 1.584-.128m.74.148c-.401.256-.088 1.189.287 1.367.357.17.847-.045 1.189-.115.206-.043.645-.202.828-.124m-1.912.663c-.071.274-.169.966.053 1.186.15.149.369.099.577.071.397-.056 1.163-.19 1.5-.416m-1.629.934c-.329.454-.16 1.355.504 1.255.566-.086 1.266-.619 1.822-.51m-5.008-2.383c.51-.363 1.257-.098 1.788-.351m-1.344 1.975c.366-.128.869-.099 1.242-.104m-.415 1.747c.396-.152.815-.641 1.226-.571m4.506 26.496c.38.504 2.45.353 2.333-.507.522.194.979.105 1.456-.141.216-.111.387-.229.512-.438.071-.118.035-.215.144-.312.564.382 1.41.769 2.068.572.515-.154.896-.082.919-.685.872.646 1.917-.161 2.47-.887.484-.633.307-1.506-.189-2.066m-2.055 3.664c-.307.351.143 1.194.34 1.513.153.245.37.451.565.669m.785-2.687c.611.597 2.032.515 2.629-.093m-.887 2.171c.231-.158.035-1.074-.141-1.33m-.393-2.963c.389.313 1.326.052 1.638-.296"/><path d="M491.584 340.504c.085.689.45 1.299 1.101 1.604.479.225.98.484 1.51.316.683-.219 1.739-1.469 1.244-2.223m-.736 3.331c-.262-.29-.433-.707-.695-.955m-6.067-4.104c.704.031 1.753.067 2.047-.731.262.134.41.353.709.335.224-.012.497-.164.688-.272.196-.109.587-.297.544-.567.249.025.431.396.731.468.357.086.833.111 1.198.077.38-.036.77-.297.972-.635.838.412 1.735.343 2.504-.228.524-.392.776-.65.809-1.284.472.004 1.142-.249 1.315-.737m-6.367 4.173c-.177-.253-.328-.806-.175-1.098m2.97 1.059c-.262-.35-.459-.945-.246-1.358m-5.036 2.414c-.362-.443-.563-1.237-.373-1.77m-.293-.868c-.164-.52-.54-1.198-.192-1.655-.151-.097-.354-.041-.526-.178-.251-.201-.392-.707-.345-1.011.031-.195.236-.453.143-.678-.066-.16-.229-.184-.355-.287-.128-.107-.23-.266-.344-.388-.489.396-1.206.352-1.763.515m.839 2.605c.448.324 1.255-.121 1.6-.425m9.044-.831c-.193-.202-.338-.445-.541-.642-.538.458-1.063.542-1.746.609-.525.052-1.086.272-1.543-.09-.307-.241-.387-.456-.195-.756.303-.476.215-.913.152-1.439.981.313 2.985.388 2.95-1.079-.01-.386-.104-.265-.388-.473a1.216 1.216 0 0 1-.4-.55c-.107-.295.085-.67-.085-.926.42.017.821.149 1.237-.025.379-.159.676-.519.979-.79m.847 1.711c-.236.557-1.317.698-1.827.667m2.592 1.72c-.485.278-1.733.669-2.234.306m-.407.808c.227-.22-.123-1.19-.328-1.404m-2.49 2.637c-.14.437-.325.905.038 1.26"/><path d="M492.278 337.13c-.081-.431-.047-1.011-.015-1.471.009-.155.038-.35.094-.49.044-.115.166-.18.148-.314-.025-.2-.541-.584-.673-.744-.159-.196-.343-.442-.415-.675-.102-.327-.136-.64.083-.903.69.234 1.543.551 2.066-.203.197-.284.189-.76.156-1.085.398-.046.761.16 1.195.08.306-.057.784-.072 1-.329m-6.481 2.738c.369.199 1.054-.143 1.363-.373m-.945 2.506c.549.329 1.371.057 1.809-.327m1.097-.579c.243.119.707-.017.887-.229m-4.746-7.637c.343.376.603.867.93 1.268-.192.351-.435.734-.416 1.156.024.577.549.863.785 1.331-.357.449-1.148 1.125-1.777 1.054-.669-.075-1.249-.921-1.258-1.544-.009-.563.225-.444-.295-.769-.399-.248-.349-.716-.446-1.119.149-.182.378-.174.593-.249a2.62 2.62 0 0 0 .807-.485c.362-.3.704-.605.938-1.009-.246-.365-.784-.63-.838-1.123-.028-.259.078-.19-.118-.423-.23-.271-.657-.428-.675-.839-.01-.21.122-.361.211-.533.159-.309.114-.267-.169-.585-.383-.429-1.041-1.131-.465-1.646m-.333 10.409c.223-.077.586-.436.635-.69m1.212 1.623c-.055-.19-.019-.385.011-.575m-.567-2.527c.346.266 1.076.078 1.395-.158m1.135.68c.909.51 1.966-.419 2.595-.992-.166-.328-.168-.697-.288-1.038-.062-.179-.265-.396-.259-.589.012-.414.754-.284 1.048-.306.573-.044 1.219.147 1.648-.354.293-.341.265-.523.182-.936-.07-.35-.207-.485-.407-.761-.229-.314.001-.583-.121-.946-.114-.342-.295-.551-.538-.826-.114-.128-.161-.187-.182-.321-.027-.183.052-.426.005-.64.213-.061.437-.009.659-.092a2.96 2.96 0 0 0 .441-.209c.192-.11.368-.279.556-.379m-2.072 9.1c-.063-.303-.284-.516-.347-.817-.034-.166.014-.38-.08-.523.076-.103.091-.035.201-.064.281-.072.696.087 1.02.016.458-.1.939-.457 1.231-.829.205-.261.123-.713.003-1.021.648.188.991.239 1.646-.042.329-.145.576-.331.843-.567m-.166-1.674c-.656-.57-1.778-.026-2.406.339m-.489-1.584c.633.226 1.317-.06 1.776-.501m-6.443 7.476c.222.514.546.864.937 1.225m.732-4.46a7.516 7.516 0 0 1-1.704-.008"/><path d="M492.468 327.012c.142-.239.205-.821-.052-1.005-.377-.272-.833-.239-.897-.805-.02-.18.102-.541.032-.695-.101-.225-.466-.248-.609-.458-.265-.385-.103-1.037-.233-1.484.607-.314 1.508-.146 2.126-.467.473-.246.617-.717.463-1.211-.041-.136-.141-.226-.234-.328-.262-.287-.327-.429-.312-.834.006-.171.15-.537.104-.678-.056-.165-.436-.439-.56-.569-.355.152-.778.173-1.158.236-.358.06-.72.207-1.08.218-.483.013-.785-.293-.829-.756-.012-.134.044-.421-.012-.534-.065-.131-.428-.259-.57-.396a1.556 1.556 0 0 1-.4-1.53c-.467.084-.965.094-1.436.114-.379.015-.963.145-1.332.019-.224-.076-.465-.358-.598-.545-.213-.302-.066-.315.049-.621m-1.941 1.534c.328.369 1.54.255 1.862-.134m.24.313c-.511.871.771 1.291.826 1.991.026.333-.292 1.046-.554 1.153-.112.048-.358-.025-.494-.007-.157.021-.295.078-.444.128-.148.049-.328.158-.459.17"/><path d="M483.428 317.968c.262.058.644-.229.946-.251.27-.022.446.141.7.149m1.171.042c.513.198 1.431-.383 1.83-.711m-2.111 1.57c.062.265-.026.729.138.959.205.284.646.017.979-.043a75.1 75.1 0 0 1 2.095-.352c.421.458-.292 1.393.465 1.759.36.175.863-.04 1.222-.101.411-.067.838-.12 1.205-.333m-7.705.881c.314-.001.615.104.97.055.343-.047.608-.114.917-.25m.282-1.265c-.263.402-.146 1.164.236 1.527m3.43.081c-.112.282.106.634.006.918-.104.293-.413.394-.68.507-.6.251-1.319.446-1.96.33m.891 1.667c.787.036 1.429-.512 1.974-1m-1.247 2.534c.741-.096 1.317-.655 1.853-1.136m-3.535.298c-.57.399-1.241.517-1.76 1.013-.455.436-.029 1.152.392 1.504a.231.231 0 0 0 .062-.05m-.973-3.294c.669.076 1.107-.187 1.742-.269m-.581-1.866c-.372.306-1.268.607-1.713.526m2.353-1.706c.756.31 1.728.113 2.366-.383m-.894-5.507c.525-.09 1.051-.099 1.548-.312.127-.055.378-.265.49-.266.41-.01.704.654.875.913-.129.18-.065.399-.119.605-.022.086.064.142-.021.218-.084.078-.37.063-.483.094-.574.157-.991.456-1.423.843m2.854.473c.125-.146.017-.802-.05-1.005-.109-.329-.401-.487-.648-.675m1.541 2.26c.274.219 1.386-.008 1.717-.205m-1.41 1.991c.511.288 1.406-.077 1.812-.413m-3.515 3.882c.379.337 1.604-.182 1.906-.536m-.871 2.277c.239.109.957-.176 1.183-.311.227-.136.416-.354.612-.529"/></g></g></svg>